<?xml version="1.0" encoding="utf-8"?>
<!-- Generator: Adobe Illustrator 23.0.1, SVG Export Plug-In . SVG Version: 6.00 Build 0)  -->
<svg version="1.1" id="Layer_6" xmlns="http://www.w3.org/2000/svg" xmlns:xlink="http://www.w3.org/1999/xlink" x="0px" y="0px"
	 viewBox="0 0 200 200" style="enable-background:new 0 0 200 200;" xml:space="preserve">
<style type="text/css">
	.st0{fill:#FFECD6;stroke:#4D4D4D;stroke-width:3;stroke-miterlimit:10;}
	.st1{fill:#52B800;stroke:#4D4D4D;stroke-width:3;stroke-miterlimit:10;}
	.st2{fill:#528000;stroke:#4D4D4D;stroke-width:3;stroke-miterlimit:10;}
	.st3{fill:#FFFEAA;stroke:#4D4D4D;stroke-width:3;stroke-miterlimit:10;}
	.st4{fill:#694700;stroke:#4D4D4D;stroke-miterlimit:10;}
</style>
<rect x="114.57" y="6.94" transform="matrix(0.8946 0.4468 -0.4468 0.8946 21.9611 -49.3999)" class="st0" width="2.3" height="29.84"/>
<path class="st1" d="M121.57,123.11c-4.74,32.29-32.74,54.93-62.52,50.56c-29.78-4.37-50.09-34.1-45.35-66.4
	c3.85-26.2,23-46.04,45.99-50.26c3.44-0.63,5.98-3.47,6.48-6.93c0-0.02,0.01-0.04,0.01-0.06c2.62-17.87,18.22-30.38,34.84-27.94
	s27.96,18.91,25.34,36.78c-1.08,7.36-4.36,13.8-9,18.67c-2.3,2.41-2.88,5.95-1.4,8.94C121.28,97.23,123.5,109.96,121.57,123.11z"/>
<path class="st2" d="M166.57,180.39c-2.01,1.45-4.09,2.73-6.23,3.84c-23.87,12.48-55.03,4.43-72.57-19.85
	c-15.5-21.46-15.6-49.04-2.05-68.09c2.03-2.86,1.88-6.66-0.17-9.49c-0.01-0.01-0.02-0.03-0.05-0.05
	c-10.57-14.64-8.1-34.49,5.52-44.32c4.12-2.97,8.78-4.69,13.57-5.23c11.09-1.26,22.85,3.73,30.23,13.94
	c4.36,6.03,6.5,12.93,6.56,19.66c0.03,3.34,2.08,6.28,5.22,7.39c11.32,4.02,21.78,11.59,29.56,22.37
	C195.27,127.02,190.97,162.77,166.57,180.39z"/>
<path class="st3" d="M165.89,180.39c-2.07,1.45-4.22,2.73-6.43,3.84c-22.07,4.71-46.8-4.26-61.84-24.45
	c-16-21.46-16.09-49.04-2.12-68.09c2.1-2.86,1.94-6.66-0.18-9.49c-0.01-0.01-0.02-0.03-0.05-0.05c-10.9-14.64-8.36-34.49,5.7-44.32
	c0.32-0.23,19.34-4.5,32.16,13.3c4.39,6.1,6.7,12.93,6.77,19.66c0.04,3.34,2.14,6.28,5.39,7.39c11.67,4.02,22.47,11.59,30.5,22.37
	C195.5,127.02,191.06,162.77,165.89,180.39z"/>
<ellipse transform="matrix(0.9311 -0.3648 0.3648 0.9311 -38.3098 61.045)" class="st4" cx="142.41" cy="131.92" rx="28.12" ry="36.43"/>
</svg>
