<?xml version="1.0" encoding="utf-8"?>
<!-- Generator: Adobe Illustrator 23.0.1, SVG Export Plug-In . SVG Version: 6.00 Build 0)  -->
<svg version="1.1" id="water" xmlns="http://www.w3.org/2000/svg" xmlns:xlink="http://www.w3.org/1999/xlink" x="0px" y="0px"
	 viewBox="0 0 200 200" style="enable-background:new 0 0 200 200;" xml:space="preserve">
<style type="text/css">
	.st0{fill:#E9FF66;}
	.st1{fill:#4D4D4D;}
	.st2{fill:#E98C66;}
	.st3{fill:#E9D666;}
	.st4{fill:#E9FF66;stroke:#4D4D4D;stroke-width:3;stroke-miterlimit:10;}
</style>
<g>
	<path class="st0" d="M63.17,26.54c0.06,4.61,0.11,9.22,0.17,13.83c0.01,0.91-0.03,1.94-0.78,2.54c-0.47,0.38-1.22,0.6-1.32,1.17
		c1.07,0.55,2.43,0.42,3.54-0.06s2.02-1.25,2.91-2.01c0.51-0.43,1.02-0.87,1.38-1.41c0.44-0.66,0.64-1.43,0.83-2.18
		c0.98-3.91,1.97-7.88,1.72-11.88"/>
	<g>
		<path class="st1" d="M61.67,26.54c0.04,3.46,0.09,6.91,0.13,10.37c0.02,1.65,0.4,3.56-0.53,5.05c-0.31,0.5-0.98,0.78-1.33,1.36
			c-0.52,0.87,0,1.9,0.9,2.2c3.48,1.18,7.43-1.11,9.41-4.02c1.24-1.83,1.59-4.5,2.04-6.61c0.58-2.77,0.92-5.51,0.83-8.35
			c-0.06-1.93-3.06-1.93-3,0c0.13,4.31-0.98,18.64-8.48,16.09c0.3,0.73,0.6,1.47,0.9,2.2c0.36-0.6,1.17-0.9,1.59-1.53
			c0.75-1.11,0.71-2.32,0.71-3.63c0.01-4.38-0.11-8.76-0.16-13.14C64.65,24.61,61.65,24.61,61.67,26.54L61.67,26.54z"/>
	</g>
</g>
<g>
	<path class="st0" d="M79.15,24.35c-0.07,3.66-0.7,7.32-1.86,10.83c-0.29,0.87-0.61,1.73-0.73,2.63c-0.22,1.6,0.05,3.53-1.34,4.54
		c-0.18,0.13-0.4,0.24-0.63,0.21c-0.2-0.02-0.36-0.14-0.51-0.26c-0.89-0.68-1.78-1.36-2.67-2.04c-0.34-0.26-0.68-0.53-0.87-0.89
		c-0.26-0.51-0.16-1.11-0.06-1.66c0.65-3.68,0.83-7.43,0.53-11.15"/>
	<g>
		<path class="st1" d="M77.65,24.35c-0.12,3.1-0.54,6.12-1.4,9.1c-0.38,1.32-0.88,2.6-1.15,3.95c-0.15,0.75,0.08,2.84-0.3,3.28
			c-0.19,0.22-1.78-0.79-2.29-1.47c-0.82-1.09-0.37-2.24-0.23-3.59c0.32-3.05,0.41-6.01,0.22-9.08c-0.12-1.92-3.12-1.93-3,0
			c0.16,2.57,0.19,5.12-0.06,7.68c-0.15,1.52-0.99,3.93-0.35,5.53c0.63,1.6,3.83,4.24,5.5,4.28c2.76,0.07,3.1-3.34,3.37-5.26
			c0.72-4.93,2.5-9.37,2.69-14.44C80.72,22.42,77.72,22.42,77.65,24.35L77.65,24.35z"/>
	</g>
</g>
<g>
	<path class="st0" d="M90.45,43.43c-3.08,0.94-6.55-0.59-8.58-2.89c-2.93-3.32-5.27-9.87-3.74-14.05c0.28-0.76,0.73-1.49,0.79-2.29
		c-0.03,0.37,6.88-0.32,7.49-0.44c1.17-0.24,1.57-0.56,2.03,0.57c0.41,1,0,2.67,0.02,3.74C88.53,33.23,89.19,38.39,90.45,43.43z"/>
	<g>
		<path class="st1" d="M90.05,41.98c-5.09,1.04-8.38-3.23-9.92-7.45c-1.35-3.69-0.74-6.32,0.24-9.94c-0.73,0.3-1.47,0.6-2.2,0.9
			c0.92,0.61,2.49,0.29,3.5,0.22c0.96-0.06,4.11-0.94,4.93-0.48c1.1,0.62,0.53,6.98,0.67,8.46c0.33,3.42,0.93,6.8,1.73,10.14
			c0.45,1.88,3.34,1.08,2.89-0.8c-1.06-4.45-1.78-8.98-1.9-13.56c-0.05-1.97,0.89-5.47-0.99-6.92c-1.17-0.91-2.71-0.29-4.04-0.12
			c-1.09,0.14-2.2,0.22-3.3,0.29c-0.7,0.04-2.54-0.18-1.99,0.19c-0.81-0.54-1.96,0.01-2.2,0.9c-1.48,5.45-1.63,9.83,1.32,14.98
			c2.54,4.43,6.89,7.16,12.04,6.1C92.74,44.49,91.94,41.6,90.05,41.98z"/>
	</g>
</g>
<g>
	<path class="st0" d="M101.94,22.45c1.17,5.33,2.7,10.58,4.59,15.74c0.07,0.18,0.13,0.37,0.09,0.55c-0.12,0.46-0.8,0.55-1.32,0.53
		c-2.78-0.1-5.56-0.19-8.34-0.29c-0.38-0.01-0.77-0.03-1.12-0.18c-0.58-0.26-0.87-0.85-1.12-1.39c-1.15-2.5-2.3-5.05-2.61-7.75
		c-0.09-0.8-0.1-1.6-0.26-2.39c-0.32-1.55-1.21-3.08-0.88-4.63"/>
	<g>
		<path class="st1" d="M100.5,22.85c0.64,2.87,1.36,5.72,2.2,8.54c0.76,2.54,2.07,5.15,2.47,7.75c0.13-0.49,0.26-0.97,0.39-1.46
			c-0.58,0.5-3.58-0.03-4.43-0.06c-0.95-0.03-2.05,0.1-2.98-0.1c-1.87-0.4-2.33-1.22-3.01-2.86c-0.86-2.05-1.35-3.99-1.63-6.2
			c-0.25-1.95-1.12-3.84-1.04-5.82c0.08-1.93-2.92-1.93-3,0c-0.1,2.48,0.86,4.96,1.2,7.41c0.29,2.08,0.97,4.02,1.79,5.95
			c0.63,1.48,1.21,3.42,2.8,4.17c1.72,0.8,4.61,0.41,6.46,0.48c2.38,0.08,6.92,0.88,6.25-2.86c-0.43-2.4-1.68-4.84-2.39-7.2
			c-0.84-2.82-1.56-5.67-2.2-8.54C102.97,20.17,100.07,20.96,100.5,22.85L100.5,22.85z"/>
	</g>
</g>
<g>
	<path class="st2" d="M47.5,14.31c-0.79,1.98-1.96,3.82-1.99,5.9s0.82,4.26,2.83,5.59c1.81,1.2,4.28,1.55,6.63,1.56
		c0.63,0,1.28-0.02,1.86-0.2c1.68-0.52,2.32-2.14,2.44-3.57c0.32-3.78-1.62-7.63-5.14-10.19c-1.13-0.82-2.46-1.53-3.98-1.68
		C48.64,11.56,48.14,13.21,47.5,14.31"/>
	<g>
		<path class="st1" d="M46.2,13.55c-1.88,4.4-3.74,9.36,0.67,13c3.2,2.64,10.91,4.01,13.21-0.42c2.22-4.28-0.51-9.93-3.75-12.85
			c-1.62-1.47-3.89-3.05-6.18-3.06C48.01,10.21,47.11,11.88,46.2,13.55c-0.92,1.7,1.67,3.21,2.59,1.51c1.7-3.14,4.68-0.66,6.45,1.36
			c1.53,1.74,3.36,5.1,2.47,7.49c-1.1,2.96-6.41,2.17-8.63,0.59c-3.49-2.49-1.62-6.34-0.3-9.44C49.54,13.31,46.96,11.78,46.2,13.55
			L46.2,13.55z"/>
	</g>
</g>
<g>
	<path class="st3" d="M51.24,11.13c4.14,2.17,9.4,2.29,14.36,2.34c6.79,0.07,13.6,0.13,20.36-0.36c11-0.8,21.87-3.06,32.91-2.83
		c0.41,0.01,0.86,0.03,1.16,0.26c0.27,0.21,0.33,0.53,0.37,0.82c0.34,2.18,0.66,4.36,1.01,6.53c0.2,1.27,1.22,3.49-0.19,4.46
		c-0.45,0.31-1.04,0.37-1.6,0.42c-3.82,0.35-7.67,0.69-11.47,0.22c-1.11-0.14-2.22-0.35-3.33-0.47c-1.47-0.16-2.96-0.16-4.44-0.15
		c-5.65,0.04-11.33,0.26-16.83,1.42c-1.27,0.27-2.53,0.59-3.82,0.79c-1.71,0.27-3.44,0.33-5.17,0.44
		c-5.23,0.33-10.42,1.07-15.5,2.22c0.7-6.11-2.35-12.47-7.76-16.17"/>
	<g>
		<path class="st1" d="M50.48,12.43c9.14,4.19,21.08,2.83,30.86,2.44c6.09-0.24,12.12-0.98,18.16-1.71
			c3.22-0.39,6.43-0.78,9.66-1.03c2.58-0.21,8.38-1.54,10.04,1.28c0.44,0.75,0.36,2.4,0.5,3.27c0.37,2.25,0.91,2.24-0.74,3.76
			c-2.28,2.1-7.58,1.37-10.5,1.07c-5.25-0.53-10.33-0.72-15.62-0.38c-6.17,0.39-12.13,1.99-18.29,2.42
			c-5.36,0.38-10.64,1.13-15.9,2.27c0.63,0.48,1.27,0.96,1.9,1.45c0.49-7.16-2.83-13.24-8.5-17.46c-1.55-1.15-3.05,1.45-1.51,2.59
			c4.83,3.6,7.42,8.86,7.02,14.87c-0.07,1.03,1.01,1.64,1.9,1.45c6.81-1.47,13.64-1.59,20.47-2.63c7.39-1.13,14.41-2.36,21.93-2.18
			c6.09,0.15,12.04,1.56,18.16,0.34c4.28-0.85,3.31-4.12,2.71-7.54c-0.74-4.22,0-7.6-4.83-7.91c-7.35-0.48-14.99,0.99-22.26,1.86
			c-6.92,0.82-13.81,1.33-20.78,1.38c-7.35,0.06-16.02,0.96-22.86-2.17C50.25,9.04,48.73,11.62,50.48,12.43L50.48,12.43z"/>
	</g>
</g>
<path class="st4" d="M54.12,35.04c-0.7,0.4-1.38,0.99-2.3,1.88C40.25,48.15,32.89,62.55,28.71,77.45
	c-4.18,14.9-5.31,30.37-5.64,45.74c-0.26,12.09,0.03,24.62,4.73,36.09c1.35,3.29,13.08,28.35,17.06,27.07
	c2.81-0.9,6.6,0.75,7.96-1.84c1.3-2.47,0.54-6.76,0.57-9.39c0.07-5.92,0.16-11.86,0.16-17.77c0.01-12.41,3.31-24.51,7.77-36.18
	c4.59-12.03,10.32-23.68,14.77-35.75c2.1-5.69,3.93-11.54,4.03-17.54c0.1-5.84-1.44-11.61-3.42-17.18
	c-1.68-4.73-4.3-14.11-10.06-15.69c-2.7-0.74-5.55-0.8-8.35-0.75C56.27,34.3,55.17,34.45,54.12,35.04z"/>
<path class="st4" d="M56.73,38.33c-0.63,0.49-1.2,1.17-1.97,2.18c-9.6,12.66-14.53,27.9-16.21,43.2
	c-1.69,15.3-0.28,30.75,1.92,45.99c1.73,11.99,4.07,24.34,10.59,35.04c1.87,3.07,17.58,26.26,21.31,24.46
	c2.63-1.27,6.65-0.15,7.57-2.89c0.88-2.62-0.57-6.76-0.97-9.36c-0.91-5.87-1.79-11.74-2.75-17.6c-2.03-12.28-0.74-24.69,1.75-36.82
	c2.57-12.51,6.32-24.81,8.74-37.35c1.14-5.91,1.99-11.95,1.11-17.89c-0.86-5.79-3.33-11.29-6.19-16.52
	c-2.43-4.45-6.57-13.37-12.52-14.15c-2.79-0.37-5.62-0.04-8.38,0.39C58.72,37.31,57.67,37.6,56.73,38.33z"/>
<path class="st4" d="M56.91,38.18c-0.52,0.58-0.96,1.34-1.52,2.45c-7.04,13.98-9,29.76-7.75,45.1s5.58,30.33,10.65,45
	c3.98,11.54,8.64,23.33,17.1,32.85c2.43,2.73,22.32,23.1,25.64,20.75c2.35-1.66,6.52-1.19,6.91-4.04c0.37-2.72-1.85-6.57-2.74-9.07
	c-2.01-5.64-3.99-11.29-6.06-16.9c-4.34-11.77-5.43-24.2-5.29-36.54c0.15-12.73,1.5-25.43,1.5-38.16c0-6-0.31-12.08-2.31-17.79
	c-1.95-5.57-5.43-10.6-9.25-15.3c-3.24-4-9.01-12.14-15.03-11.97c-2.82,0.08-5.55,0.84-8.18,1.7
	C58.68,36.86,57.69,37.32,56.91,38.18z"/>
<path class="st4" d="M74.41,37.18c-0.45,0.62-0.8,1.42-1.23,2.59c-5.36,14.59-5.44,30.47-2.39,45.59
	c3.05,15.12,9.12,29.61,15.89,43.7c5.32,11.08,11.34,22.36,20.87,31c2.74,2.48,24.91,20.8,27.94,18.13
	c2.14-1.88,6.34-1.82,6.39-4.69c0.05-2.74-2.61-6.35-3.8-8.75c-2.66-5.41-5.3-10.83-8.02-16.21c-5.7-11.28-8.25-23.53-9.57-35.82
	c-1.35-12.67-1.5-25.43-3-38.08c-0.71-5.96-1.74-11.98-4.4-17.47c-2.59-5.35-6.65-10.01-11-14.31c-3.7-3.66-10.39-11.19-16.35-10.44
	c-2.79,0.35-5.41,1.38-7.93,2.48C76.01,35.7,75.09,36.24,74.41,37.18z"/>
<path class="st4" d="M92.01,37.54c-0.3,0.7-0.46,1.54-0.61,2.76c-1.94,15.28,1.58,30.83,7.99,45.06
	c6.41,14.23,15.64,27.27,25.45,39.8c7.71,9.85,16.16,19.76,27.45,26.44c3.24,1.92,29.09,15.7,31.45,12.52
	c1.67-2.24,5.8-2.97,5.2-5.78c-0.57-2.69-4-5.72-5.7-7.85c-6.18-7.74-13.32-15.28-18.03-23.87c-4.94-9.01-9.26-18.31-12.92-27.82
	c-2.05-5.32-5.15-10.32-7.86-15.4c-1.36-2.56-2.74-5.1-4.12-7.65c-4.06-7.5-8.12-15-12.62-22.29c-4.24-6.88-8.58-14.95-15.76-19.68
	c-2.91-1.92-6.03-4.28-9.88-3.03c-2.65,0.87-4.99,2.36-7.2,3.91C93.25,35.79,92.47,36.49,92.01,37.54z"/>
</svg>
