<?xml version="1.0" encoding="utf-8"?>
<!-- Generator: Adobe Illustrator 23.0.1, SVG Export Plug-In . SVG Version: 6.00 Build 0)  -->
<svg version="1.1" id="almond_milk" xmlns="http://www.w3.org/2000/svg" xmlns:xlink="http://www.w3.org/1999/xlink" x="0px"
	 y="0px" viewBox="0 0 200 200" style="enable-background:new 0 0 200 200;" xml:space="preserve">
<style type="text/css">
	.st0{fill:#FFECD6;stroke:#4D4D4D;stroke-width:3;stroke-miterlimit:10;}
	.st1{fill:#BBDA1E;stroke:#4D4D4D;stroke-width:3;stroke-miterlimit:10;}
	.st2{fill:#549500;}
	.st3{fill:#4D4D4D;}
</style>
<rect x="104.74" y="7.53" transform="matrix(0.9943 0.1066 -0.1066 0.9943 3.0557 -11.1663)" class="st0" width="2.38" height="30.91"/>
<path class="st1" d="M148.2,119.16c7.07,33.06-11.93,65.16-42.42,71.67c-30.49,6.52-60.95-15-68.02-48.06
	c-5.73-26.82,5.69-53.01,26.48-65.41c3.11-1.86,4.55-5.53,3.79-9.07c0-0.02-0.01-0.04-0.01-0.06c-3.91-18.3,6.7-36.08,23.72-39.72
	s33.98,8.25,37.89,26.55c1.61,7.53,0.76,14.97-1.99,21.38c-1.36,3.18-0.65,6.82,1.87,9.19C138.57,94.14,145.32,105.7,148.2,119.16z"
	/>
<g>
	<path class="st2" d="M105.61,19.91c1.5-4.09,5.32-7.01,9.45-8.41s8.57-1.5,12.93-1.42c3.43,0.06,6.9,0.22,10.21,1.15
		c4.65,1.29,8.74,4.01,12.79,6.65c10.28,6.7,21.57,13.35,33.84,12.91c-5.81,3.11-11.62,6.21-17.42,9.32
		c-1.55,0.83-3.1,1.66-4.78,2.18c-4.08,1.28-8.53,0.63-12.59-0.68c-3.35-1.08-6.55-2.59-9.51-4.49c-5.31-3.41-9.74-8.02-14.82-11.76
		c-5.08-3.74-11.22-6.69-17.49-5.98c3.2-3.63,8.41-4.98,13.24-4.59c4.83,0.39,9.39,2.3,13.81,4.28c4.27,1.91,8.54,3.96,12.15,6.94
		c2.47,2.05,4.97,4.67,8.18,4.66"/>
	<g>
		<path class="st3" d="M106.91,20.67c3.69-8.35,13.01-9.23,21.08-9.08c8.05,0.14,14.19,2.41,20.89,6.71
			c11.03,7.08,22.4,14.11,35.95,13.99c-0.25-0.93-0.5-1.86-0.76-2.8c-6.66,3.56-13.37,7.99-20.41,10.74
			c-8.06,3.15-17.09-0.72-23.8-5.37c-10.02-6.94-18.2-17.81-31.64-16.98c0.35,0.85,0.71,1.71,1.06,2.56
			c8.01-8.04,19.88-2.75,28.43,1.4c4,1.94,7.34,4.3,10.79,7.05c2.24,1.78,4.23,2.96,7.1,3.27c1.92,0.21,1.9-2.79,0-3
			c-4.63-0.51-9.16-6.07-13.25-8.32c-4.25-2.34-8.83-4.43-13.43-5.96c-7.52-2.49-15.88-2.47-21.76,3.43
			c-0.87,0.88-0.27,2.64,1.06,2.56c15.61-0.96,24.79,15.45,38.12,20.96c5.83,2.41,12.29,3.73,18.32,1.28
			c7.21-2.92,14.06-7.37,20.92-11.03c1.32-0.71,0.7-2.81-0.76-2.8c-9.3,0.08-17.65-3.41-25.57-8.02c-6.3-3.66-12.18-8.61-19.13-11
			c-11.07-3.8-30.31-3.57-35.81,8.89C103.54,20.9,106.13,22.43,106.91,20.67L106.91,20.67z"/>
	</g>
</g>
</svg>
