<?xml version="1.0" encoding="utf-8"?>
<!-- Generator: Adobe Illustrator 23.0.1, SVG Export Plug-In . SVG Version: 6.00 Build 0)  -->
<svg version="1.1" id="milk" xmlns="http://www.w3.org/2000/svg" xmlns:xlink="http://www.w3.org/1999/xlink" x="0px" y="0px"
	 viewBox="0 0 200 200" style="enable-background:new 0 0 200 200;" xml:space="preserve">
<style type="text/css">
	.st0{fill:#A25600;}
	.st1{fill:#4D4D4D;}
	.st2{fill:#FFC41F;stroke:#4D4D4D;stroke-width:3;stroke-miterlimit:10;}
	.st3{fill:#FF7D1F;}
	.st4{fill:#E3FF3A;}
	.st5{fill:#87CF00;}
</style>
<g>
	<path class="st0" d="M48.83,31.98c-3.47-3.4-6.35-7.41-8.47-11.78c-0.24-0.49-0.47-1.08-0.2-1.56c0.21-0.39,0.67-0.55,1.08-0.69
		c1.31-0.43,2.61-0.86,3.92-1.3c1.24,2.64,2.47,5.27,3.71,7.91c2.02,4.32,4.13,8.75,7.63,11.98c0.44,0.41,0.94,1.03,0.59,1.52
		c-0.41,0.58-1.31,0.08-1.8-0.44c-2.25-2.38-4.49-4.77-6.74-7.15"/>
	<g>
		<path class="st1" d="M49.89,30.92c-2.3-2.34-4.39-4.85-6.12-7.65c-0.43-0.68-2.38-3.31-2.12-3.88c0.23-0.52,3.44-1.14,3.92-1.3
			c-0.56-0.23-1.13-0.46-1.69-0.69c2.43,5.19,4.57,10.72,7.72,15.52c0.43,0.65,4.5,6.5,4.77,3.63c0.11-1.16-5.97-6.33-6.74-7.15
			c-1.33-1.41-3.45,0.72-2.12,2.12c2.17,2.3,4.59,5.97,7.33,7.63c1.1,0.67,1.84,0.77,3.02,0.2c0.46-0.22,0.74-0.8,0.74-1.3
			c0-1.3-0.28-1.54-1.03-2.58c-1.63-2.25-3.48-4.06-4.85-6.53c-2.33-4.21-4.22-8.7-6.26-13.06c-0.27-0.57-1.11-0.88-1.69-0.69
			c-2.71,0.9-6.83,1.28-5.99,5c1.04,4.62,5.79,9.58,9,12.84C49.13,34.42,51.25,32.3,49.89,30.92L49.89,30.92z"/>
	</g>
</g>
<path class="st2" d="M43.08,39.32c-0.5,0.55-0.98,1.1-1.44,1.64c-5.68,6.63-10.29,14.3-13.34,22.67
	c-3.34,9.16-3.74,17.53-1.84,27.35c2.93,15.12,9.06,29.73,17.91,42.37c9.62,13.75,22.41,25.12,36.87,32.92
	c9.81,5.29,20.72,9.67,31.71,9.95c16.49,0.43,32.75-6.01,46.8-13.81c10.01-5.55,16.36-12.79,10.64-25.29
	c-1.66-3.62-3.79-7.02-5.32-10.69c-3.73-8.9-3.01-17.76-4.16-27.06c-1.18-9.55-3.52-19.02-7.14-28.01
	c-7.65-18.99-20.8-38.34-38.58-48.23c-11.2-6.23-24.3-4.86-36-2.76C65.55,22.83,52.49,28.88,43.08,39.32z"/>
<g>
	<path class="st3" d="M26.28,137.6c1.58,12.02,9.07,22.99,18.59,31.89c5.51,5.16,11.85,9.8,19.29,12.65
		c7.91,3.03,16.68,3.89,25.3,4.68c15.51,1.43,32.22,2.55,45.71-4.19c5.46-2.73,10.03-6.61,13.98-10.85
		c7.03-7.55,12.22-16.35,15.15-25.69c0.19-0.63,0.37-1.33,0.03-1.91c-0.06-0.1-0.12-0.18-0.2-0.26c-0.62-0.66-1.82-0.77-2.85-0.79
		c-19.12-0.33-38.22-1.18-57.27-2.53c-27.32-1.95-55.31-5.14-79.36-16.46c-0.1-0.04-0.21-0.09-0.31-0.14
		c-0.78,4.64-0.12,9.45,1.91,13.8"/>
	<g>
		<path class="st1" d="M24.83,138c2.97,19.37,19.57,37.49,37.35,44.95c10.62,4.45,22.63,5.09,33.98,5.94
			c10.6,0.8,21.57,1.05,31.89-1.91c9.82-2.82,17.88-8.98,24.43-16.7c3.17-3.73,5.97-7.78,8.3-12.09c1.83-3.38,5.37-9.12,5.23-13.07
			c-0.07-2.2-1.51-2.95-3.48-3.39c-2.25-0.51-4.88-0.16-7.19-0.21c-3.95-0.09-7.91-0.2-11.86-0.34
			c-13.17-0.45-26.33-1.13-39.48-2.07c-26.98-1.93-54.03-5.16-78.91-16.4c-1.11-0.5-2.1,0.11-2.26,1.3
			c-0.64,4.99,0.01,9.57,1.96,14.2c0.74,1.75,3.64,0.98,2.89-0.8c-1.86-4.41-2.47-8.65-1.86-13.4c-0.75,0.43-1.5,0.86-2.26,1.3
			c37.1,16.76,79.87,17.52,119.9,18.88c5.12,0.17,10.77-0.39,15.82,0.42c4.14,0.66,3.57,1.42,2.2,4.95c-1.05,2.7-2.29,5.32-3.7,7.86
			c-5,8.99-12.22,17.54-21.2,22.75c-9.13,5.29-19.89,6.39-30.26,6.24c-10.33-0.15-21.05-0.95-31.21-2.83
			c-22.16-4.09-43.9-23.51-47.4-46.36C27.43,135.3,24.54,136.11,24.83,138L24.83,138z"/>
	</g>
</g>
<g>
	<path class="st4" d="M25.5,122.5l-0.18,5.1c1.6,12.02,9.23,22.99,18.92,31.89c5.61,5.16,12.06,9.8,19.62,12.65
		c8.06,3.03,16.98,3.89,25.75,4.68c15.78,1.43,32.8,2.55,46.52-4.19c5.55-2.73,10.21-6.61,14.22-10.85
		c5.38-5.68,9.71-12.07,12.78-18.86C155.76,144.34,25.5,122.5,25.5,122.5z"/>
	<g>
		<path class="st1" d="M24,122.5c-0.46,12.93,5.87,24.12,14.52,33.43c11.35,12.22,24.87,19.26,41.43,21.38
			c16.29,2.09,34.55,4.3,50.51-0.81c15.55-4.98,27.21-18.41,33.97-32.83c0.58-1.24-0.37-2.42-1.69-2.2
			c-4.52,0.74-11.61-0.96-16.54-1.6c-11.26-1.47-22.48-3.16-33.71-4.88c-23.54-3.6-47.06-7.4-70.56-11.28
			c-5.34-0.88-10.69-1.76-16.03-2.66c-1.89-0.32-2.7,2.57-0.8,2.89c39.45,6.61,78.94,13.28,118.59,18.59
			c6.13,0.82,13.62,2.84,19.84,1.83c-0.56-0.73-1.13-1.47-1.69-2.2c-6.67,14.24-18.16,27.53-33.74,31.92
			c-14.34,4.05-30.04,2.21-44.63,0.64c-8.11-0.87-16.18-2.3-23.55-5.95c-6.83-3.37-12.87-8.33-18.14-13.78
			c-8.65-8.95-15.22-19.8-14.77-32.5C27.07,120.57,24.07,120.57,24,122.5z"/>
	</g>
</g>
<g>
	<path class="st5" d="M49.92,26.95c6.37-5.48,15.53-6.36,23.89-5.47c14.93,1.6,28.87,7.9,43.06,12.79s29.67,8.42,44.12,4.33
		c-3.89,1.52-7.2,4.19-10.79,6.32c-8.76,5.21-19.09,7.18-29.26,7.66c-5.56,0.26-11.21,0.1-16.57-1.43
		c-5.56-1.59-10.59-4.58-15.56-7.54c-4.77-2.85-9.55-5.7-14.32-8.55c-7.24-4.32-15.38-8.8-23.62-7.06"/>
	<g>
		<path class="st1" d="M50.98,28.01c15.51-12.39,40.13-1.56,56.15,4.34c17.36,6.39,35.7,12.55,54.26,7.7
			c-0.39-0.91-0.77-1.83-1.16-2.74c-4.13,1.79-7.63,4.53-11.52,6.74c-4.56,2.59-9.55,4.31-14.66,5.41
			c-10.38,2.25-22.49,3.05-32.55-0.86c-9.53-3.7-18.2-10.1-26.98-15.26c-7.45-4.39-15.19-8.22-24.05-6.78
			c-1.9,0.31-1.09,3.2,0.8,2.89c11.38-1.85,22,6.63,31.22,12.13c8.52,5.08,16.89,10.73,26.92,12.13c8.84,1.23,18.43,0.37,27.09-1.74
			c4.49-1.09,8.92-2.7,12.98-4.92c4.17-2.28,7.88-5.26,12.26-7.16c1.59-0.69,0.44-3.16-1.16-2.74c-21.78,5.7-42.69-4.45-62.87-11.38
			c-15.01-5.16-35.06-10.91-48.87,0.11C47.35,27.1,49.49,29.21,50.98,28.01L50.98,28.01z"/>
	</g>
</g>
<g>
	<g>
		<path class="st1" d="M52.42,27.48c11.61-1.3,22.41,2.72,33.08,6.77c10.76,4.09,21.66,7.57,32.86,10.26
			c1.88,0.45,2.68-2.44,0.8-2.89c-11.79-2.83-23.2-6.61-34.54-10.9c-10.38-3.93-20.96-7.5-32.2-6.24
			C50.52,24.69,50.5,27.69,52.42,27.48L52.42,27.48z"/>
	</g>
</g>
</svg>
