<?xml version="1.0" encoding="utf-8"?>
<!-- Generator: Adobe Illustrator 23.0.1, SVG Export Plug-In . SVG Version: 6.00 Build 0)  -->
<svg version="1.1" xmlns="http://www.w3.org/2000/svg" xmlns:xlink="http://www.w3.org/1999/xlink" x="0px" y="0px"
	 viewBox="0 0 300 300" style="enable-background:new 0 0 300 300;" xml:space="preserve">
<style type="text/css">
	.st0{fill:#F55260;}
	.st1{fill:#FFFFFF;}
	.st2{opacity:0.4;}
	.st3{opacity:0.62;}
	.st4{opacity:0.7;}
</style>
<g id="Layer_2_copy_2">
	<path class="st0" d="M270,0v93.5h-57.68c-0.02,0.85-0.07,1.7-0.14,2.54h0.42c1.1,0,2,0.9,2,2v0.51c0,1.1-0.9,2-2,2h-0.5
		c2.73,0.77,4.75,3.28,4.75,6.25v1.66c0,3.36-2.58,6.14-5.85,6.47l-26.85,176.22H109.7L82.84,114.94c-3.27-0.33-5.84-3.11-5.84-6.47
		v-1.66c0-2.97,2.02-5.48,4.75-6.25h-0.5c-1.1,0-2-0.9-2-2v-0.51c0-1.1,0.9-2,2-2h0.42c-0.07-0.84-0.12-1.69-0.14-2.54H35V0H0v300
		h300V0H270z"/>
</g>
<g id="Layer_2">
	<g>
		<path class="st1" d="M210.35,103.31c1.93,0,3.5,1.57,3.5,3.5v1.66c0,1.93-1.57,3.5-3.5,3.5H83.5c-1.93,0-3.5-1.57-3.5-3.5v-1.66
			c0-1.93,1.57-3.5,3.5-3.5H210.35 M210.35,100.31H83.5c-3.57,0-6.5,2.92-6.5,6.5v1.66c0,3.57,2.93,6.5,6.5,6.5h126.85
			c3.57,0,6.5-2.93,6.5-6.5v-1.66C216.85,103.23,213.93,100.31,210.35,100.31L210.35,100.31z"/>
	</g>
	<g>
		<g>
			<path class="st1" d="M146.93,43.4c33.11,0,60.09,21.77,60.42,48.64H86.51C86.84,65.18,113.81,43.4,146.93,43.4 M146.93,38.4
				c-36.13,0-65.42,24.24-65.42,54.13c0,1.53,0.1,3.02,0.25,4.51h130.34c0.15-1.49,0.25-2.98,0.25-4.51
				C212.35,62.64,183.06,38.4,146.93,38.4L146.93,38.4z"/>
		</g>
	</g>
	<g>
		<path class="st1" d="M212.6,97.04c0.55,0,1,0.45,1,1v0.51c0,0.55-0.45,1-1,1H81.26c-0.55,0-1-0.45-1-1v-0.51c0-0.55,0.45-1,1-1
			H212.6 M212.6,96.04H81.26c-1.1,0-2,0.9-2,2v0.51c0,1.1,0.9,2,2,2H212.6c1.1,0,2-0.9,2-2v-0.51
			C214.6,96.94,213.7,96.04,212.6,96.04L212.6,96.04z"/>
	</g>
	<g>
		<g>
			<path class="st1" d="M205.33,118.96l-25.48,167.2H114l-25.49-167.2H205.33 M211.16,113.9c-0.27,0.04-0.55,0.06-0.83,0.06H83.53
				c-0.28,0-0.56-0.02-0.84-0.06l27.02,177.26h74.45L211.16,113.9L211.16,113.9z"/>
		</g>
	</g>
	<g class="st2">
		<polygon class="st1" points="133.23,283.13 121.18,283.13 101.1,126.48 119.17,126.48 		"/>
	</g>
	<g class="st3">
		<path class="st1" d="M120.18,83.49c0,0.5,0.02,1,0.05,1.51h-20.13c0-14.97,11.9-28.4,26.11-33.14c3.01-1,10.12-2.09,13.05-1
			C129.64,54.54,120.18,72.58,120.18,83.49z"/>
	</g>
	<g class="st4">
		<path class="st1" d="M190.35,57.91l-10.59,35.14c-0.1,0.37,0.62,0.5,1.62,0.5c2.01,0,5.15-0.5,5.15-0.5c0,0,0,0,0.01,0
			c0.52,0,4.74-13.72,9.4-29.38L190.35,57.91L190.35,57.91z"/>
	</g>
	<g>
		<path class="st1" d="M209.67,5.2c-2.09,0-4.34,1.5-5.1,4.51l-14.22,47.19l5.59,5.76c6.19-20.82,13.15-45.06,13.15-45.06
			c0.32-1.19,0.81-2.54,1.6-2.54c0.2,0,0.42,0.09,0.66,0.29l31.58,22.56c0.31,0.26,0.63,0.37,0.94,0.37c0.6,0,1.2-0.41,1.69-0.99
			l0.92-1.1c0.75-0.89,0.73-3.18-0.16-3.92L212.47,6.33C211.72,5.58,210.71,5.2,209.67,5.2L209.67,5.2z"/>
	</g>
</g>
</svg>
