<?xml version="1.0" encoding="utf-8"?>
<!-- Generator: Adobe Illustrator 23.0.1, SVG Export Plug-In . SVG Version: 6.00 Build 0)  -->
<svg version="1.1" xmlns="http://www.w3.org/2000/svg" xmlns:xlink="http://www.w3.org/1999/xlink" x="0px" y="0px"
	 viewBox="0 0 300 300" style="enable-background:new 0 0 300 300;" xml:space="preserve">
<style type="text/css">
	.st0{fill:#F55260;}
	.st1{fill:none;stroke:#FFFFFF;stroke-width:4;stroke-miterlimit:10;}
	.st2{fill:none;stroke:#FFFFFF;stroke-width:2;stroke-miterlimit:10;}
	.st3{fill:#FFFFFF;}
	.st4{opacity:0.45;fill:none;}
	.st5{opacity:0.41;}
</style>
<g id="Layer_10_copy_2">
	<path class="st0" d="M258,0v97h-46.37c0.23,0.33,0.37,0.72,0.37,1.15v0.93c0,1.1-0.9,2-2,2c1.1,0,2,0.9,2,2V104c0,1.1-0.9,2-2,2
		c1.1,0,2,0.9,2,2v0.93c0,1.1-0.9,2-2,2c1.1,0,2,0.9,2,2v0.93c0,1.1-0.9,2-2,2H81c-1.1,0-2-0.9-2-2v-0.93c0-1.1,0.9-2,2-2
		c-1.1,0-2-0.9-2-2V108c0-1.1,0.9-2,2-2c-1.1,0-2-0.9-2-2v-0.93c0-1.1,0.9-2,2-2c-1.1,0-2-0.9-2-2v-0.93c0-0.43,0.14-0.82,0.37-1.15
		H52V0H0v300h300V0H258z M208,269.21c0,10.93-8.86,19.79-19.79,19.79h-83.43C93.86,289,85,280.14,85,269.21V119.04
		c0-1.13,0.91-2.04,2.04-2.04h118.91c1.13,0,2.04,0.91,2.04,2.04V269.21z"/>
</g>
<g id="Layer_10_copy_3">
	<path class="st1" d="M188.21,289h-83.43C93.86,289,85,280.14,85,269.21V119.04c0-1.13,0.91-2.04,2.04-2.04h118.91
		c1.13,0,2.04,0.91,2.04,2.04v150.17C208,280.14,199.14,289,188.21,289z"/>
	<path class="st2" d="M210,110.93H81c-1.1,0-2,0.9-2,2v0.93c0,1.1,0.9,2,2,2h129c1.1,0,2-0.9,2-2v-0.93
		C212,111.83,211.1,110.93,210,110.93z"/>
	<path class="st2" d="M210,106H81c-1.1,0-2,0.9-2,2v0.93c0,1.1,0.9,2,2,2h129c1.1,0,2-0.9,2-2V108C212,106.9,211.1,106,210,106z"/>
	<path class="st2" d="M210,101.07H81c-1.1,0-2,0.9-2,2V104c0,1.1,0.9,2,2,2h129c1.1,0,2-0.9,2-2v-0.93
		C212,101.97,211.1,101.07,210,101.07z"/>
	<path class="st2" d="M210,96.15H81c-1.1,0-2,0.9-2,2v0.93c0,1.1,0.9,2,2,2h129c1.1,0,2-0.9,2-2v-0.93
		C212,97.05,211.1,96.15,210,96.15z"/>
	<g>
		<path class="st3" d="M189.81,59.34l-11.18,37.09c-0.11,0.39,0.65,0.53,1.71,0.53c2.12,0,5.43-0.53,5.43-0.53c0,0,0,0,0.01,0
			c0.54,0,5.01-14.48,9.92-31.01L189.81,59.34L189.81,59.34z"/>
	</g>
	<g>
		<path class="st3" d="M210.06,13.14l0.27,0.18l0.19,0.13c-0.24,0.03-0.49,0.07-0.73,0.14C209.88,13.37,209.98,13.23,210.06,13.14
			 M210.2,8c-2.2,0-4.59,1.59-5.38,4.76l-15.01,46.81l5.9,6.08c6.54-21.97,13.88-44.56,13.88-44.56c0.33-1.25,0.86-2.68,1.69-2.68
			c0.21,0,0.44,0.09,0.69,0.3l33.33,20.81c0.32,0.27,0.66,0.39,0.99,0.39c0.64,0,1.26-0.43,1.78-1.04l0.97-1.16
			c0.79-0.94,0.77-3.35-0.17-4.14L213.15,9.19C212.36,8.4,211.3,8,210.2,8L210.2,8z"/>
	</g>
	<polygon class="st4" points="258,97 52,97 52,-23 258,-25 	"/>
	<g class="st5">
		<path class="st3" d="M115,277c0,0-15.95-1.7-15.88-11.16l0.98-139.35L116,126L115,277z"/>
	</g>
</g>
</svg>
