<?xml version="1.0" encoding="utf-8"?>
<!-- Generator: Adobe Illustrator 23.0.1, SVG Export Plug-In . SVG Version: 6.00 Build 0)  -->
<svg version="1.1" id="Layer_15" xmlns="http://www.w3.org/2000/svg" xmlns:xlink="http://www.w3.org/1999/xlink" x="0px" y="0px"
	 viewBox="0 0 300 300" style="enable-background:new 0 0 300 300;" xml:space="preserve">
<style type="text/css">
	.st0{fill:#FFFFFF;}
	.st1{opacity:0.51;fill:#FFFFFF;}
	.st2{opacity:0.58;fill:#FFFFFF;}
	.st3{opacity:0.22;fill:#FFFFFF;}
	.st4{opacity:0.39;fill:#FFFFFF;}
</style>
<circle class="st0" cx="69.5" cy="270.5" r="5.5"/>
<circle class="st0" cx="245.5" cy="138.5" r="5.5"/>
<circle class="st0" cx="177.5" cy="55.5" r="5.5"/>
<circle class="st0" cx="50.5" cy="135.5" r="5.5"/>
<circle class="st1" cx="182.5" cy="203.5" r="5.5"/>
<circle class="st0" cx="50.5" cy="10.5" r="5.5"/>
<ellipse class="st0" cx="223.56" cy="272.75" rx="2.44" ry="2.75"/>
<ellipse class="st0" cx="172.87" cy="270.25" rx="2.44" ry="2.75"/>
<ellipse class="st0" cx="121.44" cy="222.75" rx="2.44" ry="2.75"/>
<ellipse class="st0" cx="242.56" cy="192.75" rx="2.44" ry="2.75"/>
<ellipse class="st0" cx="71.87" cy="163.25" rx="2.44" ry="2.75"/>
<ellipse class="st0" cx="173.44" cy="155.75" rx="2.44" ry="2.75"/>
<ellipse class="st0" cx="109.56" cy="132.75" rx="2.44" ry="2.75"/>
<ellipse class="st0" cx="168.87" cy="85.25" rx="2.44" ry="2.75"/>
<ellipse class="st2" cx="117.44" cy="37.75" rx="2.44" ry="2.75"/>
<ellipse class="st0" cx="256.56" cy="70.75" rx="2.44" ry="2.75"/>
<circle class="st3" cx="85.5" cy="219.5" r="5.5"/>
<circle class="st3" cx="193.5" cy="118.5" r="5.5"/>
<ellipse class="st4" cx="80.44" cy="82.75" rx="2.44" ry="2.75"/>
<ellipse class="st4" cx="140.44" cy="292.75" rx="2.44" ry="2.75"/>
</svg>
