<?xml version="1.0" encoding="utf-8"?>
<!-- Generator: Adobe Illustrator 23.0.1, SVG Export Plug-In . SVG Version: 6.00 Build 0)  -->
<svg version="1.1" id="milk" xmlns="http://www.w3.org/2000/svg" xmlns:xlink="http://www.w3.org/1999/xlink" x="0px" y="0px"
	 viewBox="0 0 200 200" style="enable-background:new 0 0 200 200;" xml:space="preserve">
<style type="text/css">
	.st0{fill:#78B54A;}
	.st1{fill:#4D4D4D;}
	.st2{fill:#96D04A;}
	.st3{fill:#78924A;}
	.st4{fill:#78BA4A;}
	.st5{fill:#8CC63F;}
</style>
<g>
	<path class="st0" d="M115.25,64.84c-23.63,28.43-43.45,58.05-67.78,87.68c-0.9,0.9-3.6,0-4.51-0.9
		c-6.31-8.98-12.62-17.06-16.22-26.03c-4.51-9.87,1.8-21.55,11.71-26.03c2.7-1.8,2.7-5.39,2.7-8.08
		c-0.9-8.08-13.52-16.16-5.41-24.24c3.6-2.69,8.11-2.69,9.91-6.28c1.8-4.49,0.9-9.87,6.31-11.67c3.6-0.9,7.21-1.8,10.81,1.8
		c3.6,2.69,8.11,0.9,9.91-3.59c1.8-2.69-1.8-6.28-0.9-7.18c9.01-8.08,22.53-12.57,33.34-8.08c1.8,0,4.51,2.69,7.21,1.8
		c5.41-1.8,9.91-8.98,16.22-7.18c9.91,2.69,18.02-1.8,27.03-4.49c5.41-0.9,9.91,0.9,11.71,7.18c-4.51,8.08-2.7,17.06,2.7,24.24
		c-0.9,3.59,2.7,7.18,2.7,10.77c-0.9,8.08-11.71,6.28-16.22,11.67c-1.8,2.69,0,6.28,1.8,6.28c9.01,2.69,15.32,9.87,9.91,17.95
		c1.8,2.69,1.8,6.28-1.8,8.08c-8.11,3.59-18.02,5.39-27.03,1.8c-4.51,1.8-2.7,7.18-0.9,10.77c3.6,5.39,8.11,10.77,6.31,17.06
		c-1.8,4.49-6.31,8.08-10.81,10.77c-0.9,0-1.8,0-2.7,0c-5.41-2.69-11.71-5.39-15.32,0.9c-1.8,4.49-1.8,9.87-6.31,12.57
		c-9.91,5.39-21.63,5.39-32.44,8.08c-2.7,0.9-5.41,0-7.21-0.9c-5.41-4.49-11.71-4.49-18.02-7.18c-2.7-1.8-7.21-4.49-4.67-8.76"/>
	<g>
		<path class="st1" d="M114.19,63.78c-11.96,14.44-23.21,29.43-34.43,44.45c-5.71,7.64-11.42,15.29-17.23,22.86
			c-3.08,4-6.18,7.99-9.32,11.94c-1.48,1.87-3.09,4.61-4.93,6.13c-0.69,0.56-2.78,2.12-3.84,1.69c-0.96-0.4-2.31-2.97-2.96-3.89
			c-5.21-7.31-11.33-15.03-14.03-23.72c-2.79-9,3.1-17.28,10.48-21.76c4.37-2.65,5.73-7.56,4.19-12.51
			c-1.68-5.39-8.76-11.13-7.45-17.12c1.01-4.59,5.89-4.91,9.17-6.98c2.28-1.43,3.29-3.26,3.98-5.82c1.18-4.41,1.53-8.11,7.05-8.85
			c4.5-0.6,6.75,3.2,10.9,3.58c4.12,0.38,8.28-3.28,8.86-7.34c0.19-1.34-0.3-2.35-0.61-3.62c-0.56-2.3-0.93-1.75,1.04-3.26
			c3.7-2.85,7.9-5.05,12.39-6.35c3.86-1.12,7.88-1.57,11.87-0.99c3.74,0.54,6.98,2.68,10.61,3.3c5.95,1.03,9.57-5.89,14.87-7.19
			c3.61-0.89,8.25,1.05,12.1,0.75c3.88-0.3,7.63-1.43,11.3-2.67c3.6-1.21,7.79-3.45,11.67-2.63c1.86,0.39,3.57,1.41,4.55,3.07
			c1.65,2.8,0.26,4.22-0.46,6.9c-0.89,3.31-0.93,6.84-0.21,10.18c0.9,4.2,3.69,7.51,4.66,11.58c0.91,3.81,4.4,9.01,1.12,12.29
			c-2.23,2.23-6.09,2.71-8.9,3.91c-4.04,1.72-8.58,5.61-5.39,10.34c1.64,2.43,5.15,2.56,7.53,4c5.22,3.16,7.42,8.12,4.13,13.64
			c-0.28,0.47-0.26,1.05,0,1.51c3.87,6.89-9.3,8.99-13.69,9.41c-1.73,0.17-3.49,0.21-5.23,0.1c-2.42-0.15-5.96-1.97-8.23-1.84
			c-3.61,0.2-4.99,3.94-4.61,7.11c0.95,7.97,11.5,14.14,7.71,22.72c-1.33,3-6.64,8.48-10.25,8.71c-2.7,0.17-5.94-2.39-8.7-2.78
			c-4.72-0.67-8.21,1.68-9.87,6.03c-1.48,3.87-1.49,7.78-5.17,10.43c-3.52,2.53-8.87,3.54-13.05,4.41
			c-4.13,0.86-8.31,1.42-12.46,2.16c-1.65,0.29-3.29,0.7-4.95,0.97c-3.88,0.63-5.77,0.41-9.05-1.39c-3.05-1.68-5.85-2.86-9.19-3.82
			c-3.21-0.92-14.26-3.14-11.59-9.04c0.79-1.75-1.79-3.27-2.59-1.51c-4.9,10.81,13.05,12.58,19.02,15.36
			c4.6,2.14,7.21,4.8,12.57,3.69c7.13-1.48,14.41-2.34,21.49-4.06c4.61-1.12,10.72-2.61,13.9-6.43c3.78-4.54,2.6-14.88,10.72-13.82
			c4.79,0.63,7.63,4.48,12.37,1.77c4.45-2.55,9.6-7.09,10.48-12.39c0.76-4.6-1.61-8.89-4.02-12.61c-1.52-2.34-4.12-5.1-4.27-8.07
			c-0.3-5.95,6.05-2.84,9.75-2.61c7.52,0.48,23.88-1.11,22.64-11.53c-0.26-2.17,0.19-2.89,0.73-5.09c0.44-1.78,0.44-3.67-0.06-5.44
			c-1.28-4.52-5.4-7.65-9.51-9.47c-0.66-0.29-2.64-0.67-3.1-1.15c-3.12-3.19-0.24-4.9,1.71-5.96c1.71-0.93,3.65-1.42,5.47-2.09
			c3.2-1.16,6.44-2.64,7.78-6.01c0.77-1.94,0.53-3.6-0.04-5.55c-0.4-1.39-1.28-2.67-1.69-4.04c-0.41-1.35-0.03-2.79-0.46-4.04
			c-1.04-3.04-3.5-5.42-4.42-8.69c-1.08-3.84-1.06-7.91,0.32-11.68c1.12-3.06,1.93-2.77,0.78-5.59c-0.71-1.76-1.77-3.33-3.25-4.53
			c-3.8-3.08-8.54-2.39-12.84-0.96c-5.96,1.99-11.97,4.56-18.39,4.23c-2.68-0.14-5.25-1.26-7.93-1.02
			c-2.59,0.22-4.81,1.58-6.89,3.03c-2.41,1.68-5.48,4.94-8.77,4.36c-2.33-0.41-4.95-2.03-7.29-2.67c-5.02-1.36-10.4-1.07-15.39,0.26
			c-5.19,1.39-10.08,3.92-14.31,7.2c-1.21,0.93-2.8,1.78-2.93,3.46c-0.21,2.77,2.4,4.11,0.63,7.23c-3.03,5.36-6.4,1.29-9.95-0.13
			c-2.1-0.85-3.94-0.98-6.16-0.68c-4.24,0.56-7.27,2.4-8.66,6.53c-1.06,3.15-0.72,6.26-3.68,8.58c-2.15,1.67-5.2,1.87-7.34,3.66
			c-2.66,2.22-3.88,5.68-3.25,9.07c0.84,4.48,4.12,8.04,6.2,11.95c1.43,2.69,2.5,6.09,1.26,9.11c-1.19,2.91-6.43,4.93-8.71,7.24
			c-3.46,3.52-5.95,8.08-6.57,13.01c-0.82,6.42,2.22,12.33,5.33,17.75c2.1,3.65,4.49,7.13,6.91,10.57c1.73,2.45,3.5,5.99,5.73,8.04
			c4.55,4.19,7.56-0.22,10.37-3.7c21.96-27.23,41.73-56.14,64.04-83.08C117.53,64.42,115.42,62.29,114.19,63.78L114.19,63.78z"/>
	</g>
</g>
<g>
	<g>
		<path class="st2" d="M56.63,140.87c-5.65-9-9.14-18.95-12.5-28.97c-0.61-1.82-3.51-1.04-2.89,0.8
			c3.45,10.26,7.02,20.47,12.8,29.69C55.07,144.01,57.66,142.51,56.63,140.87L56.63,140.87z"/>
	</g>
</g>
<g>
	<g>
		<path class="st2" d="M72.3,119.03c-5.96-13.63-8.53-28.24-7.72-43.09c0.11-1.93-2.9-1.92-3,0c-0.84,15.41,1.96,30.47,8.13,44.6
			C70.48,122.31,73.07,120.79,72.3,119.03L72.3,119.03z"/>
	</g>
</g>
<g>
	<g>
		<path class="st2" d="M95.77,88.77c0.39-6.05-1.43-11.71-1.99-17.67c-0.66-6.94,0.28-13.84,1.78-20.61
			c0.42-1.88-2.47-2.68-2.89-0.8c-1.42,6.4-2.38,12.92-2.03,19.49c0.36,6.6,2.56,12.95,2.14,19.59
			C92.64,90.7,95.64,90.69,95.77,88.77L95.77,88.77z"/>
	</g>
</g>
<g>
	<g>
		<path class="st2" d="M104.44,81.96c10.62-0.67,21,3.89,31.49,0.66c1.84-0.57,1.05-3.46-0.8-2.89
			c-10.14,3.12-20.39-1.42-30.69-0.77C102.53,79.08,102.51,82.08,104.44,81.96L104.44,81.96z"/>
	</g>
</g>
<g>
	<g>
		<path class="st2" d="M82.72,106.24c12.72,2.47,25.54,1.96,38.01-1.6c1.85-0.53,1.07-3.42-0.8-2.89
			c-11.94,3.4-24.22,3.97-36.41,1.6C81.64,102.98,80.83,105.88,82.72,106.24L82.72,106.24z"/>
	</g>
</g>
<g>
	<g>
		<path class="st2" d="M63.26,130.55c15.05,6.68,31.19,9.65,47.64,8.63c1.92-0.12,1.93-3.12,0-3c-15.88,0.98-31.57-1.76-46.12-8.22
			C63.03,127.18,61.5,129.77,63.26,130.55L63.26,130.55z"/>
	</g>
</g>
<g>
	<g>
		<path class="st1" d="M116.01,66.36c10.03-10.23,20.56-19.91,31.59-29.05c1.49-1.23-0.64-3.34-2.12-2.12
			c-11.03,9.14-21.56,18.82-31.59,29.05C112.53,65.62,114.65,67.74,116.01,66.36L116.01,66.36z"/>
	</g>
</g>
<g>
	<g>
		<path class="st2" d="M117.66,62.88c0.1-4.19,0.43-8.36,1.11-12.5c0.58-3.49,1.07-8.3,3.32-11.19c1.17-1.51-0.94-3.64-2.12-2.12
			c-5.05,6.51-5.11,17.91-5.3,25.81C114.62,64.81,117.62,64.81,117.66,62.88L117.66,62.88z"/>
	</g>
</g>
<g>
	<g>
		<path class="st2" d="M130.79,52.25c5.68,1.06,11.26,0.67,16.69-1.31c1.8-0.66,1.02-3.56-0.8-2.89c-4.91,1.79-9.94,2.27-15.1,1.31
			C129.7,49.01,128.89,51.9,130.79,52.25L130.79,52.25z"/>
	</g>
</g>
<g>
	<path class="st3" d="M116.56,65.54c-24.8,27.42-45.85,56.19-71.4,84.78c-0.94,0.86-3.6-0.15-4.46-1.08
		c-5.93-9.23-11.89-17.57-15.11-26.69c-4.09-10.05,2.7-21.45,12.8-25.52c2.78-1.68,2.93-5.27,3.04-7.96
		c-0.56-8.11-12.83-16.71-4.39-24.44c3.71-2.54,8.22-2.35,10.17-5.87c1.99-4.41,1.31-9.83,6.79-11.4c3.64-0.75,7.28-1.49,10.73,2.24
		c3.49,2.84,8.07,1.23,10.05-3.18c1.91-2.62-1.54-6.35-0.6-7.21c9.34-7.7,23.04-11.62,33.65-6.68c1.8,0.08,4.39,2.88,7.13,2.09
		c5.48-1.57,10.28-8.56,16.51-6.5c9.79,3.1,18.08-1.04,27.2-3.36c5.44-0.67,9.87,1.31,11.4,7.66c-4.84,7.88-3.42,16.93,1.68,24.33
		c-1.05,3.55,2.4,7.29,2.25,10.88c-1.24,8.03-11.97,5.79-16.7,10.98c-1.91,2.62-0.26,6.28,1.54,6.35
		c8.89,3.07,14.89,10.5,9.15,18.35c1.69,2.77,1.54,6.35-2.14,8c-8.25,3.25-18.23,4.63-27.08,0.67c-4.58,1.61-3,7.06-1.35,10.73
		c3.38,5.53,7.65,11.1,5.59,17.3c-1.99,4.41-6.64,7.81-11.26,10.31c-0.9-0.04-1.8-0.08-2.7-0.11c-5.29-2.92-11.48-5.87-15.34,0.26
		c-1.99,4.41-2.21,9.79-6.83,12.29c-10.13,4.97-21.83,4.48-32.75,6.72c-2.74,0.78-5.4-0.23-7.16-1.2
		c-5.21-4.71-11.52-4.97-17.71-7.93c-2.63-1.91-7.01-4.78-4.29-8.95"/>
	<g>
		<path class="st1" d="M115.5,64.48c-12.68,14.07-24.66,28.74-36.61,43.42c-6.03,7.4-12.06,14.81-18.19,22.13
			c-3.12,3.72-6.26,7.43-9.44,11.1c-1.4,1.62-2.79,3.96-4.53,5.18c-2.02,1.42-1.11,4.3-5.78,0.56c-0.83-0.66-1.5-2.3-2.08-3.19
			c-4.78-7.34-10.76-15.45-12.66-24.16c-1.95-8.93,4.32-16.56,11.63-20.61c4.44-2.46,6-7.4,4.64-12.35
			c-1.5-5.41-8.36-11.54-6.69-17.41c1.31-4.59,6.61-4.7,10.01-6.89c2.05-1.32,2.95-3.08,3.66-5.35c1.35-4.32,2.04-8.06,7.46-8.49
			c4.5-0.36,6.6,3.52,10.74,4.06c4.07,0.52,8.44-3.02,9.1-7.05c0.23-1.4-0.28-2.28-0.47-3.64c-0.32-2.26-0.94-1.76,1.7-3.53
			c3.52-2.35,7.36-4.19,11.46-5.29c4.27-1.15,8.81-1.5,13.16-0.57c3.31,0.71,6.09,2.65,9.28,3.52c6.06,1.65,9.92-4.87,15.25-6.31
			c3.77-1.02,8.3,1.23,12.27,1.13c3.84-0.1,7.59-1.01,11.27-2.07c4.09-1.18,8.84-3.56,13.09-1.95c1.91,0.73,4.13,2.57,4.44,4.74
			c0.24,1.66-1.18,3.55-1.67,5.13c-1.1,3.54-1.19,7.32-0.45,10.94c0.78,3.77,3.21,6.96,3.96,10.59c0.79,3.83,3.96,9.4,0.71,12.55
			c-2.2,2.13-5.9,2.49-8.7,3.48c-4.08,1.45-8.89,4.68-6.56,9.71c1.29,2.79,4.28,2.86,6.74,4.3c5.61,3.29,8.25,8.59,4.45,14.42
			c-0.3,0.46-0.24,1.05,0,1.51c3.4,6.7-9.09,8.39-13.35,8.72c-4.33,0.34-8.5-0.24-12.61-1.62c-4.27-1.43-6.75,2.11-6.4,6.35
			c0.59,7.17,8.07,12.11,7.7,19.43c-0.23,4.44-6.8,11.84-11.64,11.81c-2.63-0.02-5.39-2.47-7.99-3.05
			c-4.84-1.09-8.71,1.06-10.65,5.58c-1.59,3.7-1.84,7.86-5.64,10.17c-3.54,2.16-8.36,3-12.4,3.72c-4.43,0.78-8.91,1.17-13.36,1.77
			c-1.66,0.23-3.32,0.57-4.98,0.77c-3.91,0.47-5.55,0.25-8.98-1.82c-3-1.8-5.7-3.07-9.03-4.18c-3.14-1.05-14.08-3.67-11.11-9.55
			c0.87-1.72-1.72-3.24-2.59-1.51c-5.33,10.56,12.68,13.09,18.44,16.12c4.57,2.4,6.97,5.09,12.42,4.16
			c7.18-1.22,14.49-1.73,21.64-3.16c4.95-0.99,11.45-2.29,14.7-6.56c3.51-4.61,2.76-13.87,10.75-12.61
			c4.8,0.76,7.38,4.83,12.28,2.24c4.55-2.4,9.87-6.68,10.95-11.97c0.93-4.56-1.3-8.96-3.54-12.76c-1.56-2.64-3.48-5.11-3.91-8.24
			c-0.84-6.04,6.17-2.57,9.41-2.19c7.14,0.83,24.24,0.12,23.59-10.18c-0.15-2.28-0.29-2.01,0.54-4.38c0.67-1.91,1.01-3.75,0.66-5.77
			c-0.74-4.35-4.16-7.68-7.83-9.8c-2.64-1.53-8.76-3.21-3.35-7.46c1.67-1.32,4.46-1.67,6.46-2.3c3.25-1.03,6.53-2.41,7.98-5.73
			c0.61-1.4,0.73-2.69,0.5-4.18c-0.22-1.46-0.95-2.71-1.37-4.1c-0.48-1.6-0.28-3.59-0.73-5.03c-0.85-2.67-2.82-4.96-3.68-7.73
			c-1.5-4.83-1.23-9.77,0.96-14.35c3.99-8.38-7.59-12.57-13.96-10.9c-7.62,1.99-14.85,5.07-22.88,3.4
			c-4.85-1.01-7.77-0.84-12.04,1.89c-3.08,1.96-5.69,4.73-9.84,3.54c-2.11-0.61-4.12-1.94-6.28-2.57
			c-5.52-1.63-11.32-1.46-16.86,0.02c-5,1.34-9.97,3.72-14.04,6.92c-4.19,3.3,0.83,5.8-1.8,9.93c-3.33,5.22-6.75,0.85-10.31-0.78
			c-2.02-0.92-4.01-0.95-6.18-0.7c-4.13,0.47-6.98,2.22-8.48,6.17c-1.15,3.02-0.96,6.39-4.08,8.38c-2.3,1.47-5.29,1.63-7.49,3.35
			c-2.93,2.28-4.16,5.9-3.45,9.49c0.85,4.29,3.76,7.79,5.61,11.66c1.39,2.91,2.41,6.96,0.45,9.95c-1.6,2.44-6.37,3.94-8.65,6.07
			c-3.83,3.57-6.6,8.43-7.2,13.67c-0.7,6.06,2.02,11.78,4.75,17.03c1.94,3.74,4.19,7.31,6.46,10.84c1.76,2.73,3.49,6.85,6.11,8.81
			c4.42,3.31,7-0.71,9.81-3.91c23.08-26.29,44.05-54.35,67.47-80.34C118.91,65.17,116.8,63.05,115.5,64.48L115.5,64.48z"/>
	</g>
</g>
<g>
	<g>
		<path class="st2" d="M56.63,140.87c-5.65-9-9.14-18.95-12.5-28.97c-0.61-1.82-3.51-1.04-2.89,0.8
			c3.45,10.26,7.02,20.47,12.8,29.69C55.07,144.01,57.66,142.51,56.63,140.87L56.63,140.87z"/>
	</g>
</g>
<g>
	<g>
		<path class="st2" d="M72.3,119.03c-5.96-13.63-8.53-28.24-7.72-43.09c0.11-1.93-2.9-1.92-3,0c-0.84,15.41,1.96,30.47,8.13,44.6
			C70.48,122.31,73.07,120.79,72.3,119.03L72.3,119.03z"/>
	</g>
</g>
<g>
	<g>
		<path class="st2" d="M95.77,88.77c0.39-6.05-1.43-11.71-1.99-17.67c-0.66-6.94,0.28-13.84,1.78-20.61
			c0.42-1.88-2.47-2.68-2.89-0.8c-1.42,6.4-2.38,12.92-2.03,19.49c0.36,6.6,2.56,12.95,2.14,19.59
			C92.64,90.7,95.64,90.69,95.77,88.77L95.77,88.77z"/>
	</g>
</g>
<g>
	<g>
		<path class="st2" d="M104.44,81.96c10.62-0.67,21,3.89,31.49,0.66c1.84-0.57,1.05-3.46-0.8-2.89
			c-10.14,3.12-20.39-1.42-30.69-0.77C102.53,79.08,102.51,82.08,104.44,81.96L104.44,81.96z"/>
	</g>
</g>
<g>
	<g>
		<path class="st2" d="M82.72,106.24c12.72,2.47,25.54,1.96,38.01-1.6c1.85-0.53,1.07-3.42-0.8-2.89
			c-11.94,3.4-24.22,3.97-36.41,1.6C81.64,102.98,80.83,105.88,82.72,106.24L82.72,106.24z"/>
	</g>
</g>
<g>
	<g>
		<path class="st2" d="M63.26,130.55c15.05,6.68,31.19,9.65,47.64,8.63c1.92-0.12,1.93-3.12,0-3c-15.88,0.98-31.57-1.76-46.12-8.22
			C63.03,127.18,61.5,129.77,63.26,130.55L63.26,130.55z"/>
	</g>
</g>
<g>
	<g>
		<path class="st1" d="M116.01,66.36c10.03-10.23,20.56-19.91,31.59-29.05c1.49-1.23-0.64-3.34-2.12-2.12
			c-11.03,9.14-21.56,18.82-31.59,29.05C112.53,65.62,114.65,67.74,116.01,66.36L116.01,66.36z"/>
	</g>
</g>
<g>
	<g>
		<path class="st2" d="M117.66,62.88c0.1-4.19,0.43-8.36,1.11-12.5c0.58-3.49,1.07-8.3,3.32-11.19c1.17-1.51-0.94-3.64-2.12-2.12
			c-5.05,6.51-5.11,17.91-5.3,25.81C114.62,64.81,117.62,64.81,117.66,62.88L117.66,62.88z"/>
	</g>
</g>
<g>
	<g>
		<path class="st2" d="M130.79,52.25c5.68,1.06,11.26,0.67,16.69-1.31c1.8-0.66,1.02-3.56-0.8-2.89c-4.91,1.79-9.94,2.27-15.1,1.31
			C129.7,49.01,128.89,51.9,130.79,52.25L130.79,52.25z"/>
	</g>
</g>
<g>
	<g>
		<path class="st1" d="M49.94,152.26c-3.67,4.56-7.29,9.17-11.02,13.69c-3.61,4.38-7.78,7.34-12.7,10.08
			c-1.69,0.94-0.18,3.53,1.51,2.59c4.66-2.6,8.84-5.32,12.35-9.39c4.14-4.81,8-9.9,11.98-14.85
			C53.26,152.89,51.15,150.76,49.94,152.26L49.94,152.26z"/>
	</g>
</g>
<g>
	<path class="st0" d="M104.2,61.15c-18.11,32.2-32.26,64.9-50.84,98.4c-0.72,1.04-3.55,0.65-4.59-0.08
		c-7.83-7.7-15.49-14.52-20.66-22.7c-6.22-8.91-2.12-21.52,6.82-27.71c2.33-2.25,1.69-5.78,1.2-8.43
		c-2.35-7.79-16.21-13.47-9.7-22.87c3.06-3.3,7.49-4.1,8.62-7.96c0.96-4.74-0.9-9.88,4.1-12.61c3.38-1.53,6.77-3.06,10.96-0.17
		c4.03,2,8.14-0.57,9.1-5.31c1.29-2.97-2.91-5.86-2.18-6.9c7.4-9.56,19.89-16.4,31.34-13.92c1.77-0.32,4.92,1.84,7.42,0.47
		c4.99-2.74,8.13-10.61,14.66-9.97c10.24,0.87,17.4-5,25.78-9.26c5.16-1.85,9.91-0.89,12.82,4.96c-2.97,8.76,0.42,17.26,7.04,23.36
		c-0.24,3.69,3.96,6.58,4.61,10.11c0.57,8.11-10.39,8.28-13.85,14.39c-1.29,2.97,1.14,6.18,2.91,5.86
		c9.35,1.03,16.85,6.97,12.99,15.88c2.26,2.33,2.91,5.86-0.31,8.27c-7.33,4.99-16.76,8.53-26.27,6.61
		c-4.11,2.57-1.36,7.55,1.06,10.76c4.52,4.65,9.92,9.14,9.29,15.65c-0.96,4.74-4.75,9.08-8.69,12.54c-0.89,0.16-1.77,0.32-2.66,0.48
		c-5.8-1.68-12.5-3.2-14.91,3.63c-0.96,4.74,0.01,10.04-3.93,13.49c-8.78,7.08-20.3,9.18-30.45,13.76c-2.5,1.37-5.32,0.97-7.25,0.41
		c-6.13-3.45-12.33-2.32-19.03-3.83c-2.98-1.28-7.9-3.12-6.17-7.78"/>
	<g>
		<path class="st1" d="M102.9,60.39c-9.56,17.06-18.24,34.59-26.92,52.1c-4.39,8.85-8.79,17.69-13.32,26.46
			c-2.23,4.32-4.5,8.63-6.81,12.92c-1.59,2.95-2.6,7.57-7.4,5.19c-1.94-0.96-3.89-3.77-5.43-5.27
			c-6.09-5.99-14.96-13.53-16.21-22.44c-0.56-4,0.38-8.04,2.29-11.57c1.98-3.66,5.5-5.45,7.72-8.69c2.68-3.91,1.03-9.57-1.49-13.1
			c-2.93-4.1-10.4-8.95-8.94-14.72c1.02-4.04,5.47-5.1,8.1-7.8c1.92-1.97,2.23-4.28,2.39-6.93c0.16-2.62-0.04-4.47,1.77-6.6
			c1.83-2.15,5.13-3.52,8.05-2.88c3.13,0.69,5.06,2.92,8.47,1.77c4.19-1.41,6.86-6.85,5.09-10.91c-0.16-0.36-1.8-2.32-1.73-2.77
			c0.17-1.07,2.85-3.05,3.65-3.81c3.48-3.3,7.65-6.07,12.17-7.74c4.02-1.48,8.13-1.98,12.37-1.47c2.82,0.34,6.01,1.71,8.81,0.87
			c6.19-1.86,7.86-9.75,14.91-10.13c7.79-0.42,13.55-2.24,20.42-6.1c3.6-2.03,7.88-5.18,12.22-3.63c5.86,2.11,3.16,7.03,3.42,11.53
			c0.45,7.75,5.75,12.19,8.63,18.69c1.62,3.67,6.03,7.43,2.62,11.45c-2.06,2.42-5.6,3.51-8.16,5.28c-3.52,2.43-6.99,7.74-2.46,11.25
			c2.54,1.97,6.59,1.39,9.54,2.94c4.87,2.56,6.58,6.85,4.64,11.99c-0.2,0.52,0.06,1.07,0.39,1.46c4.8,5.78-7.22,10.21-11.18,11.43
			c-2.49,0.77-5.06,1.27-7.66,1.4c-1.97,0.09-4.48-0.73-6.28-0.44c-4.13,0.66-4.49,5.24-3.24,8.53
			c2.69,7.05,13.81,11.66,11.37,20.33c-1,3.55-5.35,10.2-9.45,10.28c-2.76,0.05-5.42-1.33-8.26-1.18c-4.76,0.24-7.74,3.36-8.46,7.98
			c-0.87,5.55-0.47,9.02-5.53,12.66c-3.75,2.69-8.24,4.45-12.52,6.05c-3.51,1.31-7.07,2.48-10.57,3.83c-1.84,0.72-4.06,2-5.95,2.46
			c-2.98,0.72-5.32-0.67-8-1.59c-4.6-1.57-23.16-0.41-21.08-8.4c0.49-1.87-2.41-2.67-2.89-0.8c-2.82,10.83,13.94,10.06,20.08,11.28
			c5.59,1.11,8.84,4.02,14.58,1.63c6.41-2.67,13.07-4.69,19.45-7.43c4.61-1.99,10.76-4.55,13.37-9.15
			c3.11-5.47-0.33-15.65,8.65-15.52c4.61,0.07,7.98,2.89,11.96-0.57c3.84-3.35,8.09-8.63,8-14c-0.08-4.82-3.44-8.73-6.58-12.02
			c-1.95-2.04-5.68-5.01-5.78-8.18c-0.13-4.62,7.66-2.67,10.42-3.08c7.55-1.11,22.29-5.45,19.28-15.37
			c-0.53-1.74-0.6-0.54-0.71-2.09c-0.06-0.83,0.5-2,0.56-2.89c0.11-1.77-0.18-3.52-0.92-5.14c-1.66-3.61-5.23-5.91-8.86-7.2
			c-2.56-0.9-9.62-0.42-6.38-6.14c0.98-1.73,3.93-2.89,5.6-3.84c3.1-1.76,6.45-3.76,7.32-7.5c0.36-1.56,0.2-2.94-0.35-4.42
			c-0.45-1.21-1.24-2.23-1.93-3.3c-1.13-1.77-1.2-2.96-2.13-4.9c-0.98-2.04-2.96-3.51-4.3-5.43c-2.42-3.47-3.9-7.56-3.82-11.82
			c0.04-2.26,1.35-4.73,0.88-6.87c-0.38-1.72-2.61-3.89-4.01-4.84c-3.81-2.6-8.35-1.84-12.25,0.06c-5.84,2.85-11.07,6.88-17.62,8.06
			c-5.63,1.02-9.57-0.5-14.14,3.62c-1.75,1.57-3.13,3.59-4.95,5.07c-3.23,2.63-6.39,1.26-10.04,0.87
			c-5.43-0.58-10.48,0.09-15.53,2.24c-5.27,2.24-10.04,5.76-13.88,10c-0.94,1.04-2.51,2.3-2.45,3.87c0.08,2.33,2.59,3.42,2.3,6.03
			c-0.33,2.96-2.93,5.37-6.05,4.73c-1.32-0.27-2.79-1.56-4.21-1.87c-2.15-0.47-4.13-0.18-6.2,0.5c-3.81,1.26-6.37,3.43-7.12,7.48
			c-0.62,3.38,0.54,6.96-2.24,9.64c-1.97,1.89-4.79,2.76-6.56,4.91c-2.24,2.73-2.68,6.39-1.39,9.61c1.49,3.73,4.75,6.47,7.31,9.44
			c1.7,1.97,3.13,3.86,3.6,6.47c0.93,5.08-3.28,7.1-5.93,10.4c-7.71,9.59-6.08,20.23,1.04,29.43c2.54,3.28,5.36,6.32,8.28,9.26
			c2.82,2.85,6.01,7.13,9.42,9.22c4.53,2.78,6.72,0.21,8.86-3.69c17.09-31.25,31.53-63.86,48.93-94.94
			C106.44,60.22,103.85,58.7,102.9,60.39L102.9,60.39z"/>
	</g>
</g>
<g>
	<g>
		<path class="st2" d="M60.2,146.35c-7.18-7.84-12.39-17.03-17.51-26.28c-0.94-1.69-3.53-0.18-2.59,1.51
			c5.25,9.48,10.62,18.86,17.98,26.88C59.38,149.9,61.5,147.78,60.2,146.35L60.2,146.35z"/>
	</g>
</g>
<g>
	<g>
		<path class="st2" d="M71.9,122.37c-8.31-12.32-13.63-26.2-15.51-40.95c-0.24-1.89-3.24-1.91-3,0c1.95,15.3,7.29,29.67,15.92,42.46
			C70.39,125.48,72.99,123.98,71.9,122.37L71.9,122.37z"/>
	</g>
</g>
<g>
	<g>
		<path class="st2" d="M89.38,88.45c-0.72-6.1-3.49-11.44-5.17-17.29c-1.94-6.75-2.24-13.77-1.98-20.74c0.07-1.93-2.93-1.93-3,0
			c-0.23,6.06-0.02,12.14,1.23,18.1c1.43,6.81,5.09,12.98,5.91,19.93C86.61,90.34,89.61,90.36,89.38,88.45L89.38,88.45z"/>
	</g>
</g>
<g>
	<g>
		<path class="st2" d="M96.79,79.89c10.33-2.6,21.33,0.09,31.07-5.02c1.71-0.9,0.2-3.49-1.51-2.59c-9.36,4.91-20.38,2.2-30.35,4.72
			C94.12,77.47,94.92,80.37,96.79,79.89L96.79,79.89z"/>
	</g>
</g>
<g>
	<g>
		<path class="st2" d="M79.82,107.71c12.96,0.15,25.46-2.72,37.07-8.45c1.73-0.85,0.21-3.44-1.51-2.59
			c-11.14,5.49-23.14,8.18-35.56,8.04C77.88,104.69,77.88,107.69,79.82,107.71L79.82,107.71z"/>
	</g>
</g>
<g>
	<g>
		<path class="st2" d="M65.04,135.14c16.01,3.86,32.44,3.83,48.43-0.12c1.87-0.46,1.08-3.36-0.8-2.89
			c-15.48,3.82-31.34,3.86-46.84,0.12C63.96,131.79,63.16,134.68,65.04,135.14L65.04,135.14z"/>
	</g>
</g>
<g>
	<g>
		<path class="st1" d="M105.28,62.41c7.94-11.75,16.48-23.07,25.59-33.93c1.23-1.47-0.88-3.6-2.12-2.12
			c-9.28,11.06-17.97,22.58-26.06,34.54C101.61,62.5,104.2,64,105.28,62.41L105.28,62.41z"/>
	</g>
</g>
<g>
	<g>
		<path class="st2" d="M106.19,58.66c-1.06-6.66-3.1-17.77,0.16-24.06c0.89-1.71-1.7-3.23-2.59-1.51
			c-3.82,7.34-1.71,18.56-0.47,26.37C103.6,61.36,106.49,60.55,106.19,58.66L106.19,58.66z"/>
	</g>
</g>
<g>
	<g>
		<path class="st2" d="M117.34,45.98c5.75,0.03,11.2-1.44,16.15-4.35c1.66-0.98,0.16-3.57-1.51-2.59c-4.52,2.66-9.4,3.96-14.64,3.94
			C115.41,42.97,115.41,45.97,117.34,45.98L117.34,45.98z"/>
	</g>
</g>
<g>
	<g>
		<path class="st1" d="M55.07,153.23c-2.72,5.67-5.58,11.29-8.14,17.03c-2.28,5.12-3,10.2-3.35,15.74c-0.12,1.93,2.88,1.92,3,0
			c0.73-11.56,6.16-21,11.08-31.26C58.49,153.01,55.9,151.49,55.07,153.23L55.07,153.23z"/>
	</g>
</g>
<g>
	<path class="st4" d="M104.2,61.15c-18.11,32.2-32.26,64.9-50.84,98.4c-0.72,1.04-3.55,0.65-4.59-0.08
		c-7.83-7.7-15.49-14.52-20.66-22.7c-6.22-8.91-2.12-21.52,6.82-27.71c2.33-2.25,1.69-5.78,1.2-8.43
		c-2.35-7.79-16.21-13.47-9.7-22.87c3.06-3.3,7.49-4.1,8.62-7.96c0.96-4.74-0.9-9.88,4.1-12.61c3.38-1.53,6.77-3.06,10.96-0.17
		c4.03,2,8.14-0.57,9.1-5.31c1.29-2.97-2.91-5.86-2.18-6.9c7.4-9.56,19.89-16.4,31.34-13.92c1.77-0.32,4.92,1.84,7.42,0.47
		c4.99-2.74,8.13-10.61,14.66-9.97c10.24,0.87,17.4-5,25.78-9.26c5.16-1.85,9.91-0.89,12.82,4.96c-2.97,8.76,0.42,17.26,7.04,23.36
		c-0.24,3.69,3.96,6.58,4.61,10.11c0.57,8.11-10.39,8.28-13.85,14.39c-1.29,2.97,1.14,6.18,2.91,5.86
		c9.35,1.03,16.85,6.97,12.99,15.88c2.26,2.33,2.91,5.86-0.31,8.27c-7.33,4.99-16.76,8.53-26.27,6.61
		c-4.11,2.57-1.36,7.55,1.06,10.76c4.52,4.65,9.92,9.14,9.29,15.65c-0.96,4.74-4.75,9.08-8.69,12.54c-0.89,0.16-1.77,0.32-2.66,0.48
		c-5.8-1.68-12.5-3.2-14.91,3.63c-0.96,4.74,0.01,10.04-3.93,13.49c-8.78,7.08-20.3,9.18-30.45,13.76c-2.5,1.37-5.32,0.97-7.25,0.41
		c-6.13-3.45-12.33-2.32-19.03-3.83c-2.98-1.28-7.9-3.12-6.17-7.78"/>
	<g>
		<path class="st1" d="M102.9,60.39c-9.56,17.06-18.24,34.59-26.92,52.1c-4.39,8.85-8.79,17.69-13.32,26.46
			c-2.23,4.32-4.5,8.63-6.81,12.92c-1.59,2.95-2.6,7.57-7.4,5.19c-1.94-0.96-3.89-3.77-5.43-5.27
			c-6.09-5.99-14.96-13.53-16.21-22.44c-0.56-4,0.38-8.04,2.29-11.57c1.98-3.66,5.5-5.45,7.72-8.69c2.68-3.91,1.03-9.57-1.49-13.1
			c-2.93-4.1-10.4-8.95-8.94-14.72c1.02-4.04,5.47-5.1,8.1-7.8c1.92-1.97,2.23-4.28,2.39-6.93c0.16-2.62-0.04-4.47,1.77-6.6
			c1.83-2.15,5.13-3.52,8.05-2.88c3.13,0.69,5.06,2.92,8.47,1.77c4.19-1.41,6.86-6.85,5.09-10.91c-0.16-0.36-1.8-2.32-1.73-2.77
			c0.17-1.07,2.85-3.05,3.65-3.81c3.48-3.3,7.65-6.07,12.17-7.74c4.02-1.48,8.13-1.98,12.37-1.47c2.82,0.34,6.01,1.71,8.81,0.87
			c6.19-1.86,7.86-9.75,14.91-10.13c7.79-0.42,13.55-2.24,20.42-6.1c3.6-2.03,7.88-5.18,12.22-3.63c5.86,2.11,3.16,7.03,3.42,11.53
			c0.45,7.75,5.75,12.19,8.63,18.69c1.62,3.67,6.03,7.43,2.62,11.45c-2.06,2.42-5.6,3.51-8.16,5.28c-3.52,2.43-6.99,7.74-2.46,11.25
			c2.54,1.97,6.59,1.39,9.54,2.94c4.87,2.56,6.58,6.85,4.64,11.99c-0.2,0.52,0.06,1.07,0.39,1.46c4.8,5.78-7.22,10.21-11.18,11.43
			c-2.49,0.77-5.06,1.27-7.66,1.4c-1.97,0.09-4.48-0.73-6.28-0.44c-4.13,0.66-4.49,5.24-3.24,8.53
			c2.69,7.05,13.81,11.66,11.37,20.33c-1,3.55-5.35,10.2-9.45,10.28c-2.76,0.05-5.42-1.33-8.26-1.18c-4.76,0.24-7.74,3.36-8.46,7.98
			c-0.87,5.55-0.47,9.02-5.53,12.66c-3.75,2.69-8.24,4.45-12.52,6.05c-3.51,1.31-7.07,2.48-10.57,3.83c-1.84,0.72-4.06,2-5.95,2.46
			c-2.98,0.72-5.32-0.67-8-1.59c-4.6-1.57-23.16-0.41-21.08-8.4c0.49-1.87-2.41-2.67-2.89-0.8c-2.82,10.83,13.94,10.06,20.08,11.28
			c5.59,1.11,8.84,4.02,14.58,1.63c6.41-2.67,13.07-4.69,19.45-7.43c4.61-1.99,10.76-4.55,13.37-9.15
			c3.11-5.47-0.33-15.65,8.65-15.52c4.61,0.07,7.98,2.89,11.96-0.57c3.84-3.35,8.09-8.63,8-14c-0.08-4.82-3.44-8.73-6.58-12.02
			c-1.95-2.04-5.68-5.01-5.78-8.18c-0.13-4.62,7.66-2.67,10.42-3.08c7.55-1.11,22.29-5.45,19.28-15.37
			c-0.53-1.74-0.6-0.54-0.71-2.09c-0.06-0.83,0.5-2,0.56-2.89c0.11-1.77-0.18-3.52-0.92-5.14c-1.66-3.61-5.23-5.91-8.86-7.2
			c-2.56-0.9-9.62-0.42-6.38-6.14c0.98-1.73,3.93-2.89,5.6-3.84c3.1-1.76,6.45-3.76,7.32-7.5c0.36-1.56,0.2-2.94-0.35-4.42
			c-0.45-1.21-1.24-2.23-1.93-3.3c-1.13-1.77-1.2-2.96-2.13-4.9c-0.98-2.04-2.96-3.51-4.3-5.43c-2.42-3.47-3.9-7.56-3.82-11.82
			c0.04-2.26,1.35-4.73,0.88-6.87c-0.38-1.72-2.61-3.89-4.01-4.84c-3.81-2.6-8.35-1.84-12.25,0.06c-5.84,2.85-11.07,6.88-17.62,8.06
			c-5.63,1.02-9.57-0.5-14.14,3.62c-1.75,1.57-3.13,3.59-4.95,5.07c-3.23,2.63-6.39,1.26-10.04,0.87
			c-5.43-0.58-10.48,0.09-15.53,2.24c-5.27,2.24-10.04,5.76-13.88,10c-0.94,1.04-2.51,2.3-2.45,3.87c0.08,2.33,2.59,3.42,2.3,6.03
			c-0.33,2.96-2.93,5.37-6.05,4.73c-1.32-0.27-2.79-1.56-4.21-1.87c-2.15-0.47-4.13-0.18-6.2,0.5c-3.81,1.26-6.37,3.43-7.12,7.48
			c-0.62,3.38,0.54,6.96-2.24,9.64c-1.97,1.89-4.79,2.76-6.56,4.91c-2.24,2.73-2.68,6.39-1.39,9.61c1.49,3.73,4.75,6.47,7.31,9.44
			c1.7,1.97,3.13,3.86,3.6,6.47c0.93,5.08-3.28,7.1-5.93,10.4c-7.71,9.59-6.08,20.23,1.04,29.43c2.54,3.28,5.36,6.32,8.28,9.26
			c2.82,2.85,6.01,7.13,9.42,9.22c4.53,2.78,6.72,0.21,8.86-3.69c17.09-31.25,31.53-63.86,48.93-94.94
			C106.44,60.22,103.85,58.7,102.9,60.39L102.9,60.39z"/>
	</g>
</g>
<g>
	<g>
		<path class="st1" d="M60.2,146.35c-7.18-7.84-12.39-17.03-17.51-26.28c-0.94-1.69-3.53-0.18-2.59,1.51
			c5.25,9.48,10.62,18.86,17.98,26.88C59.38,149.9,61.5,147.78,60.2,146.35L60.2,146.35z"/>
	</g>
</g>
<g>
	<g>
		<path class="st1" d="M71.9,122.37c-8.31-12.32-13.63-26.2-15.51-40.95c-0.24-1.89-3.24-1.91-3,0c1.95,15.3,7.29,29.67,15.92,42.46
			C70.39,125.48,72.99,123.98,71.9,122.37L71.9,122.37z"/>
	</g>
</g>
<g>
	<g>
		<path class="st1" d="M89.38,88.45c-0.72-6.1-3.49-11.44-5.17-17.29c-1.94-6.75-2.24-13.77-1.98-20.74c0.07-1.93-2.93-1.93-3,0
			c-0.23,6.06-0.02,12.14,1.23,18.1c1.43,6.81,5.09,12.98,5.91,19.93C86.61,90.34,89.61,90.36,89.38,88.45L89.38,88.45z"/>
	</g>
</g>
<g>
	<g>
		<path class="st1" d="M96.79,79.89c10.33-2.6,21.33,0.09,31.07-5.02c1.71-0.9,0.2-3.49-1.51-2.59c-9.36,4.91-20.38,2.2-30.35,4.72
			C94.12,77.47,94.92,80.37,96.79,79.89L96.79,79.89z"/>
	</g>
</g>
<g>
	<g>
		<path class="st1" d="M79.82,107.71c12.96,0.15,25.46-2.72,37.07-8.45c1.73-0.85,0.21-3.44-1.51-2.59
			c-11.14,5.49-23.14,8.18-35.56,8.04C77.88,104.69,77.88,107.69,79.82,107.71L79.82,107.71z"/>
	</g>
</g>
<g>
	<g>
		<path class="st1" d="M65.04,135.14c16.01,3.86,32.44,3.83,48.43-0.12c1.87-0.46,1.08-3.36-0.8-2.89
			c-15.48,3.82-31.34,3.86-46.84,0.12C63.96,131.79,63.16,134.68,65.04,135.14L65.04,135.14z"/>
	</g>
</g>
<g>
	<g>
		<path class="st1" d="M105.28,62.41c7.94-11.75,16.48-23.07,25.59-33.93c1.23-1.47-0.88-3.6-2.12-2.12
			c-9.28,11.06-17.97,22.58-26.06,34.54C101.61,62.5,104.2,64,105.28,62.41L105.28,62.41z"/>
	</g>
</g>
<g>
	<g>
		<path class="st1" d="M106.19,58.66c-1.06-6.66-3.1-17.77,0.16-24.06c0.89-1.71-1.7-3.23-2.59-1.51
			c-3.82,7.34-1.71,18.56-0.47,26.37C103.6,61.36,106.49,60.55,106.19,58.66L106.19,58.66z"/>
	</g>
</g>
<g>
	<g>
		<path class="st1" d="M117.34,45.98c5.75,0.03,11.2-1.44,16.15-4.35c1.66-0.98,0.16-3.57-1.51-2.59c-4.52,2.66-9.4,3.96-14.64,3.94
			C115.41,42.97,115.41,45.97,117.34,45.98L117.34,45.98z"/>
	</g>
</g>
<g>
	<g>
		<path class="st1" d="M55.07,153.23c-2.72,5.67-5.58,11.29-8.14,17.03c-2.28,5.12-3,10.2-3.35,15.74c-0.12,1.93,2.88,1.92,3,0
			c0.73-11.56,6.16-21,11.08-31.26C58.49,153.01,55.9,151.49,55.07,153.23L55.07,153.23z"/>
	</g>
</g>
<g>
	<g>
		<path class="st5" d="M64.32,132.84c-8.93-15.49-15.02-32.26-18.13-49.86c-0.08-0.47-0.81-0.27-0.72,0.2
			c3.12,17.67,9.25,34.49,18.21,50.04C63.91,133.63,64.56,133.26,64.32,132.84L64.32,132.84z"/>
	</g>
</g>
<g>
	<g>
		<path class="st5" d="M78.1,108.56c-3.68-7.56-7.5-15.45-7.58-24.04c-0.07-7.24,0.03-12.73-2.5-19.69
			c-0.16-0.45-0.89-0.26-0.72,0.2c1.55,4.28,2.69,8.5,2.72,13.08c0.02,3.34-0.41,6.56-0.02,9.9c0.87,7.43,4.23,14.29,7.46,20.93
			C77.66,109.37,78.31,108.99,78.1,108.56L78.1,108.56z"/>
	</g>
</g>
<g>
	<g>
		<path class="st5" d="M87.86,96.99c16.25-0.84,33.13-2.36,46.8-12.05c0.39-0.28,0.02-0.93-0.38-0.65
			c-13.57,9.62-30.29,11.11-46.42,11.94C87.38,96.26,87.38,97.01,87.86,96.99L87.86,96.99z"/>
	</g>
</g>
<g>
	<g>
		<path class="st5" d="M99.06,66.7c-5.3-7.59-3.15-16.94-3.79-25.58c-0.04-0.48-0.79-0.48-0.75,0c0.65,8.8-1.49,18.25,3.89,25.96
			C98.68,67.47,99.33,67.1,99.06,66.7L99.06,66.7z"/>
	</g>
</g>
<g>
	<g>
		<path class="st5" d="M108.29,60.78c6.78-0.8,13.35-0.43,19.96-2.5c5.88-1.84,11.06-4.97,15.26-9.48c0.33-0.35-0.2-0.88-0.53-0.53
			c-4.47,4.8-10.08,7.97-16.39,9.71c-6.06,1.67-12.15,1.32-18.31,2.05C107.81,60.08,107.81,60.83,108.29,60.78L108.29,60.78z"/>
	</g>
</g>
<g>
	<g>
		<path class="st5" d="M57.87,156.74c16.91-2.82,35.74,2.43,50.86-7.79c0.4-0.27,0.02-0.92-0.38-0.65
			c-15.02,10.16-33.86,4.91-50.68,7.72C57.2,156.1,57.4,156.82,57.87,156.74L57.87,156.74z"/>
	</g>
</g>
</svg>
