<?xml version="1.0" encoding="utf-8"?>
<!-- Generator: Adobe Illustrator 23.0.1, SVG Export Plug-In . SVG Version: 6.00 Build 0)  -->
<svg version="1.1" id="almond_milk" xmlns="http://www.w3.org/2000/svg" xmlns:xlink="http://www.w3.org/1999/xlink" x="0px"
	 y="0px" viewBox="0 0 200 200" style="enable-background:new 0 0 200 200;" xml:space="preserve">
<style type="text/css">
	.st0{fill:#B700D4;stroke:#4D4D4D;stroke-width:3;stroke-miterlimit:10;}
	.st1{fill:#8CC63F;}
	.st2{fill:#4D4D4D;}
</style>
<circle class="st0" cx="63" cy="45" r="16.5"/>
<circle class="st0" cx="50" cy="100" r="16.5"/>
<circle class="st0" cx="83" cy="41" r="16.5"/>
<circle class="st0" cx="94" cy="70" r="16.5"/>
<g>
	<path class="st1" d="M93.37,27.11c0.45-4.86,0.9-9.71,1.35-14.57c0.08-0.83,0.16-1.68,0.53-2.43c0.83-1.66,3.17-2.35,4.77-1.39
		c0.32,1.7-0.22,3.44-0.69,5.1c-2.55,8.97-3.42,18.42-2.54,27.71c-0.81-3.78-1.29-7.63-1.43-11.49c-0.05-1.42-0.11-3-1.11-4.02"/>
	<g>
		<path class="st2" d="M94.87,27.11c0.25-2.73,0.51-5.46,0.76-8.2c0.16-1.77-0.03-10.24,3.99-8.75c-0.37-0.48-0.73-0.96-1.1-1.45
			c0.21,5.24-2.28,10.81-2.94,16.06c-0.7,5.58-0.75,11.16-0.29,16.76c0.98-0.13,1.96-0.27,2.95-0.4c-0.74-3.7-1.02-7.35-1.37-11.09
			c-0.17-1.84-0.33-3.17-1.32-4.78c-1.01-1.64-3.6-0.14-2.59,1.51c1.47,2.4,1.04,6.32,1.37,9.04c0.25,2.06,0.62,4.08,1.02,6.11
			c0.33,1.64,3.08,1.29,2.95-0.4c-0.5-6.08-0.43-12.17,0.5-18.2c0.74-4.83,2.93-9.72,2.73-14.61c-0.03-0.71-0.46-1.21-1.1-1.45
			c-2.58-0.96-5.4-0.17-6.61,2.44c-0.89,1.92-0.73,4.43-0.92,6.47c-0.34,3.64-0.67,7.29-1.01,10.93
			C91.7,29.04,94.7,29.02,94.87,27.11L94.87,27.11z"/>
	</g>
</g>
<circle class="st0" cx="71" cy="71" r="16.5"/>
<circle class="st0" cx="45" cy="70" r="16.5"/>
<circle class="st0" cx="106" cy="42" r="16.5"/>
<circle class="st0" cx="67" cy="124" r="16.5"/>
<circle class="st0" cx="134" cy="44" r="16.5"/>
<circle class="st0" cx="124" cy="98" r="16.5"/>
<circle class="st0" cx="69" cy="95" r="16.5"/>
<circle class="st0" cx="98.02" cy="93.02" r="16.5"/>
<circle class="st0" cx="121" cy="70" r="16.5"/>
<circle class="st0" cx="146" cy="110" r="16.5"/>
<circle class="st0" cx="77" cy="149" r="16.5"/>
<circle class="st0" cx="116" cy="120" r="16.5"/>
<circle class="st0" cx="87" cy="120" r="16.5"/>
<circle class="st0" cx="130" cy="136" r="16.5"/>
<circle class="st0" cx="146" cy="78" r="16.5"/>
<circle class="st0" cx="104" cy="146" r="16.5"/>
<circle class="st0" cx="152" cy="54" r="16.5"/>
<circle class="st0" cx="113" cy="157" r="16.5"/>
<circle class="st0" cx="92" cy="170" r="16.5"/>
<g>
	<path class="st1" d="M91.07,25.17c9.84,1.89,19.6-4.68,28.16-11.52c1.76-1.4,4.13-2.82,5.69-1.25c1.22,1.22,1.26,3.74,2.58,4.79
		c0.68,0.54,1.54,0.57,2.36,0.65c2.66,0.25,5.26,1.22,7.55,2.82c0.44,0.31,0.89,0.67,1.08,1.25c0.24,0.74-0.02,1.59-0.06,2.4
		c-0.1,2.14,1.36,3.78,2.76,4.98c4.53,3.88,9.76,6.51,15.24,7.68c-8.11,2.63-16.58-2.87-24.72-0.43c-2.65,0.79-5.13,2.4-7.76,3.31
		c-3.22,1.11-6.9,1.33-9.25,4.33c-0.33,0.43-0.68,0.94-1.15,0.99c-0.67,0.07-1.09-0.81-1.39-1.54c-3.53-8.86-10.92-14.07-17.92-18.8
		c12.67,1.03,25.33,2.06,38,3.09"/>
	<g>
		<path class="st2" d="M90.67,26.61c6.81,0.99,12.94-0.91,18.85-4.3c3.29-1.89,6.33-4.16,9.33-6.47c1.39-1.75,3.18-2.36,5.39-1.82
			c0.26,0.72,0.54,1.43,0.84,2.14c0.42,0.84,0.73,1.62,1.51,2.21c2.82,2.14,7.28,0.31,9.56,3.7c1.37,2.03,0.76,4.49,2.49,6.71
			c3.97,5.1,11.3,8.17,17.39,9.63c0-0.96,0-1.93,0-2.89c-7.19,1.9-14.05-1.67-21.26-1.06c-2.79,0.23-5.19,1.26-7.71,2.39
			c-3.14,1.41-6.57,2.03-9.66,3.48c-1.08,0.51-3.38,2.62-3.96,2.53c-0.36-0.05-4.07-7.08-4.9-8.07c-3.79-4.55-8.7-7.97-13.57-11.27
			c-0.25,0.93-0.5,1.86-0.76,2.8c12.67,1.03,25.33,2.06,38,3.09c1.92,0.16,1.91-2.84,0-3c-12.67-1.03-25.33-2.06-38-3.09
			c-1.6-0.13-1.88,2.03-0.76,2.8c6.19,4.19,12.46,8.69,16.07,15.44c1.74,3.25,2.65,6.67,6.21,3.68c2.95-2.48,5.83-2.91,9.37-4.25
			c3.77-1.44,7.05-3.44,11.19-3.58c7.08-0.24,13.39,2.9,20.51,1.02c1.41-0.37,1.45-2.55,0-2.89c-3.94-0.94-7.63-2.43-11.03-4.64
			c-2.49-1.62-5.3-3.38-5.86-6.57c-0.16-0.9,0.32-1.85,0.01-2.79c-0.64-1.91-2.99-3.02-4.65-3.76c-3.56-1.59-5.58-0.6-8.01-4.2
			c-2.72-4.03-5.01-3.9-9.1-0.97c-7.97,5.72-16.15,12.66-26.7,11.13C89.58,23.45,88.77,26.34,90.67,26.61L90.67,26.61z"/>
	</g>
</g>
<g>
	<g>
		<path class="st1" d="M93.34,24.27c-6.95-1.49-13.67,8.03-14.62,14.06c-0.96,6.12-1.73,10.89-7.22,14.77
			c-2.45,1.73-5.29,2.88-8.18,3.65c-1.94,0.51-3.15,0.64-5.19,0.18c-2.75,0.1-3.03-1.06-0.84-3.47c0.37-3.54,1.52-3.94,3.43-1.22
			c9.67,9.59,5.79,23.29,1.19,34.17c-3.41,8.05,1.61,11.91,9.35,11.85c1.93-0.02,1.93-3.02,0-3c-1.38,0.01-3.32,0.18-4.62-0.39
			c-5.41-2.38-1.93-7.2-0.68-10.1c1.32-3.06,2.45-6.18,3.11-9.46c1.12-5.49,1.06-11.2-0.85-16.5c-1.54-4.28-4.92-10.25-9.68-11.58
			c-3.39-0.95-6.35,1.22-6.8,4.7c-0.45,3.48,1.86,8.2,5.57,8.74c4.55,0.66,10.56-1.8,14.39-4.1c3.97-2.39,7.36-6.03,8.88-10.47
			c1.1-3.21,0.59-6.68,1.81-9.82c1.2-3.1,6.21-9.93,10.16-9.09C94.43,27.56,95.23,24.67,93.34,24.27L93.34,24.27z"/>
	</g>
</g>
<g>
	<g>
		<path class="st1" d="M94.12,23.67c-3.6-5.18-8.75-8.89-14.9-10.44c-3.17-0.8-6.48-1-9.72-0.54c-1.48,0.21-2.88,0.57-4.3,1.03
			c-1.01,0.39-2.02,0.77-3.04,1.13c-2.39,1.22-4.09,0.36-5.1-2.58c0.88-1.72-1.71-3.24-2.59-1.51c-1.11,2.17-0.98,4.58,1,6.25
			c2.63,2.21,6.15,1.18,9.01,0.18c10-3.47,20.8-1.01,27.05,7.99C92.62,26.76,95.22,25.26,94.12,23.67L94.12,23.67z"/>
	</g>
</g>
</svg>
