<?xml version="1.0" encoding="utf-8"?>
<!-- Generator: Adobe Illustrator 23.0.1, SVG Export Plug-In . SVG Version: 6.00 Build 0)  -->
<svg version="1.1" id="water" xmlns="http://www.w3.org/2000/svg" xmlns:xlink="http://www.w3.org/1999/xlink" x="0px" y="0px"
	 viewBox="0 0 200 200" style="enable-background:new 0 0 200 200;" xml:space="preserve">
<style type="text/css">
	.st0{fill:#7A3B00;}
	.st1{fill:#4D4D4D;}
	.st2{fill:#E25445;stroke:#4D4D4D;stroke-width:3;stroke-miterlimit:10;}
	.st3{fill:#96DF00;}
	.st4{fill:#E25445;stroke:#4D4D4D;stroke-width:3;stroke-linecap:round;stroke-miterlimit:10;}
	.st5{fill:#FFFAA4;stroke:#4D4D4D;stroke-width:3;stroke-miterlimit:10;}
</style>
<g>
	<path class="st0" d="M78.57,45.69c0.31-5.04,0.75-10.07,1.31-15.09c0.04-0.32,0.1-0.69,0.36-0.87c0.26-0.18,0.6-0.12,0.91-0.05
		c1.59,0.34,3.18,0.68,4.77,1.02c0.26,0.05,0.52,0.11,0.74,0.26c0.79,0.51,0.6,1.69,0.35,2.59c-1.91,6.72-2.64,13.77-2.15,20.73
		c0.02,0.31-0.05,0.75-0.37,0.75c-0.09,0-0.17-0.03-0.24-0.07c-1.43-0.65-2.88-1.42-3.79-2.7c-1.37-1.91-1.24-4.48-1.05-6.82"/>
	<g>
		<path class="st1" d="M80.07,45.69c0.3-4.7-0.21-11.18,1.62-15.57c-0.48,0.37-0.96,0.73-1.45,1.1c0.55-0.03,3.79,0.23,4.48,0.74
			c1.27,0.95,0.65,1.33,0.34,3.01c-0.48,2.64-1.12,5.21-1.43,7.88c-0.33,2.84-0.47,5.69-0.4,8.55c0.01,0.95,0.05,1.9,0.13,2.85
			c0.08-0.44,0.15-0.88,0.23-1.32c-1.53-2.9-2.9-4.22-2.68-7.52c0.13-1.93-2.87-1.92-3,0c-0.27,4.13,0.53,9.74,5.58,10.82
			c2.87,0.61,2.83-1.5,2.77-3.88c-0.11-4.33,0.12-8.6,0.9-12.87c0.43-2.37,2.05-5.41,1.5-7.85c-0.7-3.15-5.84-3.57-8.41-3.42
			c-0.74,0.04-1.18,0.45-1.45,1.1c-1.93,4.63-1.4,11.39-1.73,16.37C76.94,47.62,79.94,47.61,80.07,45.69L80.07,45.69z"/>
	</g>
</g>
<path class="st2" d="M149.15,105.9c0,35.73-22.74,60.43-50.25,64.7c-7.32,1.14-27.78,1.49-34.15,0
	c-27.21-6.36-50.25-28.97-50.25-64.7c0-35.73,22.5-64.7,50.25-64.7c2.9,0,5.68,1.41,8.38,3.15c5.11,3.29,11.69,3.39,16.85,0.18
	c2.92-1.82,5.92-3.33,8.92-3.33C126.65,41.2,149.15,70.17,149.15,105.9z"/>
<g>
	<path class="st3" d="M85.03,41.1c4.36-4.93,10.63-8.12,17.18-8.74c12.72-1.21,25.71,6.83,37.83,2.82
		c-4.85,7.96-9.97,16.2-17.84,21.18c-3.6,2.28-7.69,3.79-11.91,4.41c-2.26,0.33-4.59,0.4-6.81-0.13c-1.88-0.45-3.64-1.31-5.28-2.33
		c-6.3-3.89-11.11-10.14-13.26-17.22c8.37-1.09,16.91-0.82,25.19,0.8c5.05,0.99,10.46,2.44,15.16,0.36"/>
	<g>
		<path class="st1" d="M86.09,42.16c7.97-8.49,18.17-9.37,29.04-7.16c8.44,1.72,16.76,4.08,25.31,1.62
			c-0.56-0.73-1.13-1.47-1.69-2.2c-5.99,9.82-12.6,20.18-24.18,23.84c-13.25,4.18-24.16-5.42-28.18-17.58
			c-0.48,0.63-0.96,1.27-1.45,1.9c7.68-0.91,15.37-0.85,23.01,0.42c6.03,1.01,11.75,2.83,17.74,0.68c1.8-0.65,1.03-3.55-0.8-2.89
			c-6.55,2.35-13.49-0.46-20.12-1.27c-6.61-0.81-13.23-0.73-19.83,0.05c-0.91,0.11-1.78,0.88-1.45,1.9
			c3.79,11.47,14.16,22.69,27.2,20.73c14.87-2.22,23.37-14.35,30.65-26.28c0.68-1.12-0.45-2.56-1.69-2.2
			c-10.95,3.15-21.54-2.24-32.45-2.92c-8.89-0.56-17.13,2.74-23.22,9.23C82.65,41.44,84.76,43.57,86.09,42.16L86.09,42.16z"/>
	</g>
</g>
<path class="st4" d="M186.06,142.72c-3.05,4.66-5.28,9.93-8.22,14.7c-5.86,9.48-13.91,19.24-25.62,20.93
	c-8.3,1.2-16.71,1.72-25.1,1.55c-6.44-0.13-12.95-0.67-19.06-2.71c-11.57-3.86-19.62-14.32-25.52-24.53
	c-0.6-1.04-5.94-13.63-7.8-17.63c0.33-0.54,0.43-0.71,0.76-1.25c2.35-0.07,4.72-0.12,7.08-0.19c20.63-0.55,41.25-1.11,61.87-1.66
	c10.48-0.28,20.96-0.56,31.44-0.84c3.46-0.1,7.69-0.72,11.59-0.76c1.94-0.03,3.8,0.1,5.45,0.49
	C193.73,131.01,186.63,141.85,186.06,142.72z"/>
<path class="st5" d="M187.49,130.33c-1.23,1.95-2.29,3.57-2.49,3.87c-3.05,4.66-5.28,9.93-8.22,14.7
	c-5.86,9.48-13.91,19.24-25.62,20.93c-8.3,1.2-16.71,1.72-25.1,1.55c-6.44-0.13-12.95-0.67-19.06-2.71
	c-11.57-3.86-19.62-14.32-25.52-24.53c-0.37-0.64-2.55-5.68-4.6-10.4c1.89-0.05,3.8-0.1,5.71-0.15c20.63-0.55,41.25-1.11,61.87-1.66
	c10.48-0.28,20.96-0.56,31.44-0.84C179.36,130.99,183.58,130.36,187.49,130.33z"/>
<g>
	<g>
		<path class="st1" d="M122.83,135.45c-0.79,0.58-1.54,1.21-2.12,2.01c-0.69,0.95-0.65,2.38,0.45,3.03c1,0.58,2.32,0.36,3.09-0.49
			c0.7-0.78,0.98-1.98,0.86-3c-0.09-0.78-0.63-1.54-1.5-1.5c-0.74,0.03-1.59,0.66-1.5,1.5c0.05,0.44,0.04,0.63-0.08,0.98
			c0.06-0.11,0.05-0.1-0.02,0.04c0.04-0.06,0.09-0.1,0.16-0.13c0.48-0.25,0.65,0.28,0.8,0.62c0.25,0.23,0.32,0.46,0.19,0.69
			c0.09-0.13,0.09-0.14,0.01-0.03c0.12-0.15,0.25-0.28,0.38-0.42c0.26-0.27,0.58-0.54,0.79-0.69c0.65-0.48,0.98-1.3,0.54-2.05
			C124.51,135.34,123.49,134.97,122.83,135.45L122.83,135.45z"/>
	</g>
</g>
<g>
	<g>
		<path class="st1" d="M128.47,138.29c-0.47,0.8-0.94,1.81-0.94,2.76c0,1.16,0.83,2.15,2.01,2.22c1.16,0.07,2.23-0.67,2.45-1.83
			c0.2-1.01-0.21-2.11-0.78-2.94c-0.46-0.67-1.32-0.97-2.05-0.54c-0.66,0.39-1,1.38-0.54,2.05c0.22,0.32,0.29,0.45,0.39,0.79
			c0.12,0.39-0.03,0.05,0.06-0.01c0.08-0.28,0.24-0.43,0.49-0.46c0.33-0.12,0.62,0.01,0.86,0.41c0.03,0.06,0.15,0.5,0.07,0.48
			c-0.02,0,0.14-0.52,0.14-0.55c0.1-0.32,0.25-0.58,0.42-0.87c0.41-0.7,0.16-1.64-0.54-2.05
			C129.82,137.34,128.88,137.59,128.47,138.29L128.47,138.29z"/>
	</g>
</g>
<g>
	<g>
		<path class="st1" d="M140.37,136.06c0.02,0.96,0.19,2.09,0.73,2.91c0.64,0.97,1.85,1.44,2.95,0.95c1.17-0.53,1.6-1.89,0.96-3.01
			c-0.48-0.84-1.3-1.5-2.12-1.99c-0.69-0.42-1.65-0.15-2.05,0.54c-0.41,0.71-0.16,1.63,0.54,2.05c0.36,0.22,0.48,0.29,0.78,0.59
			c-0.01-0.01,0.32,0.32,0.18,0.19c0.21,0.39,0.25,0.15,0.12-0.74c0.17-0.3,0.39-0.44,0.68-0.4c0.11-0.02,0.21-0.01,0.3,0.04
			c0.08,0.03,0.14,0.08,0.19,0.16c-0.08-0.03-0.05-0.09-0.08-0.22c-0.1-0.43-0.16-0.68-0.17-1.07c-0.02-0.81-0.68-1.5-1.5-1.5
			C141.08,134.56,140.36,135.24,140.37,136.06L140.37,136.06z"/>
	</g>
</g>
<g>
	<g>
		<path class="st1" d="M135.17,137.06c-0.38,0.87-0.72,1.83-0.66,2.8c0.07,1.16,0.91,2.13,2.11,2.18c1.25,0.06,2.42-0.93,2.4-2.22
			c-0.01-1.09-0.63-2.07-1.32-2.87c-0.53-0.61-1.58-0.54-2.12,0c-0.61,0.61-0.53,1.51,0,2.12c0.16,0.18,0.3,0.43,0.39,0.62
			c-0.04-0.08,0.11,0.2,0.05,0.13c0.11-0.62,0.38-0.86,0.81-0.7c0.25-0.02,0.44,0.09,0.57,0.32c0.05,0.09,0.06,0.34,0.1,0.25
			c0.02-0.04,0.03-0.34,0.01-0.21c0.04-0.3,0.13-0.64,0.24-0.91c0.32-0.74,0.22-1.61-0.54-2.05
			C136.59,136.15,135.49,136.31,135.17,137.06L135.17,137.06z"/>
	</g>
</g>
</svg>
