<?xml version="1.0" encoding="utf-8"?>
<!-- Generator: Adobe Illustrator 23.0.1, SVG Export Plug-In . SVG Version: 6.00 Build 0)  -->
<svg version="1.1" id="coconut_milk" xmlns="http://www.w3.org/2000/svg" xmlns:xlink="http://www.w3.org/1999/xlink" x="0px"
	 y="0px" viewBox="0 0 200 200" style="enable-background:new 0 0 200 200;" xml:space="preserve">
<style type="text/css">
	.st0{fill:#378A00;}
	.st1{fill:#4D4D4D;}
	.st2{fill:#D65236;}
	.st3{fill:#FCEE21;}
	.st4{fill:#8CC63F;}
	.st5{fill:#F56860;}
</style>
<g>
	<path class="st0" d="M73.87,36.88c-0.56-7.7-1.13-15.39-1.69-23.09c-0.04-0.55-0.06-1.15,0.28-1.58c0.4-0.5,1.12-0.56,1.76-0.58
		c1.66-0.05,3.33-0.11,4.99-0.16c0.66-0.02,1.39-0.02,1.89,0.42c0.59,0.52,0.6,1.42,0.57,2.21c-0.48,10.83-0.23,21.69,0.74,32.48
		c0.04,0.45,0.06,0.96-0.24,1.29c-0.66,0.73-1.81-0.15-2.33-0.98c-2.3-3.62-4.05-7.58-5.16-11.72"/>
	<g>
		<path class="st1" d="M75.37,36.88c-0.47-6.41-0.94-12.83-1.41-19.24c-0.26-3.58-0.46-5.02,3.58-4.62
			c2.68,0.27,2.33,0.28,2.54,2.99c0.12,1.56-0.1,3.21-0.12,4.78c-0.1,6.37,0.04,12.75,0.44,19.12c0.1,1.57,0.34,3.2,0.34,4.77
			c0.01,2.86,0.08,1.37-0.84-0.62c-1.44-3.1-2.82-5.98-3.79-9.29c-0.54-1.85-3.43-1.06-2.89,0.8c0.65,2.22,5.44,17.93,10,13.37
			c2.08-2.08,0.2-8.43,0.06-10.94c-0.33-6.05-0.43-12.11-0.31-18.16c0.05-2.59,1.36-7.32-1.12-9.24c-1.76-1.36-7.36-1.04-9.18-0.22
			c-2.93,1.3-1.9,4.66-1.71,7.27c0.47,6.41,0.94,12.83,1.41,19.24C72.51,38.8,75.51,38.81,75.37,36.88L75.37,36.88z"/>
	</g>
</g>
<g>
	<path class="st2" d="M66.01,37.23c-8.43,0.09-16.95,0.27-25.14,2.27c-8.19,2.01-16.14,6.01-21.45,12.56
		c-12.51,15.44-6.66,34.11-0.81,50.89c6.45,18.5,14.21,36.76,25.62,52.79c10.35,14.56,26.8,28.78,46.04,25.57
		c17.04-2.85,27.43-20.02,36.07-33.29c15.06-23.13,24.84-49.68,28.36-77.06c1.27-9.87,2.03-22.46-6.82-29.35
		c-3.85-3-8.82-4.07-13.62-4.93c-18.92-3.39-66.08,0.88-68.13,0.34"/>
	<g>
		<path class="st1" d="M66.01,35.73c-16.88,0.19-36.4,1.32-47.89,15.58c-11.09,13.76-7.85,31.33-2.75,46.81
			c6.09,18.46,13.46,36.83,24.05,53.21c8.46,13.08,19.97,26.18,35.52,30.56c15.28,4.3,28.96-2.32,38.96-13.8
			c10.98-12.62,19.95-28.06,26.87-43.21c7.8-17.08,13.05-35.28,15.42-53.91c1.79-14.06,0.57-29.53-15.15-34.31
			c-13.73-4.18-29.41-3-43.53-2.51c-6.79,0.23-13.57,0.59-20.35,0.96c-3.18,0.17-7.89,0.96-10.63,0.48c-1.89-0.33-2.7,2.56-0.8,2.89
			c6.08,1.07,13.38-0.49,19.49-0.8c11.57-0.58,23.18-1.06,34.77-0.71c13.24,0.4,30.42,1.45,33.43,17.31
			c1.38,7.32,0.12,15.15-1.06,22.4c-1.37,8.4-3.33,16.71-5.85,24.85c-5.15,16.62-12.71,32.25-22.17,46.84
			c-7.55,11.65-15.95,25.57-29.81,30.33c-16.24,5.58-32.12-4.2-42.73-15.89c-11.68-12.86-19.67-29.22-26.12-45.2
			c-6.4-15.86-15.98-36.4-10.83-53.76c6.64-22.38,31.47-24.87,51.17-25.1C67.94,38.71,67.94,35.71,66.01,35.73L66.01,35.73z"/>
	</g>
</g>
<g>
	<g>
		<path class="st3" d="M34.62,65.15c0.17,1.38,0.33,2.76,0.5,4.14c0.1,0.8,0.62,1.5,1.5,1.5c0.74,0,1.6-0.69,1.5-1.5
			c-0.17-1.38-0.33-2.76-0.5-4.14c-0.1-0.8-0.62-1.5-1.5-1.5C35.38,63.65,34.52,64.34,34.62,65.15L34.62,65.15z"/>
	</g>
</g>
<g>
	<g>
		<path class="st3" d="M56.72,73.45c-0.18,1.95-0.02,3.89,0.44,5.8c0.45,1.88,3.34,1.08,2.89-0.8c-0.4-1.66-0.49-3.31-0.33-5
			C59.9,71.53,56.9,71.54,56.72,73.45L56.72,73.45z"/>
	</g>
</g>
<g>
	<g>
		<path class="st3" d="M91.17,60.58c0,0.97,0,1.94,0,2.91c0,1.93,3,1.93,3,0c0-0.97,0-1.94,0-2.91
			C94.17,58.65,91.17,58.64,91.17,60.58L91.17,60.58z"/>
	</g>
</g>
<g>
	<g>
		<path class="st3" d="M127.3,73.45c0,0.83,0,1.66,0,2.49c0,0.78,0.69,1.54,1.5,1.5c0.81-0.04,1.5-0.66,1.5-1.5
			c0-0.83,0-1.66,0-2.49c0-0.78-0.69-1.54-1.5-1.5C127.99,71.99,127.3,72.61,127.3,73.45L127.3,73.45z"/>
	</g>
</g>
<g>
	<g>
		<path class="st3" d="M81.57,88c0.29,0.97,0.58,1.93,0.87,2.9c0.55,1.85,3.45,1.06,2.89-0.8c-0.29-0.97-0.58-1.93-0.87-2.9
			C83.91,85.36,81.02,86.14,81.57,88L81.57,88z"/>
	</g>
</g>
<g>
	<g>
		<path class="st3" d="M46.29,100.03c0.14,0.69,0.28,1.38,0.41,2.08c0.16,0.79,1.1,1.25,1.85,1.05c0.83-0.23,1.21-1.05,1.05-1.85
			c-0.14-0.69-0.28-1.38-0.41-2.08c-0.16-0.79-1.1-1.25-1.85-1.05C46.51,98.41,46.13,99.23,46.29,100.03L46.29,100.03z"/>
	</g>
</g>
<g>
	<g>
		<path class="st3" d="M114.84,96.71c0,0.69,0,1.38,0,2.08c0,0.78,0.69,1.54,1.5,1.5c0.81-0.04,1.5-0.66,1.5-1.5
			c0-0.69,0-1.38,0-2.08c0-0.78-0.69-1.54-1.5-1.5C115.53,95.24,114.84,95.87,114.84,96.71L114.84,96.71z"/>
	</g>
</g>
<g>
	<g>
		<path class="st3" d="M68.33,111.24c0,1.11,0,2.21,0,3.32c0,1.93,3,1.93,3,0c0-1.11,0-2.21,0-3.32
			C71.33,109.31,68.33,109.31,68.33,111.24L68.33,111.24z"/>
	</g>
</g>
<g>
	<g>
		<path class="st3" d="M99.06,116.23c0,1.25,0,2.49,0,3.74c0,1.93,3,1.93,3,0c0-1.25,0-2.49,0-3.74
			C102.06,114.3,99.06,114.29,99.06,116.23L99.06,116.23z"/>
	</g>
</g>
<g>
	<g>
		<path class="st3" d="M55.87,133.25c0,0.83,0,1.66,0,2.49c0,0.78,0.69,1.54,1.5,1.5c0.81-0.04,1.5-0.66,1.5-1.5
			c0-0.83,0-1.66,0-2.49c0-0.78-0.69-1.54-1.5-1.5C56.56,131.79,55.87,132.41,55.87,133.25L55.87,133.25z"/>
	</g>
</g>
<g>
	<g>
		<path class="st3" d="M85.77,132.84c0,0.69,0,1.38,0,2.08c0,0.78,0.69,1.54,1.5,1.5c0.81-0.04,1.5-0.66,1.5-1.5
			c0-0.69,0-1.38,0-2.08c0-0.78-0.69-1.54-1.5-1.5C86.46,131.38,85.77,132,85.77,132.84L85.77,132.84z"/>
	</g>
</g>
<g>
	<g>
		<path class="st3" d="M74.97,154.02c0,0.83,0,1.66,0,2.49c0,0.78,0.69,1.54,1.5,1.5c0.81-0.04,1.5-0.66,1.5-1.5
			c0-0.83,0-1.66,0-2.49c0-0.78-0.69-1.54-1.5-1.5C75.66,152.56,74.97,153.18,74.97,154.02L74.97,154.02z"/>
	</g>
</g>
<g>
	<g>
		<path class="st3" d="M107.78,142.81c0,0.28,0,0.55,0,0.83c0,0.78,0.69,1.54,1.5,1.5c0.81-0.04,1.5-0.66,1.5-1.5
			c0-0.28,0-0.55,0-0.83c0-0.78-0.69-1.54-1.5-1.5C108.47,141.34,107.78,141.97,107.78,142.81L107.78,142.81z"/>
	</g>
</g>
<g>
	<g>
		<path class="st3" d="M95.32,161.5c0,0.97,0,1.94,0,2.91c0,1.93,3,1.93,3,0c0-0.97,0-1.94,0-2.91
			C98.32,159.57,95.32,159.56,95.32,161.5L95.32,161.5z"/>
	</g>
</g>
<g>
	<g>
		<path class="st3" d="M123.15,118.72c0,0.97,0,1.94,0,2.91c0,1.93,3,1.93,3,0c0-0.97,0-1.94,0-2.91
			C126.15,116.79,123.15,116.79,123.15,118.72L123.15,118.72z"/>
	</g>
</g>
<g>
	<g>
		<path class="st3" d="M116.09,46.04c0,0.55,0,1.11,0,1.66c0,0.78,0.69,1.54,1.5,1.5c0.81-0.04,1.5-0.66,1.5-1.5
			c0-0.55,0-1.11,0-1.66c0-0.78-0.69-1.54-1.5-1.5C116.78,44.58,116.09,45.2,116.09,46.04L116.09,46.04z"/>
	</g>
</g>
<g>
	<g>
		<path class="st3" d="M71.24,47.7c0,1.11,0,2.21,0,3.32c0,1.93,3,1.93,3,0c0-1.11,0-2.21,0-3.32
			C74.24,45.77,71.24,45.77,71.24,47.7L71.24,47.7z"/>
	</g>
</g>
<g>
	<g>
		<path class="st3" d="M48.81,45.21c0,0.69,0,1.38,0,2.08c0,0.78,0.69,1.54,1.5,1.5c0.81-0.04,1.5-0.66,1.5-1.5
			c0-0.69,0-1.38,0-2.08c0-0.78-0.69-1.54-1.5-1.5C49.5,43.75,48.81,44.37,48.81,45.21L48.81,45.21z"/>
	</g>
</g>
<g>
	<path class="st4" d="M72.18,37.55c-10.44-0.2-21.03-0.38-31.17,2.12c-10.14,2.49-19.97,8.02-25.43,16.92
		c11.11-5.04,23.02-8.32,35.14-9.67c0.72-0.08,1.55-0.12,2.06,0.39c1.85,1.85,1.58,9.01,2.71,11.69c1.75,4.11,4.61,8.51,8.42,10.94
		c3.84-4.7,5.34-12.43,9.25-17.72c0.88-1.19,1.9-2.41,3.33-2.79c1.23-0.33,2.53,0.03,3.73,0.44c11.36,3.85,21.01,12.5,26.08,23.37
		c0.01-6.2,0.01-12.4,0.02-18.6c0-0.65,0.02-1.34,0.39-1.87c0.4-0.56,1.1-0.8,1.76-0.99c11.47-3.3,24.27-1.69,34.57,4.34
		c-1.96-5.48-5.44-10.4-9.93-14.1c2.62-0.7,5.23-1.41,7.85-2.11c-2.11-2.1-5.29-2.6-8.25-2.95c-20.18-2.38-40.61-2.55-60.82-0.52"/>
	<g>
		<path class="st1" d="M72.18,36.05c-20.77-0.38-45.32,0.36-57.9,19.78c-0.9,1.38,0.8,2.61,2.05,2.05
			c6.02-2.67,12.22-4.89,18.6-6.54c2.95-0.76,5.94-1.41,8.94-1.94c1.38-0.24,5.82-1.36,6.85-0.99c1.4,0.5,1.17,0.49,1.77,2.04
			c1.24,3.16,0.65,6.78,2.02,9.99c1.85,4.34,4.82,8.06,8.65,10.79c0.71,0.51,1.61,0.06,2.05-0.54c2.8-3.75,4.23-8.11,6.19-12.31
			c1.26-2.7,2.53-5.88,5.48-6.86c2.83-0.94,5.5,0.64,8.11,1.95C93.82,57.88,100.7,65.17,105,74c0.67,1.38,2.79,0.66,2.8-0.76
			c0-4.96,0.01-9.92,0.01-14.88c0-1.84-0.49-3.78,1.05-5.14c1.27-1.12,6.11-1.3,7.58-1.44c9.03-0.85,17.94,1.21,25.83,5.63
			c1.05,0.59,2.7-0.41,2.2-1.69c-2.25-5.81-5.6-10.68-10.32-14.76c-0.22,0.84-0.44,1.67-0.66,2.51c2.62-0.7,5.23-1.41,7.85-2.11
			c1.01-0.27,1.56-1.78,0.66-2.51c-3.33-2.7-7.11-3.14-11.27-3.61c-6.51-0.73-13.05-1.21-19.6-1.48
			c-13.11-0.53-26.22-0.09-39.27,1.18c-1.9,0.18-1.92,3.19,0,3c11.09-1.08,22.23-1.56,33.38-1.35c5.24,0.1,10.48,0.35,15.71,0.74
			c5.63,0.42,14.32-0.1,18.93,3.65c0.22-0.84,0.44-1.67,0.66-2.51c-2.62,0.7-5.23,1.41-7.85,2.11c-1.03,0.28-1.53,1.76-0.66,2.51
			c4.3,3.71,7.49,8.13,9.55,13.43c0.73-0.56,1.47-1.13,2.2-1.69c-9.42-5.28-20.27-7.38-30.97-5.56c-3.15,0.53-7.14,0.81-7.95,4.41
			c-0.58,2.55-0.06,5.81-0.06,8.42c0,3.72-0.01,7.44-0.01,11.16c0.93-0.25,1.86-0.5,2.8-0.76c-5.14-10.54-13.93-18.95-24.87-23.28
			c-4.61-1.82-7.74-1.92-10.86,2.26c-4.03,5.39-5.22,12.32-9.25,17.72c0.68-0.18,1.37-0.36,2.05-0.54
			c-5.65-4.04-7.89-9.64-8.82-16.2c-0.37-2.62-0.65-6.38-3.82-7.03c-2.11-0.43-5.08,0.46-7.15,0.79c-3.61,0.58-7.2,1.33-10.74,2.24
			c-6.64,1.72-13.06,4.06-19.32,6.84c0.68,0.68,1.37,1.37,2.05,2.05C28.8,38.94,52.62,38.69,72.18,39.05
			C74.11,39.09,74.11,36.09,72.18,36.05L72.18,36.05z"/>
	</g>
</g>
<g>
	<path class="st0" d="M137.01,76c1.3-5.86,2.6-11.73,3.9-17.59c0.09-0.42,0.21-0.88,0.54-1.13c0.38-0.29,0.89-0.19,1.33-0.08
		c1.15,0.29,2.3,0.59,3.45,0.88c0.46,0.12,0.96,0.27,1.2,0.69c0.29,0.51,0.1,1.19-0.1,1.77c-2.7,8-4.91,16.16-6.61,24.42
		c-0.07,0.34-0.17,0.73-0.45,0.92c-0.61,0.41-1.2-0.48-1.38-1.2c-0.78-3.17-1.11-6.48-0.97-9.8"/>
	<g>
		<path class="st1" d="M138.45,76.4c1.04-4.69,2.09-9.38,3.12-14.07c0.27-1.22,0.54-2.45,0.8-3.68c1.15,0.29,2.3,0.59,3.45,0.88
			c0.54,1.18-1.24,4.57-1.61,5.78c-1.42,4.61-2.68,9.27-3.78,13.96c-0.27,1.17-0.54,2.35-0.79,3.53c0.81,2.02,0.92,1.98,0.34-0.11
			c-0.18-2.66-0.61-5.12-0.56-7.8c0.04-1.93-2.96-1.93-3,0c-0.05,2.63-0.79,12.75,3.85,12.5c0.5-0.03,1.06-0.26,1.3-0.74
			c2.71-5.55,3.23-12.84,5.02-18.81c0.86-2.88,4.17-8.16,1.23-10.7c-1.63-1.41-5.94-2.33-7.67-0.61c-1.66,1.65-1.79,6.44-2.25,8.52
			c-0.78,3.52-1.56,7.04-2.34,10.56C135.14,77.48,138.04,78.29,138.45,76.4L138.45,76.4z"/>
	</g>
</g>
<g>
	<path class="st5" d="M131.55,74.68c-5.8-1.63-11.67-3.2-17.73-3.35c-6.05-0.15-12.38,1.25-17.45,5.08
		c-11.96,9.03-12.04,24.15-11.71,37.87c0.37,15.12,1.69,30.33,5.99,44.6c3.9,12.96,12.06,26.9,25.95,28.36
		c12.3,1.3,23.19-9.45,32.01-17.63c15.39-14.26,27.91-32.14,36.32-51.9c3.03-7.12,6.31-16.38,1.76-23.31
		c-1.98-3.01-5.15-4.82-8.25-6.42c-12.22-6.34-45.47-12.62-46.76-13.43"/>
	<g>
		<path class="st1" d="M131.94,73.24c-12.07-3.37-25.81-6.12-36.63,2.11c-9.26,7.04-11.83,18.52-12.17,29.58
			c-0.46,14.74,0.56,29.95,3.56,44.4c2.41,11.62,6.36,24.21,15.32,32.54c20.49,19.06,44.74-6.74,58.09-21.92
			c9.34-10.62,17.22-22.55,23.32-35.31c4.44-9.27,11.34-23.03,3.52-32.37c-6.62-7.9-20.17-10.51-29.6-13
			c-5.39-1.42-10.82-2.7-16.26-3.96c-2.64-0.61-6.41-0.98-8.65-2.06c-1.73-0.83-3.25,1.75-1.51,2.59c4.27,2.06,9.94,2.48,14.51,3.56
			c8.22,1.94,16.47,3.96,24.47,6.7c3.6,1.23,7.17,2.63,10.43,4.62c7.41,4.52,8.1,11.66,5.82,19.42
			c-3.4,11.58-9.91,22.79-16.63,32.74c-6.91,10.23-15.08,19.3-24.13,27.67c-8.32,7.7-18.74,17.54-31.1,14.79
			c-11.06-2.46-17.62-13.73-21.13-23.6c-4.52-12.73-6.07-26.47-6.73-39.89c-0.59-12-1.98-26.43,4.48-37.18
			c8.92-14.83,25.97-12.51,40.23-8.53C133.01,76.65,133.8,73.76,131.94,73.24L131.94,73.24z"/>
	</g>
</g>
<g>
	<g>
		<path class="st3" d="M103.5,89.15c-0.19,1.07-0.38,2.13-0.57,3.2c-0.14,0.8,0.22,1.62,1.05,1.85c0.72,0.2,1.7-0.25,1.85-1.05
			c0.19-1.07,0.38-2.13,0.57-3.2c0.14-0.8-0.22-1.62-1.05-1.85C104.62,87.9,103.64,88.35,103.5,89.15L103.5,89.15z"/>
	</g>
</g>
<g>
	<g>
		<path class="st3" d="M116.83,99.79c-0.57,1.45-0.87,2.96-0.98,4.51c-0.13,1.93,2.87,1.92,3,0c0.09-1.28,0.4-2.52,0.87-3.71
			c0.29-0.76-0.32-1.65-1.05-1.85C117.82,98.51,117.12,99.03,116.83,99.79L116.83,99.79z"/>
	</g>
</g>
<g>
	<g>
		<path class="st3" d="M143.26,97.09c-0.21,0.72-0.42,1.45-0.64,2.17c-0.22,0.75,0.27,1.67,1.05,1.85c0.8,0.18,1.61-0.24,1.85-1.05
			c0.21-0.72,0.42-1.45,0.64-2.17c0.22-0.75-0.27-1.67-1.05-1.85C144.3,95.86,143.49,96.28,143.26,97.09L143.26,97.09z"/>
	</g>
</g>
<g>
	<g>
		<path class="st3" d="M165.19,113.97c-0.18,0.62-0.36,1.24-0.55,1.86c-0.22,0.75,0.27,1.67,1.05,1.85c0.8,0.18,1.61-0.24,1.85-1.05
			c0.18-0.62,0.36-1.24,0.55-1.86c0.22-0.75-0.27-1.67-1.05-1.85C166.24,112.74,165.43,113.16,165.19,113.97L165.19,113.97z"/>
	</g>
</g>
<g>
	<g>
		<path class="st3" d="M130.67,115.75c-0.01,0.78-0.03,1.56-0.04,2.34c-0.01,0.78,0.7,1.54,1.5,1.5c0.82-0.04,1.49-0.66,1.5-1.5
			c0.01-0.78,0.03-1.56,0.04-2.34c0.01-0.78-0.7-1.54-1.5-1.5C131.34,114.28,130.68,114.9,130.67,115.75L130.67,115.75z"/>
	</g>
</g>
<g>
	<g>
		<path class="st3" d="M103.85,117.65c-0.06,0.55-0.11,1.09-0.17,1.64c-0.08,0.78,0.75,1.53,1.5,1.5c0.88-0.04,1.41-0.66,1.5-1.5
			c0.06-0.55,0.11-1.09,0.17-1.64c0.08-0.78-0.75-1.53-1.5-1.5C104.47,116.19,103.94,116.81,103.85,117.65L103.85,117.65z"/>
	</g>
</g>
<g>
	<g>
		<path class="st3" d="M151.56,128.85c-0.15,0.52-0.3,1.03-0.46,1.55c-0.22,0.75,0.27,1.67,1.05,1.85c0.8,0.18,1.61-0.24,1.85-1.05
			c0.15-0.52,0.3-1.03,0.46-1.55c0.22-0.75-0.27-1.67-1.05-1.85C152.6,127.62,151.8,128.04,151.56,128.85L151.56,128.85z"/>
	</g>
</g>
<g>
	<g>
		<path class="st3" d="M116.5,130.37c-0.24,0.83-0.49,1.66-0.73,2.48c-0.22,0.75,0.27,1.67,1.05,1.85c0.8,0.18,1.61-0.24,1.85-1.05
			c0.24-0.83,0.49-1.66,0.73-2.48c0.22-0.75-0.27-1.67-1.05-1.85C117.54,129.14,116.74,129.56,116.5,130.37L116.5,130.37z"/>
	</g>
</g>
<g>
	<g>
		<path class="st3" d="M136.47,140.27c-0.27,0.93-0.55,1.86-0.82,2.79c-0.23,0.78,0.28,1.63,1.05,1.85
			c0.79,0.22,1.62-0.27,1.85-1.05c0.27-0.93,0.55-1.86,0.82-2.79c0.23-0.78-0.28-1.63-1.05-1.85
			C137.52,139,136.7,139.49,136.47,140.27L136.47,140.27z"/>
	</g>
</g>
<g>
	<g>
		<path class="st3" d="M103.14,144.31c-0.18,0.62-0.36,1.24-0.55,1.86c-0.22,0.75,0.27,1.67,1.05,1.85c0.8,0.18,1.61-0.24,1.85-1.05
			c0.18-0.62,0.36-1.24,0.55-1.86c0.22-0.75-0.27-1.67-1.05-1.85C104.18,143.08,103.38,143.51,103.14,144.31L103.14,144.31z"/>
	</g>
</g>
<g>
	<g>
		<path class="st3" d="M123.72,150.01c-0.15,0.52-0.3,1.03-0.46,1.55c-0.22,0.75,0.27,1.67,1.05,1.85c0.8,0.18,1.61-0.24,1.85-1.05
			c0.15-0.52,0.3-1.03,0.46-1.55c0.22-0.75-0.27-1.67-1.05-1.85C124.76,148.78,123.96,149.21,123.72,150.01L123.72,150.01z"/>
	</g>
</g>
<g>
	<g>
		<path class="st3" d="M111.68,163.67c-0.18,0.62-0.36,1.24-0.55,1.86c-0.22,0.75,0.27,1.67,1.05,1.85c0.8,0.18,1.61-0.24,1.85-1.05
			c0.18-0.62,0.36-1.24,0.55-1.86c0.22-0.75-0.27-1.67-1.05-1.85C112.72,162.44,111.92,162.87,111.68,163.67L111.68,163.67z"/>
	</g>
</g>
<g>
	<g>
		<path class="st3" d="M136.62,161.88c-0.06,0.21-0.12,0.41-0.18,0.62c-0.22,0.75,0.27,1.67,1.05,1.85c0.8,0.18,1.61-0.24,1.85-1.05
			c0.06-0.21,0.12-0.41,0.18-0.62c0.22-0.75-0.27-1.67-1.05-1.85C137.66,160.65,136.86,161.08,136.62,161.88L136.62,161.88z"/>
	</g>
</g>
<g>
	<g>
		<path class="st3" d="M123.99,173.35c-0.21,0.72-0.42,1.45-0.64,2.17c-0.22,0.75,0.27,1.67,1.05,1.85c0.8,0.18,1.61-0.24,1.85-1.05
			c0.21-0.72,0.42-1.45,0.64-2.17c0.22-0.75-0.27-1.67-1.05-1.85C125.03,172.12,124.22,172.54,123.99,173.35L123.99,173.35z"/>
	</g>
</g>
<g>
	<g>
		<path class="st3" d="M152.43,146.97c-0.21,0.72-0.42,1.45-0.64,2.17c-0.22,0.75,0.27,1.67,1.05,1.85c0.8,0.18,1.61-0.24,1.85-1.05
			c0.21-0.72,0.42-1.45,0.64-2.17c0.22-0.75-0.27-1.67-1.05-1.85C153.47,145.74,152.66,146.16,152.43,146.97L152.43,146.97z"/>
	</g>
</g>
<g>
	<g>
		<path class="st3" d="M163.52,91.23c-0.12,0.41-0.24,0.83-0.36,1.24c-0.22,0.75,0.27,1.67,1.05,1.85c0.8,0.18,1.61-0.24,1.85-1.05
			c0.12-0.41,0.24-0.83,0.36-1.24c0.22-0.75-0.27-1.67-1.05-1.85C164.56,90,163.75,90.42,163.52,91.23L163.52,91.23z"/>
	</g>
</g>
<g>
	<g>
		<path class="st3" d="M132.42,83.46c-0.24,0.83-0.49,1.66-0.73,2.48c-0.22,0.75,0.27,1.67,1.05,1.85c0.8,0.18,1.61-0.24,1.85-1.05
			c0.24-0.83,0.49-1.66,0.73-2.48c0.22-0.75-0.27-1.67-1.05-1.85C133.46,82.23,132.65,82.66,132.42,83.46L132.42,83.46z"/>
	</g>
</g>
<g>
	<g>
		<path class="st3" d="M117.6,77.09c-0.15,0.52-0.3,1.03-0.46,1.55c-0.22,0.75,0.27,1.67,1.05,1.85c0.8,0.18,1.61-0.24,1.85-1.05
			c0.15-0.52,0.3-1.03,0.46-1.55c0.22-0.75-0.27-1.67-1.05-1.85C118.64,75.86,117.83,76.29,117.6,77.09L117.6,77.09z"/>
	</g>
</g>
<g>
	<path class="st4" d="M135.71,76.16c-7.11-2.25-14.33-4.51-21.82-4.68c-7.5-0.17-15.44,1.98-21.13,7.54
		c8.72-1.53,17.6-1.59,26.2-0.17c0.51,0.08,1.09,0.22,1.33,0.71c0.86,1.75-0.89,7.05-0.7,9.28c0.3,3.42,1.3,7.28,3.37,9.87
		c3.66-2.74,6.38-8.22,10.22-11.39c0.86-0.71,1.83-1.42,2.89-1.42c0.91,0,1.73,0.53,2.46,1.08c6.94,5.16,11.66,13.56,12.75,22.71
		c1.36-4.63,2.72-9.26,4.09-13.89c0.14-0.48,0.31-1,0.68-1.32c0.39-0.34,0.93-0.38,1.42-0.39c8.58-0.16,17,3.61,22.74,10.19
		c-0.15-4.49-1.45-8.87-3.72-12.53c1.95,0,3.89,0,5.84,0c-0.99-1.99-3.06-3.01-5.01-3.86c-13.3-5.83-27.27-10.07-41.57-12.61"/>
	<g>
		<path class="st1" d="M136.11,74.72c-14.93-4.7-31.65-8.42-44.42,3.24c-1.21,1.11,0.11,2.73,1.46,2.51
			c4.84-0.79,9.71-1.22,14.62-1.13c2.5,0.04,5,0.2,7.48,0.49c3.92,0.46,3.96,0.31,3.48,3.79c-0.8,5.75-0.56,10.85,2.92,15.84
			c0.59,0.84,1.57,0.95,2.36,0.3c2.2-1.83,3.86-4.03,5.61-6.26c0.91-1.17,2.23-3.56,3.59-4.21c2.76-1.3,5.61-0.35,7.53,1.58
			c5.19,5.22,8.06,11.99,9.08,19.21c0.22,1.55,2.51,1.3,2.89,0c0.85-2.89,1.7-5.79,2.55-8.68c0.68-2.3,0.89-4.85,3.7-5.8
			c1.33-0.45,3.56,0.35,4.82,0.62c6.04,1.32,11.19,4.6,15.34,9.11c0.85,0.93,2.64,0.23,2.56-1.06c-0.31-4.78-1.53-9.12-3.92-13.29
			c-0.43,0.75-0.86,1.5-1.3,2.26c1.95,0,3.89,0,5.84,0c1.09,0,1.93-1.29,1.3-2.26c-3.74-5.69-13.38-7.75-19.42-9.85
			c-9.15-3.18-18.53-5.57-28.05-7.31c-1.89-0.35-2.7,2.55-0.8,2.89c7.74,1.42,15.38,3.25,22.89,5.61c3.46,1.09,6.89,2.28,10.28,3.57
			c4,1.52,10.05,2.86,12.51,6.61c0.43-0.75,0.86-1.5,1.3-2.26c-1.95,0-3.89,0-5.84,0c-1.14,0-1.86,1.27-1.3,2.26
			c2.14,3.73,3.23,7.48,3.51,11.77c0.85-0.35,1.71-0.71,2.56-1.06c-5.28-5.75-12.21-9.57-20.03-10.43
			c-2.96-0.33-5.76-0.71-7.16,2.26c-2.04,4.34-2.88,9.65-4.24,14.25c0.96,0,1.93,0,2.89,0c-1.24-8.78-5.61-18.44-13.28-23.49
			c-7.44-4.9-12.86,7.95-17.54,11.84c0.79,0.1,1.57,0.2,2.36,0.3c-3.14-4.51-3.27-8.95-2.52-14.14c0.29-2.03,0.83-4.57-1.1-5.94
			c-2.61-1.86-8.92-1.42-11.92-1.51c-5.5-0.16-10.94,0.32-16.36,1.21c0.49,0.84,0.97,1.67,1.46,2.51
			c11.88-10.85,27.76-6.79,41.5-2.47C137.15,78.19,137.94,75.29,136.11,74.72L136.11,74.72z"/>
	</g>
</g>
</svg>
