<?xml version="1.0" encoding="utf-8"?>
<!-- Generator: Adobe Illustrator 23.0.1, SVG Export Plug-In . SVG Version: 6.00 Build 0)  -->
<svg version="1.1" id="Layer_7" xmlns="http://www.w3.org/2000/svg" xmlns:xlink="http://www.w3.org/1999/xlink" x="0px" y="0px"
	 viewBox="0 0 200 200" style="enable-background:new 0 0 200 200;" xml:space="preserve">
<style type="text/css">
	.st0{opacity:0.83;}
	.st1{fill:#C4FFFF;}
	.st2{fill:#C4D3FF;}
	.st3{opacity:0.61;}
	.st4{fill:#FFFFFF;}
</style>
<g class="st0">
	<path class="st1" d="M62.28,8.4c5.01,0.12,9.99-1.39,14.97-0.86c0.61,0.06,1.22,0.16,1.79,0.36c0.63,0.22,1.21,0.57,1.78,0.91
		c1.72,1.03,3.45,2.06,5.17,3.09c2.37,1.42,4.75,2.84,6.9,4.58c1.2,0.97,2.31,2.05,3.49,3.04c2.92,2.48,6.22,4.52,9.74,6.02
		c0.43,0.18,0.92,0.44,0.95,0.91c0.04,0.53-0.55,0.85-1.06,0.99c-2.59,0.7-5.34-0.05-8.03,0.02c-2.02,0.05-4.1,0.56-6.02-0.04
		c-2.11-0.66-3.58-2.51-5.25-3.97c-2.69-2.35-6.04-3.76-9.16-5.49c-5.36-2.96-10.15-6.93-15.75-9.4"/>
	<g>
		<path class="st2" d="M62.28,9.9c4.35-0.06,8.76-1.24,13.11-0.97c4.3,0.27,7.72,2.93,11.27,5.12c3.61,2.22,6.62,4.98,9.94,7.58
			c1.39,1.09,2.85,2.1,4.38,3c0.94,0.56,1.91,1.07,2.9,1.54c1.92,0.76,2,0.88,0.24,0.37c-2-0.03-4.06-0.6-6.11-0.57
			c-2.67,0.04-4.95,0.52-7.36-1.05c-2.69-1.76-4.71-4.13-7.58-5.73c-6.85-3.84-13.4-8.58-20.49-11.92
			c-1.74-0.82-3.26,1.77-1.51,2.59c9.68,4.56,19.08,11.03,27.58,17.36c3.5,2.61,6.89,1.67,10.98,1.78c2.2,0.06,7.74,1.28,8.77-1.8
			c0.89-2.66-2.76-3.47-4.45-4.38c-4.58-2.44-8.07-6.18-12.26-9.13c-3.52-2.48-7.94-5.73-12.03-7.17C74.27,4.66,67.8,6.83,62.28,6.9
			C60.35,6.93,60.35,9.93,62.28,9.9L62.28,9.9z"/>
	</g>
</g>
<g class="st0">
	<path class="st1" d="M60.49,11.45c-4.44,7.74-8.88,15.47-13.32,23.21c-0.52,0.9-1.05,1.94-0.73,2.93c0.25,0.78,0.97,1.3,1.64,1.76
		c7.91,5.45,15.85,10.9,24.35,15.39c0.6,0.32,1.24,0.64,1.92,0.6c1.39-0.08,2.2-1.56,2.81-2.81c3.25-6.66,8.17-12.35,12.12-18.63
		c0.72-1.15,1.42-2.35,1.7-3.68c0.27-1.33,0.05-2.83-0.88-3.81c-0.36-0.38-0.8-0.66-1.24-0.94C80.52,20.14,72.19,14.82,63.86,9.5
		c-0.71-0.46-1.57-0.93-2.36-0.62c-1.09,0.43-1.14,1.94-0.99,3.11"/>
	<g>
		<path class="st2" d="M59.19,10.69c-4.28,7.45-8.76,14.82-12.84,22.38c-3.13,5.79,0.74,7.44,5.43,10.63
			c6.24,4.25,12.87,9.46,19.89,12.34c4.26,1.74,5.62-0.7,7.57-4.27c3.49-6.41,8.67-11.83,12.04-18.28c2.51-4.8,0.82-7.65-3.33-10.38
			c-7.14-4.7-14.36-9.37-21.65-13.83c-3.62-2.22-7.5-2.85-7.28,2.72c0.08,1.92,3.08,1.93,3,0c-0.12-2.93,5.43,1.57,6.09,2
			c2.22,1.42,4.44,2.84,6.66,4.26c2.22,1.42,4.44,2.84,6.66,4.26c1.73,1.1,5.5,2.6,6.66,4.26c3.31,4.71-3.47,11.34-5.93,14.85
			c-1.31,1.87-2.62,3.74-3.81,5.68c-0.89,1.45-1.6,3.73-2.74,4.96c-2.73,2.95-9.05-2.51-11.78-4.21c-3.95-2.46-8.51-4.88-12.03-7.94
			c-1.85-0.92-2.96-2.48-3.34-4.68c0.63-1.11,1.27-2.21,1.9-3.32c1.27-2.21,2.54-4.42,3.81-6.63c2.54-4.42,5.07-8.84,7.61-13.26
			C62.75,10.53,60.15,9.01,59.19,10.69L59.19,10.69z"/>
	</g>
</g>
<g class="st0">
	<path class="st1" d="M91.22,28.37c1.19-0.22,2.4-0.44,3.59-0.22c0.51,0.1,1,0.28,1.51,0.37c0.67,0.13,1.35,0.1,2.03,0.08
		c2.74-0.09,5.49-0.18,8.23-0.27c-1.56,3.13-4.53,5.44-5.79,8.7c-0.37,0.95-0.58,1.96-0.93,2.92c-1.16,3.24-3.76,5.75-5.45,8.75
		c-0.6,1.07-1.11,2.22-1.99,3.08c-0.78,0.76-1.79,1.23-2.8,1.62c-1.39,0.53-2.82,0.95-4.28,1.19c-1.1,0.19-2.22,0.28-3.29,0.57
		c-1.05,0.28-2.06,0.74-3.13,0.93c-1.35,0.24-2.73,0.04-4.09-0.16c1.18-1.53,2.35-3.06,3.53-4.6c0.71-0.93,1.43-1.86,1.93-2.92
		c0.32-0.68,0.55-1.41,0.84-2.1c0.52-1.24,1.24-2.38,1.95-3.51c1.12-1.77,2.23-3.53,3.49-5.2c0.5-0.66,1.02-1.31,1.48-2
		c1.66-2.45,2.57-5.31,3.47-8.12"/>
	<g>
		<path class="st2" d="M91.62,29.82c2.33-0.36,5.15,0.3,7.56,0.26c2.47-0.04,4.94-0.16,7.41-0.24c-0.43-0.75-0.86-1.5-1.3-2.26
			c-1.75,3.05-4.31,5.49-5.79,8.7c-1.41,3.06-2.34,5.8-4.32,8.59c-2.67,3.76-3.91,6.76-8.78,7.98c-3.64,0.92-7.87,2.09-11.56,1.59
			c0.43,0.75,0.86,1.5,1.3,2.26c1.9-2.48,4.11-4.9,5.53-7.69c1.18-2.31,2.14-4.56,3.55-6.76c3.12-4.84,5.96-8.81,7.75-14.37
			c0.59-1.84-2.3-2.63-2.89-0.8c-1.86,5.76-5.15,9.93-8.29,14.97c-0.89,1.43-1.59,2.88-2.31,4.4c-1.53,3.26-3.75,5.88-5.94,8.73
			c-0.79,1.02,0.33,2.13,1.3,2.26c4.01,0.54,7.73-0.72,11.63-1.55c3.36-0.72,6.4-1.89,8.34-4.82c2.18-3.29,4.83-6.73,6.36-10.36
			c0.79-1.88,1.25-3.78,2.36-5.52c1.37-2.14,3.09-3.88,4.36-6.1c0.55-0.96-0.14-2.29-1.3-2.26c-2.88,0.09-5.86,0.43-8.74,0.27
			c-2.52-0.13-4.46-0.59-7.02-0.19C88.92,27.22,89.73,30.11,91.62,29.82L91.62,29.82z"/>
	</g>
</g>
<g class="st3">
	<g>
		<path class="st4" d="M63.52,15.16c-2.4,2.05-4.97,4.49-6,7.55c-0.34,1,0.05,2.19,0.77,2.92c0.35,0.4,0.75,0.76,1.19,1.06
			c-0.42-1.24-0.99-1.18-1.72,0.19c-1,0.49-2.61,2.16-3.14,3.2c-0.67,1.31,0.31,6.31,1.19,4.73c0.86-0.5,1.73-0.99,2.59-1.49
			c0.53,0.36,1.06,0.72,1.59,1.08c0.36-1,0.77-1.97,1.24-2.93c0.56-1.2,1.19-2.35,1.83-3.51c1.92-3.45-2.94-6.08-5.18-3.03
			c-2.09,2.85-6.83,8.38-4.68,12.13c1.01,1.76,3.67,3.03,5.22,4.16c2.82,2.06,5.63,4.11,8.45,6.17c3.12,2.28,6.12-2.92,3.03-5.18
			c-3.9-2.85-8.95-5.52-12.21-9.08c0.26,0.97,0.51,1.95,0.77,2.92c0.6-2.84,2.93-5.78,4.62-8.08c-1.73-1.01-3.45-2.02-5.18-3.03
			c-1.99,3.58-7.93,14.42,0.52,14.38c1.04-0.01,2.08-0.56,2.59-1.49c1.72-3.08-0.62-4.02-1.12-6.74c-0.26,0.97-0.51,1.95-0.77,2.92
			c1.8-2.3,5.22-3.92,6.11-6.87c0.9-2.97-0.92-4-2.67-5.76c0.26,0.97,0.51,1.95,0.77,2.92c0.63-1.88,3-3.66,4.45-4.9
			C70.71,16.9,66.44,12.67,63.52,15.16L63.52,15.16z"/>
	</g>
</g>
<g class="st3">
	<g>
		<path class="st4" d="M95.38,31.43c-1.33,2.28-2.71,4.53-4.14,6.75c-1.11,1.71-2.47,5.15-4.69,5.19c-3.86,0.07-3.87,6.07,0,6
			c3.88-0.07,5.59-1.8,7.68-4.86c2.24-3.27,4.34-6.62,6.34-10.04C102.52,31.12,97.33,28.1,95.38,31.43L95.38,31.43z"/>
	</g>
</g>
<g class="st3">
	<g>
		<path class="st4" d="M75.55,14.88c4.84,2.74,9.49,5.76,13.96,9.07c3.1,2.3,6.1-2.9,3.03-5.18c-4.47-3.31-9.12-6.33-13.96-9.07
			C75.21,7.8,72.19,12.98,75.55,14.88L75.55,14.88z"/>
	</g>
</g>
<g class="st3">
	<g>
		<path class="st4" d="M73.72,26.27c2.34,1.42,5.4,2.75,7.43,4.6c-0.29-0.71-0.59-1.41-0.88-2.12c-0.04-0.74-0.49,0.99-0.7,1.38
			c-0.48,0.89-0.96,1.78-1.44,2.67c-0.96,1.78-1.92,3.55-2.87,5.33c-1.83,3.4,3.35,6.43,5.18,3.03c1.15-2.13,2.3-4.27,3.45-6.4
			c0.91-1.69,2.41-3.69,2.39-5.68c-0.03-3.92-6.74-6.29-9.54-7.98C73.44,19.08,70.42,24.27,73.72,26.27L73.72,26.27z"/>
	</g>
</g>
<g class="st3">
	<g>
		<path class="st4" d="M74.35,51.79c3.86,0,3.87-6,0-6C70.49,45.79,70.48,51.79,74.35,51.79L74.35,51.79z"/>
	</g>
</g>
<g class="st0">
	<path class="st1" d="M73.81,97.08c4.99-0.44,9.78-2.48,14.79-2.5c0.61,0,1.23,0.03,1.82,0.16c0.65,0.15,1.26,0.43,1.87,0.71
		c1.83,0.83,3.65,1.67,5.48,2.5c2.51,1.15,5.04,2.3,7.36,3.8c1.3,0.84,2.53,1.78,3.81,2.64c3.18,2.14,6.68,3.81,10.35,4.91
		c0.44,0.13,0.97,0.34,1.05,0.8c0.09,0.52-0.46,0.91-0.95,1.1c-2.5,0.98-5.31,0.54-7.97,0.91c-2,0.27-4.01,1.01-5.99,0.62
		c-2.17-0.43-3.84-2.11-5.65-3.37c-2.93-2.04-6.42-3.07-9.71-4.45c-5.65-2.35-10.85-5.77-16.69-7.61"/>
	<g>
		<path class="st2" d="M73.81,98.58c4.39-0.53,8.72-2.2,13.13-2.42c4.11-0.2,7.95,2.07,11.58,3.78c3.97,1.87,7.32,4.36,11.04,6.64
			c1.07,0.65,8.15,5.04,9.32,4.18c-0.41,0.3-6.39-0.26-7.47-0.14c-1.47,0.15-3.05,0.78-4.5,0.73c-3.77-0.15-7.38-4.1-10.76-5.6
			c-7.4-3.27-14.74-7.27-22.39-9.89c-1.83-0.63-2.62,2.27-0.8,2.89c5.7,1.95,10.8,5.13,16.33,7.46c2.35,0.99,4.81,1.76,7.08,2.91
			c2.14,1.08,3.82,2.73,5.88,3.9c3.9,2.22,8.17,0.74,12.39,0.4c1.99-0.16,6.77,0.02,7.13-2.92c0.35-2.89-4.74-3.49-6.35-4.21
			c-4.71-2.1-8.57-5.54-13.15-7.86c-3.55-1.8-7.73-4.31-11.65-5.16c-5.41-1.17-11.5,1.67-16.81,2.31
			C71.92,95.81,71.89,98.81,73.81,98.58L73.81,98.58z"/>
	</g>
</g>
<g class="st0">
	<path class="st1" d="M72.36,100.31c-3.56,8.18-7.12,16.35-10.68,24.53c-0.41,0.95-0.83,2.05-0.41,3c0.34,0.75,1.1,1.18,1.83,1.57
		c8.47,4.54,16.96,9.09,25.89,12.62c0.63,0.25,1.31,0.5,1.98,0.38c1.37-0.24,2.02-1.79,2.49-3.1c2.5-6.98,6.76-13.18,9.99-19.85
		c0.59-1.22,1.16-2.49,1.28-3.84c0.13-1.35-0.26-2.82-1.3-3.69c-0.4-0.34-0.87-0.57-1.34-0.8c-8.86-4.37-17.73-8.74-26.59-13.11
		c-0.76-0.37-1.67-0.75-2.41-0.35c-1.04,0.55-0.92,2.05-0.65,3.2"/>
	<g>
		<path class="st2" d="M71.06,99.55c-3.54,8.12-7.65,16.21-10.68,24.53c-2.05,5.64,2.26,6.8,6.73,9.17
			c6.47,3.43,13.01,6.81,19.81,9.55c4.71,1.9,6.45,0.64,8.28-3.89c2.84-7.01,7.71-13.2,10.26-20.29c2.16-6.03-1.15-8.07-6.16-10.54
			c-7.61-3.75-15.18-8.2-23.04-11.36c-3.94-1.58-5.86,0.6-5.26,4.54c0.29,1.9,3.18,1.09,2.89-0.8c-0.25-1.67,7.57,2.16,7.95,2.35
			c2.36,1.17,4.73,2.33,7.09,3.5c2.36,1.17,4.73,2.33,7.09,3.5c1.44,0.71,4.17,1.44,5.32,2.62c4.11,4.26-1.86,11.36-4.04,15.34
			c-1.8,3.28-3.01,7.23-4.98,10.35c-2.32,3.67-4.3,1.96-7.55,0.54c-2.2-0.97-4.37-1.99-6.53-3.05c-4.05-1.98-8.03-4.09-12-6.21
			c-3.41-1.82-2.86-3.76-1.74-7.29c0.75-2.38,2.06-4.72,3.05-7.01c2.04-4.67,4.07-9.35,6.11-14.02
			C74.42,99.31,71.83,97.78,71.06,99.55L71.06,99.55z"/>
	</g>
</g>
<g class="st0">
	<path class="st1" d="M104.77,113.75c1.15-0.35,2.34-0.71,3.54-0.61c0.52,0.04,1.03,0.17,1.54,0.2c0.68,0.05,1.36-0.05,2.03-0.14
		c2.72-0.39,5.43-0.78,8.15-1.17c-1.2,3.28-3.9,5.91-4.8,9.28c-0.26,0.99-0.36,2.01-0.6,3.01c-0.8,3.35-3.1,6.13-4.46,9.3
		c-0.48,1.13-0.86,2.33-1.64,3.28c-0.69,0.84-1.64,1.42-2.61,1.92c-1.32,0.68-2.7,1.25-4.12,1.66c-1.07,0.31-2.17,0.52-3.21,0.93
		c-1.01,0.39-1.96,0.96-3.01,1.27c-1.31,0.39-2.71,0.34-4.08,0.29c1-1.65,2-3.3,3-4.96c0.61-1,1.21-2.01,1.59-3.11
		c0.24-0.71,0.39-1.46,0.6-2.18c0.38-1.29,0.97-2.5,1.55-3.7c0.92-1.88,1.83-3.76,2.89-5.56c0.42-0.72,0.87-1.42,1.25-2.15
		c1.38-2.62,1.97-5.56,2.55-8.46"/>
	<g>
		<path class="st2" d="M105.17,115.2c2.38-0.64,4.7-0.28,7.11-0.55c2.72-0.3,5.44-0.78,8.15-1.17c-0.56-0.73-1.13-1.47-1.69-2.2
			c-1.25,2.87-3.33,5.32-4.47,8.24c-1.34,3.45-1.83,6.72-3.69,10.06c-2.19,3.94-2.99,7.21-7.77,8.99c-3.45,1.29-7.7,2.98-11.31,2.9
			c0.43,0.75,0.86,1.5,1.3,2.26c1.61-2.66,3.57-5.32,4.67-8.25c0.9-2.41,1.61-4.79,2.77-7.12c2.57-5.17,4.98-9.36,6.16-15.12
			c0.39-1.88-2.51-2.69-2.89-0.8c-1.21,5.9-4,10.47-6.55,15.81c-0.73,1.52-1.3,3.02-1.85,4.61c-1.19,3.43-3.02,6.24-4.9,9.35
			c-0.6,1,0.18,2.23,1.3,2.26c4.08,0.09,7.57-1.51,11.4-2.77c3.24-1.07,6.22-2.5,7.84-5.61c1.65-3.17,3.74-6.57,4.9-9.95
			c0.78-2.27,0.91-4.61,2.01-6.8c1.14-2.25,2.65-4.21,3.67-6.54c0.55-1.27-0.35-2.4-1.69-2.2c-2.85,0.41-5.88,1.13-8.76,1.24
			c-2.3,0.09-4.22-0.14-6.5,0.48C102.51,112.8,103.3,115.7,105.17,115.2L105.17,115.2z"/>
	</g>
</g>
<g class="st3">
	<g>
		<path class="st4" d="M76,103.42c-2.12,2.25-4.61,4.99-5.28,8.09c-0.21,0.97-0.07,2.24,0.77,2.92c0.36,0.29,0.82,0.82,1.26,0.99
			c1.8,0.72-0.46-0.74-0.15-0.89c-1.2,0.6-3.16,3.38-3.8,4.56c-0.64,1.18-0.76,2-0.39,3.31c0.17,0.59,0.36,1.09,0.71,1.59
			c0.82,1.19,0.73,1.18,1.02,0.49c0.96-0.73,1.93-1.47,2.89-2.2c0.9,1.59,1.4,1.74,1.51,0.48c0.2-0.77,0.42-1.53,0.67-2.28
			c0.49-1.51,1.08-2.97,1.69-4.43c1.34-3.18-3.83-5.19-5.48-2.31c-1.72,2.99-5.86,9.16-3.69,12.62c1.08,1.72,3.93,2.72,5.56,3.66
			c3.02,1.73,6.05,3.47,9.07,5.2c3.36,1.92,6.38-3.26,3.03-5.18c-3.02-1.73-6.05-3.47-9.07-5.2c-1.15-0.66-2.35-0.92-2.57-2.26
			c-0.22-1.37,2.21-4.69,2.85-5.81c-1.83-0.77-3.66-1.54-5.48-2.31c-1.39,3.32-6.08,14.76,1.92,13.83c1.49-0.17,2.32-0.85,2.89-2.2
			c0.83-1.97-0.47-2.74-0.76-4.42c-0.28-1.65-0.66,0.65,0.14-1.12c0.49-1.07,1.77-1.86,2.42-2.87c2.21-3.48,0.67-5.34-1.99-7.47
			c0.26,0.97,0.51,1.95,0.77,2.92c0.45-2.09,2.34-3.95,3.74-5.44C82.89,104.85,78.65,100.6,76,103.42L76,103.42z"/>
	</g>
</g>
<g class="st3">
	<g>
		<path class="st4" d="M109.39,116.04c-1.08,2.43-2.21,4.85-3.41,7.23c-0.77,1.54-2.03,5.64-3.88,5.88c-3.78,0.49-3.82,6.49,0,6
			c3.7-0.48,5.36-1.82,7.1-5.07c1.93-3.6,3.71-7.28,5.37-11.01C116.13,115.57,110.96,112.51,109.39,116.04L109.39,116.04z"/>
	</g>
</g>
<g class="st3">
	<g>
		<path class="st4" d="M87.41,101.91c5.11,2.19,10.06,4.68,14.87,7.48c3.34,1.95,6.37-3.24,3.03-5.18
			c-4.81-2.8-9.76-5.29-14.87-7.48C86.93,95.23,83.87,100.4,87.41,101.91L87.41,101.91z"/>
	</g>
</g>
<g class="st3">
	<g>
		<path class="st4" d="M86.85,113.43c2.78,1.29,6.07,2.35,8.54,4.15c-0.46-0.6-0.92-1.2-1.38-1.79c-0.16-1-0.66,1.11-0.78,1.4
			c-0.38,0.94-0.76,1.87-1.13,2.81c-0.76,1.87-1.51,3.74-2.27,5.62c-1.45,3.58,4.36,5.14,5.79,1.6c0.91-2.25,1.82-4.49,2.72-6.74
			c0.72-1.79,1.87-3.66,1.56-5.63c-0.58-3.68-7.13-5.25-10.02-6.59C86.4,106.63,83.35,111.8,86.85,113.43L86.85,113.43z"/>
	</g>
</g>
<g class="st3">
	<g>
		<path class="st4" d="M90.24,138.89c3.86,0,3.87-6,0-6C86.38,132.89,86.38,138.89,90.24,138.89L90.24,138.89z"/>
	</g>
</g>
<g class="st0">
	<path class="st1" d="M97.3,57.75c3.8-3.27,6.49-7.72,10.55-10.66c0.49-0.36,1.01-0.69,1.57-0.93c0.62-0.26,1.28-0.39,1.93-0.52
		c1.97-0.39,3.94-0.78,5.9-1.17c2.71-0.54,5.43-1.07,8.19-1.21c1.54-0.08,3.09-0.03,4.63-0.08c3.83-0.12,7.64-0.81,11.27-2.05
		c0.44-0.15,0.98-0.29,1.32,0.03c0.38,0.37,0.16,1.01-0.12,1.45c-1.46,2.26-4,3.54-5.94,5.39c-1.46,1.39-2.66,3.16-4.5,4
		c-2.01,0.92-4.34,0.53-6.56,0.56c-3.57,0.05-7,1.25-10.48,2.06c-5.96,1.39-12.18,1.65-17.99,3.56"/>
	<g>
		<path class="st2" d="M98.36,58.82c2.79-2.55,5.05-5.56,7.73-8.21c3.1-3.06,5.98-3.58,10.09-4.39c7.43-1.47,15.08-0.88,22.42-2.71
			c1.06-0.27,2.11-0.58,3.15-0.93c-1.11,0.34-2.09,0.9-2.93,1.69c-1.14,0.78-2.28,1.74-3.29,2.68c-2.58,2.38-4.63,3.73-8.32,4.15
			c-1.26,0.14-2.57-0.01-3.85,0.14c-4.17,0.48-8.18,1.92-12.31,2.67c-4.84,0.87-9.67,1.43-14.39,2.84c-1.84,0.55-1.06,3.45,0.8,2.89
			c5.89-1.77,12.02-2.19,17.99-3.56c3.35-0.77,6.61-1.87,10.08-2.01c2.34-0.09,4.72,0.32,6.96-0.62c1.69-0.71,2.83-2.04,4.1-3.29
			c1.65-1.63,3.6-2.89,5.25-4.5c1.28-1.25,3.82-3.92,1.73-5.68c-0.68-0.58-1.48-0.46-2.27-0.38c-2.71,0.27-5.38,1.52-8.15,1.83
			c-5.21,0.59-10.29,0.43-15.48,1.43c-3.6,0.69-7.66,0.9-10.74,3.04c-4.16,2.9-6.98,7.38-10.7,10.78
			C94.81,58,96.94,60.12,98.36,58.82L98.36,58.82z"/>
	</g>
</g>
<g class="st0">
	<path class="st1" d="M98,61.22c1.88,8.72,3.77,17.44,5.65,26.15c0.22,1.02,0.52,2.15,1.42,2.67c0.71,0.41,1.59,0.32,2.4,0.21
		c9.52-1.26,19.07-2.52,28.39-4.87c0.66-0.17,1.35-0.36,1.83-0.84c0.98-0.99,0.59-2.63,0.21-3.97c-2.05-7.13-2.2-14.65-3.48-21.95
		c-0.23-1.34-0.52-2.7-1.2-3.87c-0.69-1.17-1.86-2.14-3.21-2.24c-0.52-0.04-1.04,0.05-1.56,0.13c-9.75,1.63-19.49,3.25-29.24,4.88
		c-0.83,0.14-1.79,0.36-2.16,1.12c-0.52,1.05,0.45,2.2,1.34,2.97"/>
	<g>
		<path class="st2" d="M96.56,61.62c1.75,8.09,3.44,16.2,5.25,24.29c1.36,6.09,3.54,6.14,9.48,5.34c7.73-1.04,15.53-2.09,23.11-3.96
			c5.58-1.38,5.7-3.64,4.48-8.91c-1.69-7.27-0.97-15.81-3.64-22.8c-2.06-5.39-6.3-4.53-11.07-3.73c-8.22,1.37-17.36,1.86-25.34,4.23
			c-3.77,1.12-4.2,3.82-1.48,6.6c1.35,1.38,3.47-0.74,2.12-2.12c-1.91-1.96,5.33-2.45,6.01-2.56c2.6-0.43,5.2-0.87,7.8-1.3
			c4.16-0.69,9.52-2.67,13.65-2.28c7.93,0.76,6.76,9.61,7.47,15.25c0.25,1.97,0.5,3.94,0.85,5.9c0.4,2.22,1.68,4.76,0.73,6.89
			c-1.07,2.41-3.55,2.24-6.11,2.77c-2.51,0.52-5.03,0.98-7.55,1.4c-1.9,0.31-3.8,0.6-5.7,0.88c-2.43,0.35-6.94,1.98-9.12,1.24
			c-3.82-1.28-4.03-9.46-4.79-12.98c-1.08-4.98-2.15-9.96-3.23-14.95C99.04,58.93,96.15,59.73,96.56,61.62L96.56,61.62z"/>
	</g>
</g>
<g class="st0">
	<path class="st1" d="M132.17,53.21c0.73-0.96,1.49-1.94,2.52-2.56c0.44-0.27,0.93-0.46,1.37-0.73c0.58-0.35,1.07-0.83,1.56-1.3
		c1.98-1.9,3.95-3.81,5.93-5.71c0.94,3.37,0.28,7.07,1.52,10.34c0.36,0.96,0.88,1.84,1.27,2.79c1.31,3.19,1.06,6.79,1.81,10.15
		c0.27,1.2,0.66,2.39,0.59,3.62c-0.07,1.08-0.51,2.11-1,3.08c-0.67,1.32-1.46,2.59-2.38,3.75c-0.69,0.87-1.46,1.69-2.07,2.63
		c-0.59,0.91-1.03,1.93-1.7,2.79c-0.84,1.08-2,1.86-3.14,2.62c-0.15-1.93-0.3-3.85-0.46-5.78c-0.09-1.16-0.19-2.34-0.52-3.46
		c-0.22-0.72-0.54-1.41-0.79-2.12c-0.44-1.26-0.67-2.59-0.9-3.91c-0.35-2.06-0.71-4.12-0.9-6.2c-0.07-0.83-0.12-1.66-0.24-2.48
		c-0.41-2.93-1.64-5.66-2.87-8.36"/>
	<g>
		<path class="st2" d="M133.23,54.27c1.45-1.85,3.33-2.78,5.08-4.25c2.21-1.86,4.22-4.05,6.31-6.06c-0.84-0.22-1.67-0.44-2.51-0.66
			c0.71,3.44,0.45,6.98,1.52,10.34c1.13,3.53,2.1,6.21,2.62,9.98c0.54,3.89,1.01,7.66-1.3,11.06c-2,2.94-4.35,6.71-7.24,8.69
			c0.75,0.43,1.5,0.86,2.26,1.3c-0.25-3.17-0.17-6.55-1.03-9.63c-0.64-2.31-1.41-4.41-1.82-6.81c-1.01-5.95-1.51-11.02-4.02-16.62
			c-0.79-1.76-3.38-0.23-2.59,1.51c2.37,5.27,2.77,10.32,3.72,15.91c0.9,5.33,2.31,10.17,2.75,15.64c0.08,1.04,1.24,1.99,2.26,1.3
			c3.25-2.23,4.87-5.14,7.21-8.27c1.94-2.61,3.87-5.44,3.74-8.8c-0.16-3.83-0.88-8.76-2.1-12.44c-0.77-2.31-1.82-4.35-2.19-6.8
			c-0.35-2.39-0.38-4.76-0.87-7.14c-0.24-1.14-1.74-1.4-2.51-0.66c-2.14,2.06-4.2,4.44-6.56,6.24c-1.81,1.39-3.38,2.22-4.82,4.07
			C129.93,53.65,132.03,55.78,133.23,54.27L133.23,54.27z"/>
	</g>
</g>
<g class="st3">
	<g>
		<path class="st4" d="M102.74,62.1c-0.43,3.22-0.62,6.61,0.7,9.64c0.42,0.97,1.62,1.43,2.59,1.49c0.42,0.02,1.48-0.22,1.9-0.1
			c-0.6-0.46-1.2-0.92-1.79-1.38c1.6,2.15-0.97,5.98,0.37,8.52c1.12,2.13,3.3,1.52,4.93,2.68c-0.46-0.6-0.92-1.2-1.38-1.79
			c0.06,0.24,0.11,0.49,0.17,0.73c0.1-0.77,0.2-1.54,0.3-2.31c-0.13,0.16-0.25,0.33-0.38,0.49c0.6-0.46,1.2-0.92,1.79-1.38
			c1.56-0.41-0.74-5.95-1-7.11c-0.73-3.24-6.22-2.61-5.89,0.8c0.33,3.43,0.38,10.87,4.08,12.57c2.01,0.93,5.18,0,7.24-0.21
			c3.28-0.34,6.56-0.68,9.83-1.02c3.8-0.39,3.84-6.4,0-6c-5.03,0.52-10.89,1.97-15.92,1.49c0.71,0.29,1.41,0.59,2.12,0.88
			c0.67,0.74-0.41-2.15-0.5-2.55c-0.39-1.71-0.69-3.41-0.86-5.16c-1.96,0.27-3.93,0.53-5.89,0.8c0.82,3.6,2.52,13.51,8.39,11.3
			c1.98-0.75,3.08-2.88,2.3-4.92c-0.39-1.02-1.1-1.77-2.07-2.29c-0.54-0.28-2.23-0.31-2.55-0.64c0.29,0.71,0.59,1.41,0.88,2.12
			c-0.21-2.96,1.23-6.39-0.16-9.21c-1.34-2.72-3.47-2.2-5.9-2.33c0.86,0.5,1.73,0.99,2.59,1.49c-0.74-1.71-0.11-4.83,0.12-6.61
			C109.25,58.29,103.24,58.32,102.74,62.1L102.74,62.1z"/>
	</g>
</g>
<g class="st3">
	<g>
		<path class="st4" d="M137.35,52.88c0.56,2.71,1.07,5.44,1.5,8.17c0.36,2.25,1.55,4.82-0.23,6.52c-2.8,2.67,1.45,6.91,4.24,4.24
			c2.5-2.39,2.86-4.52,2.42-7.85c-0.56-4.26-1.28-8.48-2.15-12.69C142.35,47.51,136.57,49.11,137.35,52.88L137.35,52.88z"/>
	</g>
</g>
<g class="st3">
	<g>
		<path class="st4" d="M111.68,53.64c5.17-1.15,10.37-1.99,15.64-2.5c3.81-0.37,3.85-6.37,0-6c-5.8,0.56-11.55,1.46-17.24,2.72
			C106.32,48.69,107.91,54.47,111.68,53.64L111.68,53.64z"/>
	</g>
</g>
<g class="st3">
	<g>
		<path class="st4" d="M117.95,63.32c1.58-0.3,3.15-0.6,4.73-0.9c0.89-0.17,1.98-0.26,2.84-0.54c0.32-0.06,0.63-0.12,0.95-0.18
			c-1.77-1.47-2.45-1.64-2.03-0.48c-0.17,1.31,0.86,3.52,1.18,4.81c0.43,1.77,0.86,3.53,1.29,5.3c0.92,3.75,6.7,2.16,5.79-1.6
			c-0.63-2.57-1.25-5.14-1.88-7.7c-0.45-1.83-0.64-4.05-2.16-5.34c-1.45-1.22-3.01-0.91-4.72-0.6c-2.52,0.46-5.04,0.96-7.56,1.44
			C112.56,58.25,114.17,64.04,117.95,63.32L117.95,63.32z"/>
	</g>
</g>
<g class="st3">
	<g>
		<path class="st4" d="M133.3,82.66c3.86,0,3.87-6,0-6C129.44,76.66,129.43,82.66,133.3,82.66L133.3,82.66z"/>
	</g>
</g>
<g class="st0">
	<path class="st1" d="M83.64,164.38c3.45-3.63,5.69-8.33,9.44-11.66c0.46-0.41,0.94-0.79,1.47-1.08c0.59-0.32,1.23-0.51,1.87-0.71
		c1.92-0.58,3.84-1.17,5.76-1.75c2.64-0.8,5.3-1.61,8.03-2.02c1.53-0.23,3.07-0.34,4.6-0.54c3.8-0.5,7.53-1.57,11.01-3.16
		c0.42-0.19,0.95-0.38,1.31-0.1c0.41,0.33,0.26,0.98,0.02,1.45c-1.23,2.39-3.62,3.92-5.38,5.96c-1.32,1.53-2.34,3.41-4.08,4.43
		c-1.91,1.12-4.27,0.96-6.47,1.21c-3.54,0.41-6.84,1.94-10.22,3.09c-5.79,1.97-11.96,2.86-17.55,5.34"/>
	<g>
		<path class="st2" d="M84.7,165.44c2.4-2.68,4.29-5.7,6.54-8.49c2.87-3.58,5.61-4.58,9.9-5.89c7.24-2.2,14.94-2.37,22.04-4.92
			c2.24-0.81,1.96-1.03,0.89,0.24c-1,1.19-2.28,2.2-3.36,3.32c-2.45,2.55-4.02,4.64-7.82,5.06c-1.3,0.15-2.53,0.21-3.82,0.48
			c-4.1,0.85-7.96,2.73-11.98,3.88c-4.73,1.35-9.48,2.38-14.04,4.26c-1.76,0.73-0.99,3.63,0.8,2.89c5.69-2.34,11.74-3.38,17.55-5.34
			c2.81-0.95,5.55-2.21,8.47-2.8c2.73-0.55,5.67-0.2,8.22-1.5c1.28-0.65,2.17-1.64,3.1-2.71c1.77-2.05,3.68-3.89,5.48-5.91
			c1.19-1.34,3.47-4.2,1.38-5.85c-2.28-1.8-7.34,1.69-9.6,2.24c-5.3,1.28-10.6,1.51-15.87,3.08c-3.41,1.02-7.35,1.64-10.21,3.87
			c-4.03,3.15-6.42,8.19-9.79,11.95C81.3,164.75,83.41,166.88,84.7,165.44L84.7,165.44z"/>
	</g>
</g>
<g class="st0">
	<path class="st1" d="M84.69,167.75c2.74,8.49,5.48,16.97,8.22,25.46c0.32,0.99,0.73,2.09,1.68,2.51c0.75,0.34,1.61,0.16,2.41-0.03
		c9.35-2.2,18.73-4.4,27.76-7.67c0.64-0.23,1.31-0.49,1.74-1.02c0.87-1.09,0.33-2.68-0.19-3.97c-2.75-6.89-3.65-14.36-5.65-21.5
		c-0.37-1.31-0.78-2.63-1.58-3.73c-0.8-1.1-2.06-1.94-3.42-1.91c-0.52,0.01-1.03,0.15-1.54,0.29c-9.54,2.59-19.07,5.18-28.61,7.77
		c-0.82,0.22-1.74,0.54-2.04,1.33c-0.41,1.1,0.67,2.14,1.63,2.82"/>
	<g>
		<path class="st2" d="M83.24,168.15c2.55,7.88,5.04,15.78,7.64,23.64c1.67,5.04,3.19,6.09,8.39,4.91
			c8.09-1.83,16.26-3.81,24.08-6.59c5.31-1.89,5.54-3.98,3.76-9.21c-2.43-7.15-2.64-15.52-5.89-22.33c-2.51-5.26-6.53-4.1-11.3-2.8
			c-8.12,2.2-16.93,3.74-24.8,6.73c-3.6,1.37-4.09,4.13-1.07,6.66c1.47,1.23,3.6-0.88,2.12-2.12c-2.37-1.99,4.63-2.97,5.47-3.2
			c2.54-0.69,5.09-1.38,7.63-2.07c4.18-1.13,9.04-3.34,13.35-3.62c2.42-1.18,4.48-0.35,6.2,2.48c0.33,1.02,0.62,2.05,0.87,3.1
			c0.63,2.4,1.12,4.82,1.66,7.24c0.54,2.41,1.07,4.83,1.75,7.21c0.61,2.14,2.15,4.61,1.51,6.84c0.23,1.51-0.45,2.24-2.06,2.21
			c-1.21,0.42-2.43,0.82-3.65,1.2c-2.44,0.77-4.9,1.48-7.38,2.15c-4.14,1.12-9.71,3.54-13.99,3.46c-4.6-0.08-5.48-8.35-6.7-12.13
			c-1.57-4.85-3.13-9.7-4.7-14.55C85.54,165.52,82.64,166.31,83.24,168.15L83.24,168.15z"/>
	</g>
</g>
<g class="st0">
	<path class="st1" d="M117.88,156.38c0.63-1.03,1.29-2.08,2.25-2.8c0.42-0.31,0.88-0.55,1.29-0.87c0.54-0.41,0.99-0.93,1.43-1.45
		c1.78-2.09,3.56-4.18,5.33-6.27c1.27,3.26,0.98,7.01,2.54,10.14c0.46,0.91,1.06,1.75,1.54,2.65c1.62,3.04,1.73,6.65,2.81,9.92
		c0.38,1.16,0.9,2.31,0.94,3.54c0.04,1.09-0.29,2.15-0.69,3.16c-0.54,1.38-1.19,2.72-1.99,3.97c-0.6,0.94-1.28,1.83-1.79,2.82
		c-0.5,0.97-0.83,2.02-1.41,2.94c-0.73,1.16-1.81,2.05-2.86,2.92c-0.34-1.9-0.69-3.8-1.03-5.7c-0.21-1.15-0.42-2.31-0.87-3.39
		c-0.29-0.7-0.67-1.35-1-2.03c-0.57-1.21-0.93-2.51-1.29-3.8c-0.56-2.01-1.11-4.03-1.51-6.08c-0.16-0.82-0.29-1.64-0.48-2.44
		c-0.7-2.87-2.2-5.47-3.68-8.03"/>
	<g>
		<path class="st2" d="M119.18,157.14c1.21-1.91,3.21-3.16,4.74-4.82c1.86-2.01,3.56-4.19,5.33-6.27c-0.84-0.22-1.67-0.44-2.51-0.66
			c0.92,2.86,0.99,5.93,1.98,8.76c1.18,3.38,3.09,6.15,3.89,9.75c1.06,4.74,2.58,8.33-0.18,13.08c-1.83,3.15-3.41,6.65-6.21,9.02
			c0.84,0.22,1.67,0.44,2.51,0.66c-0.55-3.07-0.86-6.33-1.97-9.27c-0.92-2.43-1.94-4.65-2.62-7.17c-1.49-5.56-2.51-10.34-5.41-15.4
			c-0.96-1.67-3.55-0.16-2.59,1.51c3.02,5.25,3.9,10.48,5.52,16.19c0.46,1.61,1.05,3.12,1.69,4.67c1.38,3.34,1.84,6.71,2.48,10.26
			c0.22,1.21,1.73,1.32,2.51,0.66c2.95-2.48,4.35-5.72,6.3-8.98c1.7-2.82,3.19-5.85,2.66-9.19c-0.61-3.83-1.78-8.59-3.39-12.14
			c-1.02-2.24-2.33-4.17-2.85-6.62c-0.47-2.22-0.73-4.42-1.43-6.59c-0.32-0.99-1.74-1.57-2.51-0.66c-1.96,2.31-3.79,4.98-6.01,7.04
			c-1.77,1.64-3.2,2.57-4.53,4.66C115.55,157.26,118.14,158.76,119.18,157.14L119.18,157.14z"/>
	</g>
</g>
<g class="st3">
	<g>
		<path class="st4" d="M89.47,167.86c-0.1,3.13-0.06,6.77,1.5,9.57c0.49,0.89,1.56,1.53,2.59,1.49c1.26-0.06,2.09-0.33,3.23-0.84
			c-0.77,0.1-1.54,0.2-2.31,0.3c-0.36-0.07-0.26,6.11,0.39,7.24c0.63,1.09,4.66,3.36,3.93,1.21c0.26-0.97,0.51-1.95,0.77-2.92
			c0.61-0.09,1.22-0.17,1.82-0.26c-0.43-0.82-0.83-1.65-1.18-2.51c-0.58-1.34-1.07-2.69-1.54-4.07c-1.24-3.67-6.54-2.19-5.79,1.6
			c0.63,3.2,1.52,10.45,5.3,11.65c2.12,0.68,5.34-0.61,7.35-1.02c3.31-0.68,6.62-1.36,9.93-2.04c3.78-0.78,2.18-6.56-1.6-5.79
			c-3.84,0.79-7.8,1.38-11.59,2.38c-2.68,0.71-0.91,0.77-2.06-0.95c-0.98-1.46-1.22-4.14-1.56-5.83c-1.93,0.53-3.86,1.06-5.79,1.6
			c1.26,3.74,5.33,15.71,10.93,9.49c0.69-0.77,1.12-1.88,0.77-2.92c-0.61-1.83-1.4-2.41-3.08-3.23c-0.43-0.06-0.87-0.12-1.3-0.18
			c-0.56,0-0.53-0.09,0.06-0.26c-0.42-0.85,0.05-3.13-0.07-4.15c-0.52-4.34-3.15-4.65-6.65-4.49c0.86,0.5,1.73,0.99,2.59,1.49
			c-1.01-1.82-0.75-4.53-0.69-6.54C95.6,164,89.6,164.01,89.47,167.86L89.47,167.86z"/>
	</g>
</g>
<g class="st3">
	<g>
		<path class="st4" d="M122.91,155.26c0.75,2.4,1.47,4.82,2.12,7.25c0.47,1.77,2.24,5.75,0.91,7.31c-2.5,2.92,1.73,7.18,4.24,4.24
			c2.31-2.7,2.64-4.87,1.86-8.26c-0.94-4.09-2.08-8.14-3.34-12.14C127.55,149.99,121.75,151.56,122.91,155.26L122.91,155.26z"/>
	</g>
</g>
<g class="st3">
	<g>
		<path class="st4" d="M97.26,158.94c5.28-1.74,10.64-3.15,16.1-4.23c3.78-0.75,2.18-6.54-1.6-5.79c-5.46,1.08-10.82,2.49-16.1,4.23
			C92.01,154.36,93.57,160.16,97.26,158.94L97.26,158.94z"/>
	</g>
</g>
<g class="st3">
	<g>
		<path class="st4" d="M104.45,167.95c2.63-0.78,5.62-2.18,8.36-2.43c-0.71-0.29-1.41-0.59-2.12-0.88c0.98,0.81,1.42,3.69,1.84,4.87
			c0.6,1.71,1.21,3.43,1.81,5.14c1.28,3.62,7.07,2.06,5.79-1.6c-0.77-2.18-1.54-4.36-2.31-6.54c-0.63-1.77-1.1-4.25-2.38-5.7
			c-1.49-1.67-3.37-1.3-5.31-0.8c-2.44,0.63-4.85,1.44-7.27,2.15C99.17,163.26,100.74,169.05,104.45,167.95L104.45,167.95z"/>
	</g>
</g>
<g class="st3">
	<g>
		<path class="st4" d="M121.64,185.6c3.86,0,3.87-6,0-6C117.78,179.6,117.78,185.6,121.64,185.6L121.64,185.6z"/>
	</g>
</g>
</svg>
