<?xml version="1.0" encoding="utf-8"?>
<!-- Generator: Adobe Illustrator 23.0.1, SVG Export Plug-In . SVG Version: 6.00 Build 0)  -->
<svg version="1.1" xmlns="http://www.w3.org/2000/svg" xmlns:xlink="http://www.w3.org/1999/xlink" x="0px" y="0px"
	 viewBox="0 0 200 200" style="enable-background:new 0 0 200 200;" xml:space="preserve">
<style type="text/css">
	.st0{fill:#4D4D4D;}
	.st1{fill:#FFF3FB;}
	.st2{display:none;}
	.st3{display:inline;}
	.st4{fill:#72C0FF;}
	.st5{fill:#FFFEDD;}
	.st6{fill:none;}
	.st7{font-family:'Jumble';}
	.st8{font-size:21px;}
	.st9{display:inline;fill:none;}
	.st10{display:inline;fill:#B16300;stroke:#603813;stroke-miterlimit:10;}
	.st11{display:inline;opacity:0.56;fill:none;stroke:#F7931E;stroke-miterlimit:10;}
	.st12{fill:#3A1700;stroke:#42210B;stroke-miterlimit:10;}
	.st13{fill:#FFF4B1;stroke:#42210B;stroke-miterlimit:10;}
	.st14{fill:#FBFFE5;stroke:#42210B;stroke-miterlimit:10;}
	.st15{fill:none;stroke:#42210B;stroke-miterlimit:10;}
	.st16{opacity:0.17;fill:#120400;}
</style>
<g id="Layer_5">
	<g>
		<path class="st0" d="M167.48,21c1,0,1.61,0.55,1.89,0.88c0.28,0.33,0.71,1.03,0.54,2.02L162.66,65H39.34l-7.25-41.1
			c-0.17-0.99,0.26-1.69,0.54-2.02C32.9,21.55,33.52,21,34.52,21H167.48 M167.48,18H34.52c-3.4,0-5.98,3.07-5.39,6.42L36.82,68
			h128.35l7.69-43.58C173.46,21.07,170.88,18,167.48,18L167.48,18z"/>
	</g>
	<g>
		<path class="st1" d="M66.38,187.5c-4.12,0-7.61-2.95-8.31-7.01L38.6,66.5h124.8l-19.47,113.99c-0.69,4.06-4.19,7.01-8.31,7.01
			H66.38z"/>
		<path class="st0" d="M161.62,68l-19.17,112.24c-0.57,3.34-3.44,5.76-6.83,5.76H66.38c-3.39,0-6.26-2.42-6.83-5.76L40.38,68H161.62
			 M165.18,65H36.82l19.77,115.74c0.81,4.77,4.95,8.26,9.79,8.26h69.25c4.84,0,8.97-3.49,9.79-8.26L165.18,65L165.18,65z"/>
	</g>
</g>
<g id="water" class="st2">
	<g class="st3">
		<path class="st0" d="M167.48,21c1,0,1.61,0.55,1.89,0.88c0.28,0.33,0.71,1.03,0.54,2.02L162.66,65H39.34l-7.25-41.1
			c-0.17-0.99,0.26-1.69,0.54-2.02C32.9,21.55,33.52,21,34.52,21H167.48 M167.48,18H34.52c-3.4,0-5.98,3.07-5.39,6.42L36.82,68
			h128.35l7.69-43.58C173.46,21.07,170.88,18,167.48,18L167.48,18z"/>
	</g>
	<g class="st3">
		<path class="st4" d="M63.74,186.5c-3.09,0-5.71-2.21-6.25-5.24L37.42,67.5h127.16l-20.12,113.99c-0.51,2.9-3.02,5.01-5.97,5.01
			H63.74z"/>
		<path class="st0" d="M163.98,68l-20.01,113.41c-0.47,2.66-2.77,4.59-5.47,4.59H63.74c-2.84,0-5.26-2.03-5.76-4.83L38.02,68H163.98
			 M165.18,67H36.82L57,181.34c0.58,3.27,3.42,5.66,6.74,5.66h74.75c3.18,0,5.91-2.28,6.46-5.42L165.18,67L165.18,67z"/>
	</g>
	<g class="st3">
		<path class="st0" d="M161.62,68l-19.17,112.24c-0.57,3.34-3.44,5.76-6.83,5.76H66.38c-3.39,0-6.26-2.42-6.83-5.76L40.38,68H161.62
			 M165.18,65H36.82l19.77,115.74c0.81,4.77,4.95,8.26,9.79,8.26h69.25c4.84,0,8.97-3.49,9.79-8.26L165.18,65L165.18,65z"/>
	</g>
</g>
<g id="milk">
	<g>
		<path class="st5" d="M66.38,187.5c-4.12,0-7.61-2.95-8.31-7.01L38.78,66.5H163.4l-19.47,113.99c-0.69,4.06-4.19,7.01-8.31,7.01
			H66.38z"/>
		<path class="st0" d="M161.62,68l-19.17,112.24c-0.57,3.34-3.44,5.76-6.83,5.76H66.38c-3.39,0-6.26-2.42-6.83-5.76L40.55,68H161.62
			 M165.18,65H37l19.59,115.74c0.81,4.77,4.95,8.26,9.79,8.26h69.25c4.84,0,8.97-3.49,9.79-8.26L165.18,65L165.18,65z"/>
	</g>
	<rect x="74.25" y="82.12" class="st6" width="62.75" height="16.88"/>
	<text transform="matrix(1 0 0 1 74.2544 98.0415)" class="st0 st7 st8">MILK</text>
	<g>
		<path class="st0" d="M167.48,21c1,0,1.61,0.55,1.89,0.88c0.28,0.33,0.71,1.03,0.54,2.02L162.66,65H39.34l-7.25-41.1
			c-0.17-0.99,0.26-1.69,0.54-2.02C32.9,21.55,33.52,21,34.52,21H167.48 M167.48,18H34.52c-3.4,0-5.98,3.07-5.39,6.42L36.82,68
			h128.35l7.69-43.58C173.46,21.07,170.88,18,167.48,18L167.48,18z"/>
	</g>
</g>
<g id="almond_milk" class="st2">
	<rect x="74.25" y="82.12" class="st9" width="62.75" height="16.88"/>
	<text transform="matrix(1 0 0 1 74.2544 98.0415)" class="st3 st7 st8">MILK</text>
	<path class="st10" d="M135.5,155.5c1,7-20.4,19-32,19s-21-6.72-21-15s7.4-18,19-18C106.5,141.5,133.77,143.42,135.5,155.5z"/>
	<path class="st11" d="M91.5,153.5c0-4.42,8.05-8,18-8"/>
	<path class="st11" d="M90.5,163.5c0,3.87,8.5,7,19,7"/>
	<path class="st11" d="M98.5,157.5c0-1.66,12.97-3,29-3"/>
	<path class="st11" d="M96.5,161.5c0,2.21,10.29,4,23,4"/>
	<path class="st11" d="M115.5,160.5c0,0.55,5.81,1,13,1"/>
	<path class="st11" d="M103.5,150.5c0-3.32,16.37-1,23-1"/>
	<path class="st10" d="M111.37,123.27c5.96,3.8,1.13,27.86-6.42,36.66c-7.55,8.8-18.77,11.56-25.06,6.17
		c-6.29-5.4-8.84-17.34-1.29-26.14C81.86,136.16,101.07,116.72,111.37,123.27z"/>
	<path class="st11" d="M81.19,155.36c-3.36-2.88-0.83-11.32,5.65-18.87"/>
	<path class="st11" d="M88.13,162.63c2.94,2.52,10.85-1.89,17.69-9.86"/>
	<path class="st11" d="M88.79,152.66c-1.26-1.08,6.17-11.8,16.61-23.96"/>
	<path class="st11" d="M90.52,156.78c1.68,1.44,9.73-5.2,18.01-14.85"/>
	<path class="st11" d="M102.14,141.71c0.42,0.36,4.55-3.76,9.23-9.21"/>
	<path class="st11" d="M86.73,144.3c-2.52-2.16,9.9-13.07,14.22-18.11"/>
</g>
<g id="coconut_milk" class="st2">
	<rect x="74.25" y="82.12" class="st9" width="62.75" height="16.88"/>
	<text transform="matrix(1 0 0 1 74.2544 98.0415)" class="st3 st7 st8">MILK</text>
	<g class="st3">
		<path class="st12" d="M124.9,128.48c2.71,4.38,6.1,12.76,6.1,18.3c0,15.89-12.87,28.76-28.76,28.76s-28.76-12.87-28.76-28.76
			c0-0.42,0.01-0.83,0.03-1.24"/>
		<path class="st13" d="M105.01,155.21c-14.54,4.51-28.52,1.09-31.23-7.64c-0.12-0.37-0.22-0.76-0.28-1.15
			c-0.51-2.71,0.1-5.57,1.61-8.35c3.22-5.95,10.59-11.54,20.07-14.49c8.01-2.49,15.84-2.57,21.73-0.67
			c4.78,1.53,8.27,4.38,9.49,8.31c0.14,0.44,0.24,0.89,0.31,1.33C128.15,141.02,118.81,150.93,105.01,155.21z"/>
		
			<ellipse transform="matrix(0.955 -0.2967 0.2967 0.955 -36.8321 36.0917)" class="st14" cx="100.5" cy="139.41" rx="19.99" ry="10.89"/>
		<path class="st15" d="M75.12,138.07c3.22-5.95,10.59-11.54,20.07-14.49c8.01-2.49,15.84-2.57,21.73-0.67"/>
		<path class="st16" d="M103.51,127.66c5.7,5.19,7.44,5.19,7.44,9.54c0,3.59-6.1,12.2-6.97,12.2c-0.87,0,7.61-1.57,9.91-4.71
			c2.3-3.14,6.15-5.95,5.97-9.77c-0.18-3.82-2.32-4.68-3.87-5.56s-5.48-2.04-7.44-1.89C106.6,127.61,103.51,127.66,103.51,127.66z"
			/>
	</g>
</g>
</svg>
