<?xml version="1.0" encoding="utf-8"?>
<!-- Generator: Adobe Illustrator 23.0.1, SVG Export Plug-In . SVG Version: 6.00 Build 0)  -->
<svg version="1.1" id="water" xmlns="http://www.w3.org/2000/svg" xmlns:xlink="http://www.w3.org/1999/xlink" x="0px" y="0px"
	 viewBox="0 0 200 200" style="enable-background:new 0 0 200 200;" xml:space="preserve">
<style type="text/css">
	.st0{fill:#4D4D4D;}
	.st1{fill:#72C0FF;}
</style>
<g>
	<path class="st0" d="M167.48,21c1,0,1.61,0.55,1.89,0.88c0.28,0.33,0.71,1.03,0.54,2.02L162.66,65H39.34l-7.25-41.1
		c-0.17-0.99,0.26-1.69,0.54-2.02C32.9,21.55,33.52,21,34.52,21H167.48 M167.48,18H34.52c-3.4,0-5.98,3.07-5.39,6.42L36.82,68
		h128.35l7.69-43.58C173.46,21.07,170.88,18,167.48,18L167.48,18z"/>
</g>
<g>
	<path class="st1" d="M63.74,186.5c-3.09,0-5.71-2.21-6.25-5.24L37.42,67.5h127.16l-20.12,113.99c-0.51,2.9-3.02,5.01-5.97,5.01
		H63.74z"/>
	<path d="M163.98,68l-20.01,113.41c-0.47,2.66-2.77,4.59-5.47,4.59H63.74c-2.84,0-5.26-2.03-5.76-4.83L38.02,68H163.98 M165.18,67
		H36.82L57,181.34c0.58,3.27,3.42,5.66,6.74,5.66h74.75c3.18,0,5.91-2.28,6.46-5.42L165.18,67L165.18,67z"/>
</g>
<g>
	<path class="st1" d="M66.38,187.5c-4.12,0-7.61-2.95-8.31-7.01L38.6,66.5h124.8l-19.47,113.99c-0.69,4.06-4.19,7.01-8.31,7.01
		H66.38z"/>
	<path class="st0" d="M161.62,68l-19.17,112.24c-0.57,3.34-3.44,5.76-6.83,5.76H66.38c-3.39,0-6.26-2.42-6.83-5.76L40.38,68H161.62
		 M165.18,65H36.82l19.77,115.74c0.81,4.77,4.95,8.26,9.79,8.26h69.25c4.84,0,8.97-3.49,9.79-8.26L165.18,65L165.18,65z"/>
</g>
</svg>
