<?xml version="1.0" encoding="utf-8"?>
<!-- Generator: Adobe Illustrator 23.0.1, SVG Export Plug-In . SVG Version: 6.00 Build 0)  -->
<svg version="1.1" xmlns="http://www.w3.org/2000/svg" xmlns:xlink="http://www.w3.org/1999/xlink" x="0px" y="0px"
	 viewBox="0 0 1366 768" style="enable-background:new 0 0 1366 768;" xml:space="preserve">
<style type="text/css">
	.st0{fill:#F55260;}
	.st1{fill:none;stroke:#42210B;stroke-width:0.5;stroke-miterlimit:10;}
	.st2{fill:#F6FFF0;stroke:#42210B;stroke-width:0.5;stroke-miterlimit:10;}
	.st3{fill:none;stroke:#FFFFFF;stroke-width:0.5;stroke-miterlimit:10;}
	.st4{fill:#F6FFF0;stroke:#FFFFFF;stroke-width:0.5;stroke-miterlimit:10;}
	.st5{fill:none;stroke:#ED1E79;stroke-width:0.75;stroke-miterlimit:10;}
	.st6{fill:#FFFFFF;}
</style>
<g id="Layer_1">
	<g>
		<path class="st0" d="M520.21,415.49c-2.19,3.74-3.78,8.53-4.75,13.37c0.17,7.92,3.1,10.23,6.03,10.23c2.48,0,4.7-1.25,6.6-3.1
			c-0.44-2.82-0.65-5.82-0.65-8.51c0-2.61,0.44-5.99,1.15-9.48c-0.03-0.69-0.04-1.36-0.04-2.02c0-1.69,0.18-3.7,0.5-5.85
			C526.55,412.37,523.34,414.25,520.21,415.49z"/>
		<path class="st0" d="M911.97,361.79c-2.19,0-4.54,1.56-6.72,9.21L900,387.19c11.57-5.31,19.93-12.28,23.6-19.35
			C921.67,364.29,917.06,361.79,911.97,361.79z"/>
		<path class="st0" d="M464.03,393.72c0.15-0.29,0.31-0.57,0.48-0.86c-0.33,0.15-0.65,0.31-0.97,0.49
			C463.71,393.47,463.87,393.59,464.03,393.72z"/>
		<path class="st0" d="M769.53,408.99c-0.59-0.97-1.43-1.49-2.43-1.49c-1.38,0-3.51,2.06-5.28,6.2
			C765.67,412.71,768.07,411.02,769.53,408.99z"/>
		<path class="st0" d="M462.1,405.06c-7.16,4.18-13.34,15.37-15.83,26.2c0.46,6.64,3.35,8.7,5.81,8.7c4.65,0,8.82-8.25,11.55-18.51
			c-1.75-1.37-2.91-4.23-2.91-7.7c0-2.25,0.46-4.85,1.69-7.51C462.28,405.87,462.18,405.47,462.1,405.06z"/>
		<path class="st0" d="M0,220v347h1366V220H0z M729.39,336.04c6.72,0,14.29,7.65,14.29,13.03c0,1.93-0.69,4.42-2.22,7.55
			c0.7,1.36,1.11,2.72,1.11,3.95c0,4.17-3.19,10.95-11.26,21.2c-6.56,0-11.26-5.04-11.26-15.12c0-5.11,0.38-9.01,1.12-11.93
			C721.22,340.99,724.07,336.04,729.39,336.04z M306.93,364.05c0,6.78-3.53,12.34-7.23,14.25c-8.91-7.65-15.13-11.12-21.35-11.12
			c-1.85,0-3.52,0.82-4.74,2.27c1.44,4.8,4.88,11.08,11.74,20.98c14.12,20.68,16.47,27.98,16.47,38.23c0,2.95-0.4,5.99-1.17,9.02
			c0.04,0.82,0.06,1.64,0.06,2.49c0,19.64-17.48,43.1-45.71,43.1c-25.88,0-38.99-15.81-38.99-34.93c0-3.11,0.4-6.35,1.17-9.47
			c-0.03-0.67-0.05-1.35-0.05-2.03c0-12.69,6.55-27.46,18.32-27.46c2.86,0,5.38,0.87,6.89,2.78v3.3c0,23.63,10.42,34.06,21.68,34.06
			c4.34,0,8.06-2.82,9.99-7.4c-0.9-4.74-4.25-11.14-16.32-26.97c-8.91-11.82-11.76-21.55-11.76-32.32c0-3.17,0.4-6.38,1.15-9.53
			c-0.02-0.65-0.03-1.31-0.03-1.97c0-19.29,14.45-39.97,35.63-39.97c18.15,0,25.38,10.77,25.38,21.2c0,2.72-0.58,5.24-1.5,7.41
			C306.8,361.31,306.93,362.69,306.93,364.05z M808.27,431.13c0,12.86-28.07,40.49-49.92,40.49c-12.94,0-20.35-6.56-22.95-18.46
			c-9.04,10-21.19,19.16-29.82,19.16c-9.92,0-13.28-4.52-13.28-14.08c0-1.81,0.11-3.58,0.32-5.38c-9.62,10.56-22.74,20.5-31.58,20.5
			c-9.92,0-13.28-4.52-13.28-14.08c0-2.67,0.48-5.81,1.2-9.09c-0.06-0.77-0.09-1.57-0.09-2.41c0-7.45,3.69-18.49,6.27-26.37
			c-0.28-0.11-0.6-0.19-1-0.19c-2.86,0-6.89,1.91-11.43,5.91c-0.33,2.45-0.65,4.93-0.94,7.46c-0.54,6.93-0.89,14.34-0.98,22.57
			c-0.24,0.28-0.53,0.52-0.84,0.75c-0.14,3.44-0.24,7.01-0.28,10.76c-1.51,1.74-4.37,2.43-7.73,2.43c-9.28,0-16.26-8.35-17.06-16.95
			c-9.09,9.89-21.3,18.86-31.68,18.86c-12.94,0-21.68-6.95-21.68-22.94c0-0.03,0-0.07,0-0.11c-4.06,3.23-8.96,5.5-14.29,5.5
			c-3.03,0-4.87-0.52-6.72-1.74c-8.07,11.3-16.97,17.55-28.74,17.55c-11.93,0-21.35-8.17-21.35-25.2c0-4.26,0.4-8.48,1.14-12.57
			c0.06-4.21,0.5-8.38,1.28-12.4c-5.68,0.57-10.15,0.98-10.15,0.98c-4.54,22.07-19.16,49.18-40.17,49.18
			c-10.23,0-18.59-6.03-20.77-18.47c-9.89,11.02-23.54,21.6-32.51,21.6c-9.92,0-13.28-4.52-13.28-14.08c0-2.53,0.48-5.51,1.24-8.66
			c-0.08-0.9-0.12-1.83-0.12-2.84c0-7.35,4.07-18.48,7-26.54c-0.07,0-0.14-0.01-0.21-0.01c-1.51,0-7.4,3.65-13.95,13.03
			c-1.33,7.56-2.44,13.96-3.25,20.23c-0.07,1.05-0.13,2.12-0.17,3.2c-0.08,0.08-0.16,0.15-0.24,0.23
			c-0.41,3.67-0.71,7.35-0.87,11.27c-1.68,1.74-3.19,2.61-6.72,2.61c-9.41,0-15.8-4-15.97-14.42c0-2.73,0.46-6.08,1.21-9.66
			c-0.06-0.59-0.09-1.21-0.1-1.85c0-6.6,2.69-16.86,5.71-25.2c0.01-0.04,0.03-0.08,0.04-0.12c-0.1-0.01-0.2-0.02-0.32-0.02
			c-1.51,0-5.55,2.61-12.1,11.99c-1.26,7.18-2.28,13.3-3.03,19.26c-0.09,1.37-0.16,2.75-0.23,4.16c-0.1,0.1-0.19,0.2-0.29,0.29
			c-0.38,3.65-0.66,7.32-0.82,11.21c-1.68,1.74-2.86,2.26-6.72,2.26c-9.41,0-16.3-9.21-16.47-19.64c0-3.13,0.42-6.81,1.16-10.66
			c-0.01-0.28-0.04-0.56-0.05-0.84c0-4.63,0.91-10.45,2.44-16.28c-0.4-2.22-0.53-4.52-0.53-6.63c0-2.01,0.52-4.12,1.43-6.21
			c-0.24-1.79-0.32-3.61-0.32-5.29c0-10.25,13.45-23.11,23.87-23.11c4.87,0,7.23,2.09,7.23,7.3c0,2.39-0.36,5.3-1.35,8.97
			c0.16,0.75,0.24,1.59,0.24,2.53c0,0.41-0.01,0.83-0.04,1.27c10.12-16.11,17.46-20.08,24.01-20.08c6.39,0,9.92,4.52,9.92,10.25
			c0,2.96-0.08,5.7-1.26,9.57c0.09,0.63,0.15,1.27,0.15,1.94c0,0.23,0,0.46,0,0.69c12.1-17.81,20.51-24.19,27.33-24.19
			c7.73,0,11.43,6.08,11.43,12.86c0,2.45-0.46,5.37-1.35,8.68c0.15,0.92,0.23,1.87,0.23,2.83c0,4.52-1.51,10.6-4.54,17.9
			c-1.83,4.64-5.03,12.02-7.26,18.08c0.28,0.09,0.61,0.13,0.97,0.13c2.56,0,10.68-6.51,20.14-18.84
			c4.25-23.34,19.65-41.99,34.82-41.99c4.2,0,9.24,2.09,9.41,7.65c2.69-4,6.05-5.74,9.58-5.74c5.71,0,8.91,4,8.91,13.38
			c6.22-0.87,14.79-2.09,20-2.95c9.58-7.82,17.14-11.99,22.86-11.99c5.38,0,7.73,4,7.9,7.3c2.35-2.95,5.04-4,8.24-4
			c6.89,0,10.25,4.87,10.25,11.64c0,3.1-0.42,6.83-1.14,10.78c0.01,0.24,0.02,0.48,0.02,0.72c0,5.56-1.35,13.11-3.33,20.37
			c0.33,0.06,0.69,0.1,1.09,0.1c4.74,0,9.48-3.8,14.84-12.48c0.22-0.86,0.45-1.76,0.69-2.68c-2.42-0.39-4.21-1.24-4.21-4.27
			c0-2.99,1.14-5.81,3.33-7.77c-1.35-0.58-2.22-1.63-2.22-3.74c0-5.39,3.7-10.25,10.59-10.43c8.4-22.77,17.31-39.1,28.57-39.1
			c3.7,0,6.55,1.74,6.55,5.74c0,2.04-0.87,4.55-2.25,7.89c0.72,0.9,1.14,2.09,1.14,3.62c0,4.1-3.5,10.11-7.69,20.87
			c4.64-0.24,9.71-0.66,11.5-1.09c2.02,1.56,3.19,4.69,3.19,7.3c0,2.79-0.76,5.3-2.05,7.27c0.6,1.35,0.93,2.86,0.93,4.23
			c0,6.6-4.2,11.64-9.75,11.64c-3.87,0-7.4-0.17-12.27-1.04c-2.28,9.62-3.76,16.86-4.66,22.01c0.34,2.74,1.54,4.02,4.43,4.02
			c6.81,0,18.23-8.17,29.53-24.48c6.34-58.12,13.52-83.44,34.17-83.44c7.23,0,10.92,3.48,10.92,12.34c0,2.43-0.37,5.1-1.3,8.33
			c0.12,0.97,0.19,2.03,0.19,3.17c0,7.65-3.7,17.73-16.81,40.14l-0.68,2.76c11.14-10.07,20.69-14.96,26.84-14.96
			c6.39,0,9.75,4.17,9.75,10.25c0,2.97-0.47,5.95-1.31,9.12c0.13,0.76,0.2,1.55,0.2,2.39c0,5.39-1.51,10.77-4.03,17.38
			c-1.69,4.51-4.31,11.26-6.17,16.93c0.34,0.16,0.75,0.24,1.24,0.24c2.8,0,11.95-7.34,21.96-21.26c0.23-0.85,0.52-1.73,0.87-2.63
			c-0.22-1.74-0.31-3.5-0.31-5.14c0-10.25,14.96-28.5,25.38-28.5c7.73,0,8.4,4.34,8.4,11.12c0,1.91-0.51,4.31-1.33,7
			c0.17,1.34,0.22,2.85,0.22,4.5c0,4.52-2.86,11.82-5.88,19.12c-2.04,5.21-3.61,9.2-4.73,12.38c0.35,0.18,0.79,0.27,1.3,0.27
			c1.88,0,7.11-3.58,14.9-13.47c3.51-23.45,21.7-45.09,36.36-45.09c11.6,0,17.98,5.74,17.98,17.9c0,3.15-0.39,6.15-1.22,8.98
			c0.07,0.81,0.11,1.65,0.11,2.53c0,13.74-7.3,24.56-27.37,30.27c1.22,1.09,2.92,1.67,5.29,1.67c11.43,0,26.22-10.08,35.8-25.2
			c4.03,0.17,6.39,2.95,6.39,5.74c0,2.28-0.9,5.03-2.47,8.01C807.8,428.64,808.27,429.89,808.27,431.13z M932.81,475.62
			c0,8.69-5.04,15.64-11.09,17.38c-12.27-10.95-28.24-19.98-61.51-27.81c-6.05,5.91-11.09,9.56-16.3,9.56
			c-8.4,0-16.14-13.73-16.14-23.29c0-2.73,0.52-4.96,1.66-6.74c-0.36-1.65-0.55-3.26-0.55-4.77c0-8.17,4.54-11.99,17.14-11.99
			c2.86,0,6.05,0.17,9.75,0.52c1.9-3.76,3.63-7.3,5.25-10.78c-7.72-2.11-13.08-7.11-13.08-13.16c0-2.74,0.75-5.14,2.08-7.2
			c-0.62-1.35-0.97-2.79-0.97-4.3c0-5.21,2.69-9.21,7.06-11.99c4.87,3.82,10.93,6.78,16.14,7.82c7.23-20.68,15.13-40.84,19.66-48.49
			c5.88-9.73,13.61-13.38,22.02-13.38c19.67,0,32.77,13.9,32.77,28.85c0,2.75-0.43,5.58-1.3,8.45c0.12,1.01,0.19,2.03,0.19,3.05
			c0,17.38-17.14,38.23-54.62,50.4c-1.15,3.48-3.57,8.37-6.34,13.3c40.47,7.98,49.3,21.4,49.3,33.07c0,2.8-0.53,5.42-1.44,7.74
			C932.7,473.13,932.81,474.38,932.81,475.62z M1113.32,471.62c-11.25,0-19.18-6.35-21.48-19.7c-9.61,10.47-22.97,20.4-31.97,20.4
			c-9.92,0-13.28-4.52-13.28-14.08c0-2.72,0.48-5.78,1.22-8.91c-0.06-0.82-0.11-1.68-0.11-2.59c0-7.04,3.23-16.36,5.72-23.41
			c-0.09-0.01-0.18-0.02-0.28-0.02c-1.51,0-7.06,2.61-13.61,11.99c-1.05,6-1.84,10.88-2.43,15.5c-0.13,1.91-0.23,3.9-0.32,6.01
			c-0.13,0.13-0.26,0.26-0.38,0.38c-0.33,3.5-0.56,7.08-0.73,11.13c-1.68,1.74-2.86,2.26-6.72,2.26c-9.21,0-15.98-8.82-16.43-18.96
			c-9.1,10.03-21.3,19.31-28.27,19.31c-7.39,0-12.1-3.13-12.1-14.25c0-1.91,0.17-4.17,0.5-6.78c-5.38,15.81-13.11,20.16-18.99,20.16
			c-9.58,0-16.64-8.17-16.64-23.98c0-3.59,0.41-7.2,1.13-10.77c0-0.25-0.02-0.49-0.02-0.74c0-26.07,20.84-53.35,37.65-53.35
			c2.35,0,3.53,0.35,4.37,1.22l0.5-10.08c1.34-1.56,3.53-2.26,5.88-2.26c11.43,0,17.65,7.99,17.65,14.08c0,1.95-0.38,5.45-1.34,9.49
			c0.14,0.69,0.23,1.36,0.23,2.02c0,2.26-0.5,6.6-1.85,11.47c-3.43,12.76-5.6,21.8-6.82,28.02c0.26,1.55,0.88,1.84,1.88,1.84
			c2.92,0,9.92-5.03,18.76-16.61c-0.03-0.66-0.04-1.32-0.04-1.95c0-1.9,0.52-4.07,1.42-6.35c-0.22-1.75-0.3-3.51-0.3-5.15
			c0-10.25,14.96-28.5,25.38-28.5c5.71,0,7.23,2.09,7.23,7.3c0,1.89-0.41,5.26-1.26,9.17c0.1,0.7,0.14,1.47,0.14,2.34
			c0,1.2-0.17,3-0.51,5.14c10.33-15.55,19.8-21.34,26.16-21.34c7.73,0,11.6,5.21,11.6,11.99c0,2.52-0.41,5.47-1.32,8.93
			c0.13,0.83,0.2,1.69,0.2,2.57c0,4.69-1.34,10.77-4.87,19.12c-1.72,4.35-4.2,10.21-6.02,15.26c0.31,0.11,0.67,0.17,1.08,0.17
			c2.82,0,10.73-6.26,19.35-17.4c4.29-21.52,21.1-40.3,32.75-40.3c5.21,0,7.73,2.95,7.73,7.47c0,0.7,0,1.39-0.17,2.09
			c-1.39,0.92-2.68,1.99-3.9,3.15c1.98,1.27,2.95,3.47,2.95,6.27c0,0.7,0,1.39-0.17,2.09c-9.07,6.04-14.37,17.67-16.52,28.32
			c0.17,5.19,1.84,6.75,5.03,6.75c5.55,0,13.07-16.75,16.03-37.6c0.1-2.04,0.17-4.1,0.17-6.16c0-20.16-10.59-30.41-26.39-31.46
			c-1.51-1.39-2.19-3.65-2.19-5.73c0-2.56,0.66-5.14,2.03-7.48c-0.63-1.22-0.92-2.66-0.92-4.03c0-8.17,6.72-16.51,21.68-16.51
			c18.99,0,31.6,16.34,31.6,42.58c0,7.19-0.49,14.03-1.38,20.51C1158.8,440.54,1133.45,471.62,1113.32,471.62z"/>
		<path class="st0" d="M972.51,441.75c0.1-0.12,0.2-0.24,0.3-0.37l0.1-0.65C972.78,441.08,972.64,441.42,972.51,441.75z"/>
		<path class="st0" d="M977.52,405.73c-6.22,4.48-12.13,13.67-14.59,23.57c0.43,4.39,2.22,4.93,4.27,4.93
			c2.35,0,4.71-1.74,6.72-4.34L977.52,405.73z"/>
		<polygon class="st0" points="979.03,393.94 979.03,393.93 979.02,393.94 		"/>
	</g>
	<g>
		<path class="st1" d="M515.13,429.86c0.17,7.92,3.1,10.23,6.03,10.23c2.48,0,4.7-1.25,6.6-3.1c-0.44-2.82-0.65-5.82-0.65-8.51
			c0-2.61,0.44-5.99,1.15-9.48c-0.03-0.69-0.04-1.36-0.04-2.02c0-1.69,0.18-3.7,0.5-5.85c-2.5,2.24-5.71,4.12-8.84,5.37
			C517.7,420.23,516.1,425.02,515.13,429.86z"/>
		<path class="st1" d="M460.39,414.75c0-2.25,0.46-4.85,1.69-7.51c-0.12-0.38-0.22-0.78-0.31-1.19
			c-7.16,4.18-13.34,15.37-15.83,26.2c0.46,6.64,3.35,8.7,5.81,8.7c4.65,0,8.82-8.25,11.55-18.51
			C461.55,421.09,460.39,418.23,460.39,414.75z"/>
		<path class="st1" d="M911.65,362.79c-2.19,0-4.54,1.56-6.72,9.21l-5.25,16.19c11.57-5.31,19.93-12.28,23.6-19.35
			C921.34,365.29,916.74,362.79,911.65,362.79z"/>
		<path class="st1" d="M972.58,441.74c-0.13,0.34-0.27,0.68-0.4,1.02c0.1-0.12,0.2-0.24,0.3-0.37L972.58,441.74z"/>
		<path class="st1" d="M464.19,393.86c-0.33,0.15-0.65,0.31-0.97,0.49c0.17,0.12,0.33,0.24,0.49,0.37
			C463.86,394.44,464.01,394.15,464.19,393.86z"/>
		<path class="st1" d="M766.77,408.5c-1.38,0-3.51,2.06-5.28,6.2c3.86-0.99,6.25-2.68,7.71-4.71
			C768.62,409.02,767.78,408.5,766.77,408.5z"/>
		<polygon class="st1" points="978.71,394.93 978.7,394.94 978.71,394.94 		"/>
		<path class="st1" d="M962.6,430.3c0.43,4.39,2.22,4.93,4.27,4.93c2.35,0,4.71-1.74,6.72-4.34l3.59-24.15
			C970.97,411.2,965.06,420.4,962.6,430.3z"/>
		<path class="st2" d="M300.49,367.8c-8.91-7.65-15.13-11.12-21.35-11.12c-3.7,0-6.72,3.3-6.72,8.34c0,1.65,0.26,3.41,0.87,5.44
			c1.22-1.45,2.9-2.27,4.74-2.27c6.22,0,12.44,3.48,21.35,11.12c3.7-1.91,7.23-7.47,7.23-14.25c0-1.37-0.13-2.74-0.38-4.09
			C304.85,364.2,302.7,366.65,300.49,367.8z"/>
		<path class="st2" d="M255.78,472.76c-24.96,0-38.03-14.71-38.94-32.9c-0.77,3.12-1.17,6.36-1.17,9.47
			c0,19.12,13.11,34.93,38.99,34.93c28.24,0,45.71-23.46,45.71-43.1c0-0.85-0.02-1.67-0.06-2.49
			C295.99,455.82,279.78,472.76,255.78,472.76z"/>
		<path class="st2" d="M258.47,404.64c-8.36-11.09-11.39-20.35-11.73-30.35c-0.75,3.15-1.15,6.36-1.15,9.53
			c0,10.77,2.86,20.51,11.76,32.32c12.07,15.83,15.42,22.24,16.32,26.97c0.91-2.16,1.43-4.71,1.43-7.54
			C275.11,429.84,274.1,425.15,258.47,404.64z"/>
		<path class="st2" d="M730.98,382.78c8.07-10.25,11.26-17.03,11.26-21.2c0-1.24-0.41-2.6-1.11-3.95c-1.78,3.64-4.7,8.14-9.03,13.65
			c-6.56,0-11.26-5.04-11.26-15.12c0-0.15,0.01-0.28,0.01-0.43c-0.74,2.92-1.12,6.82-1.12,11.93
			C719.71,377.74,724.42,382.78,730.98,382.78z"/>
		<path class="st2" d="M326.87,460.25c-9.16,0-15.91-8.72-16.42-18.79c-0.74,3.85-1.16,7.53-1.16,10.66
			c0.17,10.43,7.06,19.64,16.47,19.64c3.87,0,5.04-0.52,6.72-2.26c0.17-3.9,0.44-7.57,0.82-11.21
			C331.77,459.79,330.51,460.25,326.87,460.25z"/>
		<path class="st2" d="M461.77,406.06c-0.18-0.87-0.27-1.81-0.27-2.81c0-2.54,0.57-5.52,2.21-8.53c-0.16-0.13-0.32-0.25-0.49-0.37
			c-9.49,5.23-17.35,22.89-17.35,36c0,0.68,0.03,1.3,0.07,1.9C448.44,421.43,454.62,410.24,461.77,406.06z"/>
		<path class="st2" d="M462.08,407.25c-1.24,2.66-1.69,5.25-1.69,7.51c0,3.47,1.17,6.34,2.91,7.7c0.92-3.47,1.68-7.17,2.23-10.86
			C464,411.03,462.76,409.43,462.08,407.25z"/>
		<path class="st2" d="M527.76,436.99c1.19-1.16,2.24-2.55,3.15-4.03c-1.62-3.51-2.47-9.03-2.65-13.96
			c-0.71,3.49-1.15,6.87-1.15,9.48C527.11,431.17,527.32,434.17,527.76,436.99z"/>
		<path class="st2" d="M520.99,404.99c-3.87,6.6-5.88,16.51-5.88,24.16c0,0.25,0.01,0.48,0.02,0.72c0.97-4.84,2.57-9.63,4.75-13.37
			c3.13-1.25,6.34-3.12,8.84-5.37c0.7-4.72,2.08-10.13,3.7-14.31C529.9,400.29,525.36,403.25,520.99,404.99z"/>
		<path class="st2" d="M350.07,411.07c-1.51,0-5.55,2.61-12.1,11.99c-2.07,11.78-3.49,20.73-4.14,30.77
			c0.75-5.96,1.77-12.09,3.03-19.26c6.55-9.38,10.59-11.99,12.1-11.99c0.11,0,0.21,0.01,0.32,0.02c1.33-3.79,2.81-7.72,2.81-9.44
			C352.08,411.59,351.41,411.07,350.07,411.07z"/>
		<path class="st2" d="M313.75,411.5c-0.91,2.09-1.43,4.2-1.43,6.21c0,2.11,0.13,4.41,0.53,6.63c0.65-2.48,1.41-4.97,2.27-7.36
			C314.42,415.28,314,413.4,313.75,411.5z"/>
		<path class="st2" d="M601.09,385.92c4.19-10.75,7.69-16.77,7.69-20.87c0-1.53-0.42-2.72-1.14-3.62
			c-2.28,5.47-5.96,13.16-9.51,24.61C599.08,386.01,600.08,385.97,601.09,385.92z"/>
		<path class="st2" d="M384.69,411.76c-1.51,0-7.4,3.65-13.95,13.03c-2.14,12.15-3.72,21.3-4.37,31.73
			c0.81-6.27,1.92-12.66,3.25-20.23c6.55-9.38,12.44-13.03,13.95-13.03c0.08,0,0.14,0.01,0.21,0.01c1.64-4.51,2.92-8.06,2.92-9.43
			C386.71,412.46,386.03,411.76,384.69,411.76z"/>
		<path class="st2" d="M615.7,443.65c-9.09,9.89-21.3,18.86-31.68,18.86c-12.94,0-21.68-6.95-21.68-22.94c0-0.03,0-0.07,0-0.11
			c-4.06,3.23-8.96,5.5-14.29,5.5c-3.03,0-4.87-0.52-6.72-1.74c-8.07,11.3-16.97,17.55-28.74,17.55c-11.93,0-21.35-8.17-21.35-25.2
			c0-0.35,0.02-0.71,0.03-1.06c-0.74,4.08-1.14,8.3-1.14,12.57c0,17.03,9.41,25.2,21.35,25.2c11.76,0,20.67-6.26,28.74-17.55
			c1.85,1.22,3.7,1.74,6.72,1.74c5.33,0,10.23-2.27,14.29-5.5c0,0.03,0,0.07,0,0.11c0,15.99,8.74,22.94,21.68,22.94
			c10.38,0,22.59-8.97,31.68-18.86c0.79,8.6,7.78,16.95,17.06,16.95c3.36,0,6.22-0.69,7.73-2.43c0.04-3.75,0.13-7.32,0.28-10.76
			c-1.61,1.19-4.07,1.69-6.89,1.69C623.48,460.6,616.5,452.25,615.7,443.65z"/>
		<path class="st2" d="M654.94,410.72c-2.86,0-6.89,1.91-11.43,5.91c-0.83,6.06-1.53,12.29-2.05,18.97c0.29-2.53,0.6-5.01,0.94-7.46
			c4.54-4,8.57-5.91,11.43-5.91c0.4,0,0.72,0.07,1,0.19c1.39-4.25,2.47-7.57,2.47-8.91C657.3,412.11,656.79,410.72,654.94,410.72z"
			/>
		<path class="st2" d="M343.61,449.76c-0.75,3.58-1.21,6.93-1.21,9.66c0.17,10.43,6.55,14.42,15.97,14.42
			c3.53,0,5.04-0.87,6.72-2.61c0.17-3.92,0.47-7.6,0.87-11.27c-1.59,1.58-3.12,2.37-6.48,2.37
			C350.65,462.34,344.48,458.81,343.61,449.76z"/>
		<path class="st2" d="M759.15,461.12c-12.94,0-20.35-6.56-22.95-18.46c-9.04,10-21.19,19.16-29.82,19.16
			c-9.92,0-13.28-4.52-13.28-14.08c0-1.81,0.11-3.58,0.32-5.38c-9.62,10.56-22.74,20.5-31.58,20.5c-9.03,0-12.62-3.77-13.19-11.66
			c-0.73,3.28-1.2,6.42-1.2,9.09c0,9.56,3.36,14.08,13.28,14.08c8.84,0,21.96-9.94,31.58-20.5c-0.21,1.8-0.32,3.58-0.32,5.38
			c0,9.56,3.36,14.08,13.28,14.08c8.63,0,20.78-9.16,29.82-19.16c2.6,11.9,10.02,18.46,22.95,18.46c21.85,0,49.92-27.63,49.92-40.49
			c0-1.25-0.48-2.49-1.36-3.5C799.29,442.43,777.12,461.12,759.15,461.12z"/>
		<path class="st2" d="M376.18,405.54c0-0.23,0-0.46,0-0.69c0-0.66-0.05-1.31-0.15-1.94c-0.62,2.05-1.55,4.4-2.94,7.29
			C374.15,408.56,375.18,407.02,376.18,405.54z"/>
		<path class="st2" d="M697.78,416.55c-0.36,0.9-0.64,1.77-0.87,2.63c0.35-0.48,0.69-0.95,1.04-1.44
			C697.88,417.35,697.83,416.95,697.78,416.55z"/>
		<path class="st2" d="M672.59,437.83c0,1.3,0.4,2.03,1.12,2.37c1.87-5.67,4.49-12.42,6.17-16.93c2.52-6.6,4.03-11.99,4.03-17.38
			c0-0.83-0.07-1.63-0.2-2.39c-0.68,2.58-1.59,5.3-2.73,8.26C678.14,419.41,672.59,433.49,672.59,437.83z"/>
		<path class="st2" d="M718.47,434.7c0,1.26,0.37,1.98,1.05,2.33c1.12-3.18,2.69-7.17,4.73-12.38c3.03-7.3,5.88-14.6,5.88-19.12
			c0-1.66-0.04-3.16-0.22-4.5c-1.12,3.68-2.8,7.9-4.55,12.11C720.66,425.15,718.47,430.71,718.47,434.7z"/>
		<path class="st2" d="M758.81,427.93c0,4.99,0.62,8.56,2.78,10.5c20.07-5.71,27.37-16.53,27.37-30.27c0-0.88-0.04-1.72-0.11-2.53
			C785.82,415.85,776.86,423.7,758.81,427.93z"/>
		<path class="st2" d="M646.2,401.16c0.75-0.71,1.5-1.41,2.24-2.07l0.68-2.76c13.11-22.42,16.81-32.5,16.81-40.14
			c0-1.15-0.06-2.2-0.19-3.17c-1.99,6.96-6.56,16.51-15.51,31.81L646.2,401.16z"/>
		<path class="st2" d="M606.04,403.77c-3.87,0-7.4-0.17-12.27-1.04c-4.54,19.12-5.88,28.85-5.88,31.45c0,0.76,0.03,1.45,0.11,2.06
			c0.9-5.15,2.38-12.39,4.66-22.01c4.87,0.87,8.4,1.04,12.27,1.04c5.55,0,9.75-5.04,9.75-11.64c0-1.37-0.33-2.88-0.93-4.23
			C611.98,402.09,609.24,403.77,606.04,403.77z"/>
		<path class="st2" d="M400.66,439.22c0,1.45,0.49,2.2,1.38,2.47c2.23-6.06,5.42-13.44,7.26-18.08c3.03-7.3,4.54-13.38,4.54-17.9
			c0-0.96-0.08-1.91-0.23-2.83c-0.75,2.8-1.8,5.88-3.19,9.22C407.38,419.76,400.66,434.88,400.66,439.22z"/>
		<path class="st2" d="M483.52,411.59c-4.54,22.07-19.16,49.18-40.17,49.18c-10.23,0-18.59-6.03-20.77-18.47
			c-9.89,11.02-23.54,21.6-32.51,21.6c-8.87,0-12.49-3.63-13.15-11.24c-0.75,3.15-1.24,6.13-1.24,8.66
			c0,9.56,3.36,14.08,13.28,14.08c8.97,0,22.61-10.58,32.51-21.6c2.18,12.45,10.54,18.47,20.77,18.47
			c21.01,0,35.63-27.11,40.17-49.18c0,0,4.47-0.41,10.15-0.98c0.8-4.09,1.94-8.04,3.4-11.74
			C489.23,411.07,483.52,411.59,483.52,411.59z"/>
		<path class="st2" d="M767.89,396.99c-2.35,0-6.89,5.91-8.07,18.07c0.59-0.11,1.14-0.23,1.67-0.37c1.77-4.15,3.9-6.2,5.28-6.2
			c1.01,0,1.84,0.52,2.43,1.49c1.56-2.17,2.04-4.74,2.04-7.26C771.25,399.08,769.9,396.99,767.89,396.99z"/>
		<path class="st2" d="M343.37,403.17c0.02-0.44,0.04-0.87,0.04-1.27c0-0.95-0.08-1.79-0.24-2.53c-0.81,3.01-2.04,6.52-3.86,10.67
			C340.72,407.52,342.07,405.25,343.37,403.17z"/>
		<path class="st2" d="M566.41,401.08c-2.19,1.96-3.33,4.78-3.33,7.77c0,3.03,1.8,3.87,4.21,4.27c0.89-3.37,1.92-7.1,3.12-11.26
			C568.9,401.7,567.5,401.54,566.41,401.08z"/>
		<path class="st2" d="M550.67,428.17c1.99-7.25,3.33-14.81,3.33-20.37c0-0.25-0.01-0.48-0.02-0.72
			c-1.21,6.67-3.26,13.98-5.59,19.98C548.78,427.46,549.56,427.96,550.67,428.17z"/>
		<path class="st2" d="M849.7,398.34c-1.34,2.07-2.08,4.47-2.08,7.2c0,6.06,5.36,11.06,13.08,13.16c1.67-3.61,3.21-7.14,4.67-10.77
			C857.87,406.85,851.93,403.2,849.7,398.34z"/>
		<path class="st2" d="M912.76,351.29c-2.19,0-4.54,1.56-6.72,9.21l-9.41,29.02c1.04-0.43,2.06-0.88,3.05-1.33l5.25-16.19
			c2.18-7.65,4.54-9.21,6.72-9.21c5.09,0,9.7,2.5,11.63,6.05c1.36-2.62,2.08-5.25,2.08-7.82
			C925.36,355.63,919.48,351.29,912.76,351.29z"/>
		<path class="st2" d="M891.75,407.25c-2.02,6.08-7.9,16.51-12.77,23.81c1.84,0.32,3.6,0.65,5.32,0.99
			c2.77-4.92,5.19-9.82,6.34-13.3c37.48-12.17,54.62-33.02,54.62-50.4c0-1.02-0.07-2.04-0.19-3.05
			C940.44,380.6,923.31,397,891.75,407.25z"/>
		<path class="st2" d="M922.51,482.49c-12.27-10.95-28.24-19.98-61.51-27.81c-6.05,5.91-11.09,9.56-16.3,9.56
			c-7.08,0-13.68-9.74-15.58-18.52c-1.14,1.78-1.66,4.01-1.66,6.74c0,9.56,7.73,23.29,16.14,23.29c5.21,0,10.25-3.65,16.3-9.56
			c33.28,7.82,49.25,16.86,61.51,27.81c6.05-1.74,11.09-8.69,11.09-17.38c0-1.24-0.11-2.49-0.33-3.76
			C930.24,477.74,926.61,481.32,922.51,482.49z"/>
		<path class="st2" d="M1071.25,437.48c0,1.39,0.45,2.13,1.27,2.44c1.82-5.05,4.3-10.91,6.02-15.26c3.53-8.34,4.87-14.42,4.87-19.12
			c0-0.89-0.07-1.75-0.2-2.57c-0.78,2.98-1.93,6.33-3.56,10.18C1076.63,420.8,1071.25,433.14,1071.25,437.48z"/>
		<path class="st2" d="M1046.77,403.39c0.33-2.14,0.51-3.95,0.51-5.14c0-0.87-0.05-1.64-0.14-2.34c-1.09,5.07-2.9,11.05-5.47,15.86
			C1043.39,408.7,1045.09,405.92,1046.77,403.39z"/>
		<path class="st2" d="M978.71,394.94C978.7,394.94,978.7,394.94,978.71,394.94c-8.31,5.69-16.2,19.93-16.2,33.16
			c0,0.82,0.03,1.55,0.1,2.2c2.46-9.9,8.37-19.1,14.59-23.57l1.78-12c-0.09,0.06-0.18,0.14-0.27,0.2L978.71,394.94z"/>
		<path class="st2" d="M1013.3,441.11c-9.1,10.03-21.3,19.31-28.27,19.31c-7.39,0-12.1-3.13-12.1-14.25c0-1.91,0.17-4.17,0.5-6.78
			c-0.28,0.81-0.56,1.59-0.85,2.34l-0.1,0.65c-0.1,0.13-0.2,0.24-0.3,0.37c-5.28,13.08-12.3,16.8-17.74,16.8
			c-9.43,0-16.4-7.92-16.62-23.24c-0.73,3.56-1.13,7.17-1.13,10.77c0,15.81,7.06,23.98,16.64,23.98c5.88,0,13.61-4.34,18.99-20.16
			c-0.34,2.61-0.5,4.87-0.5,6.78c0,11.12,4.71,14.25,12.1,14.25c6.97,0,19.17-9.28,28.27-19.31c0.45,10.14,7.23,18.96,16.43,18.96
			c3.87,0,5.04-0.52,6.72-2.26c0.17-4.05,0.41-7.63,0.73-11.13c-1.5,1.43-2.77,1.88-6.34,1.88
			C1020.53,460.08,1013.75,451.26,1013.3,441.11z"/>
		<path class="st2" d="M1111.58,351.81c-0.52-0.48-0.93-1.06-1.26-1.71c-1.37,2.33-2.03,4.91-2.03,7.48c0,2.09,0.67,4.34,2.19,5.73
			c15.8,1.04,26.39,11.3,26.39,31.46c0,2.06-0.06,4.12-0.17,6.16c0.81-5.67,1.28-11.64,1.28-17.67
			C1137.97,363.1,1127.38,352.85,1111.58,351.81z"/>
		<path class="st2" d="M1016.09,413.09c-0.9,2.28-1.42,4.45-1.42,6.35c0,0.63,0.02,1.29,0.04,1.95c0.82-1.07,1.65-2.18,2.5-3.37
			C1016.66,416.47,1016.31,414.79,1016.09,413.09z"/>
		<path class="st2" d="M1114.1,461.12c-11.25,0-19.18-6.35-21.48-19.7c-9.61,10.47-22.97,20.4-31.97,20.4
			c-8.97,0-12.56-3.71-13.17-11.48c-0.73,3.14-1.22,6.2-1.22,8.91c0,9.56,3.36,14.08,13.28,14.08c8.99,0,22.35-9.93,31.97-20.4
			c2.3,13.35,10.23,19.7,21.48,19.7c20.13,0,45.49-31.09,48.3-79.97C1155.52,434.85,1132.61,461.12,1114.1,461.12z"/>
		<path class="st2" d="M1053.94,412.81c-1.51,0-7.06,2.61-13.61,11.99c-1.93,10.99-2.96,18.23-3.54,27.01
			c0.59-4.62,1.37-9.5,2.43-15.5c6.55-9.38,12.1-11.99,13.61-11.99c0.1,0,0.19,0.01,0.28,0.02c1.57-4.43,2.85-7.96,2.85-9.44
			C1055.95,413.5,1055.28,412.81,1053.94,412.81z"/>
		<path class="st2" d="M993.94,434.01c0,0.91,0.05,1.61,0.14,2.16c1.22-6.22,3.39-15.26,6.82-28.02c1.34-4.87,1.85-9.21,1.85-11.47
			c0-0.65-0.09-1.33-0.23-2.02c-0.15,0.65-0.32,1.31-0.51,1.98C996.12,418.54,993.94,429.49,993.94,434.01z"/>
		<path class="st2" d="M1115.62,430.88c0,0.31,0.01,0.6,0.02,0.89c2.15-10.64,7.45-22.28,16.52-28.32c0.17-0.69,0.17-1.39,0.17-2.09
			c0-2.8-0.97-5-2.95-6.27C1119.85,404.22,1115.62,419.94,1115.62,430.88z"/>
	</g>
	<g>
		<path class="st1" d="M282.84,332.34c-21.18,0-35.63,20.68-35.63,39.97c0,10.77,2.86,20.51,11.76,32.32
			c15.63,20.51,16.64,25.2,16.64,30.93c0,8.86-5.04,14.94-11.43,14.94c-11.26,0-21.68-10.43-21.68-34.06v-3.3
			c-1.51-1.91-4.03-2.78-6.89-2.78c-11.76,0-18.32,14.77-18.32,27.46c0,19.12,13.11,34.93,38.99,34.93
			c28.24,0,45.71-23.46,45.71-43.1c0-10.25-2.35-17.55-16.47-38.23c-9.75-14.08-12.61-20.85-12.61-26.42c0-5.04,3.03-8.34,6.72-8.34
			c6.22,0,12.44,3.48,21.35,11.12c3.7-1.91,7.23-7.47,7.23-14.25C308.22,343.12,300.99,332.34,282.84,332.34z"/>
		<path class="st1" d="M732.59,371.27c8.07-10.25,11.26-17.03,11.26-21.2c0-5.39-7.56-13.03-14.29-13.03
			c-5.38,0-8.24,5.04-8.24,19.12C721.33,366.23,726.03,371.27,732.59,371.27z"/>
		<path class="st1" d="M803.18,414.89c-9.58,15.12-24.37,25.2-35.8,25.2c-6.55,0-8.07-4.34-8.07-12.17
			c23.03-5.39,31.26-16.68,31.26-31.28c0-12.16-6.39-17.9-17.98-17.9c-14.66,0-32.85,21.65-36.36,45.09
			c-7.79,9.89-13.01,13.47-14.9,13.47c-1.51,0-2.35-0.69-2.35-2.61c0-4,2.19-9.56,6.89-21.55c3.03-7.3,5.88-14.6,5.88-19.12
			c0-6.78-0.67-11.12-8.4-11.12c-10.42,0-25.38,18.25-25.38,28.5c0,2.01,0.12,4.2,0.48,6.32c-10.41,14.87-20.1,22.7-23,22.7
			c-1.51,0-2.35-0.7-2.35-2.61c0-4.34,5.55-18.42,8.4-26.07c2.52-6.6,4.03-11.99,4.03-17.38c0-6.08-3.36-10.25-9.75-10.25
			c-6.55,0-16.98,5.56-29.08,17.03l4.03-16.34c13.11-22.42,16.81-32.5,16.81-40.14c0-8.86-3.7-12.34-10.92-12.34
			c-20.65,0-27.83,25.32-34.17,83.44c-11.3,16.31-22.72,24.48-29.53,24.48c-3.53,0-4.54-1.91-4.54-6.08
			c0-2.61,1.34-12.34,5.88-31.45c4.87,0.87,8.4,1.04,12.27,1.04c5.55,0,9.75-5.04,9.75-11.64c0-2.61-1.18-5.74-3.19-7.3
			c-2.18,0.52-9.24,1.04-14.45,1.22c5.71-18.42,11.76-27.11,11.76-32.5c0-4-2.86-5.74-6.55-5.74c-11.26,0-20.17,16.34-28.57,39.1
			c-6.89,0.17-10.59,5.04-10.59,10.43c0,3.82,2.86,4.17,6.22,4.52c-1.53,5.28-2.78,9.89-3.81,13.93
			c-5.36,8.68-10.1,12.48-14.84,12.48c-1.68,0-2.86-0.7-3.36-1.22c3.7-9.56,6.72-22.42,6.72-30.76c0-6.78-3.36-11.64-10.25-11.64
			c-3.19,0-5.88,1.04-8.24,4c-0.17-3.3-2.52-7.3-7.9-7.3c-5.71,0-13.28,4.17-22.86,11.99c-5.21,0.87-13.78,2.09-20,2.95
			c0-9.38-3.19-13.38-8.91-13.38c-3.53,0-6.89,1.74-9.58,5.74c-0.17-5.56-5.21-7.65-9.41-7.65c-15.17,0-30.57,18.64-34.82,41.99
			c-9.47,12.33-17.58,18.84-20.14,18.84c-1.51,0-2.35-0.69-2.35-2.61c0-4.34,6.72-19.46,9.75-27.11c3.03-7.3,4.54-13.38,4.54-17.9
			c0-6.78-3.7-12.86-11.43-12.86c-7.4,0-16.64,7.47-30.42,28.85c4.03-8.34,4.2-12.34,4.2-16.86c0-5.74-3.53-10.25-9.92-10.25
			c-7.4,0-15.8,5.04-28.07,26.94c4.03-9.21,5.21-15.29,5.21-19.64c0-5.21-2.35-7.3-7.23-7.3c-10.42,0-23.87,12.86-23.87,23.11
			c0,3.48,0.34,7.47,1.68,10.77c-2.86,7.99-4.71,17.03-4.71,23.64c0.17,10.43,7.06,19.64,16.47,19.64c3.87,0,5.04-0.52,6.72-2.26
			c0.5-11.82,2.02-21.55,4.37-34.93c6.55-9.38,10.59-11.99,12.1-11.99c1.34,0,2.02,0.52,2.02,2.09c0,1.74-1.51,5.74-2.86,9.56
			c-3.02,8.34-5.71,18.59-5.71,25.2c0.17,10.43,6.55,14.42,15.97,14.42c3.53,0,5.04-0.87,6.72-2.61c0.5-11.82,2.18-21.55,4.54-34.93
			c6.55-9.38,12.44-13.03,13.95-13.03c1.34,0,2.02,0.7,2.02,2.09c0,3.82-9.92,24.5-9.92,35.97c0,9.56,3.36,14.08,13.28,14.08
			c8.97,0,22.61-10.58,32.51-21.6c2.18,12.45,10.54,18.47,20.77,18.47c21.01,0,35.63-27.11,40.17-49.18c0,0,5.71-0.52,12.44-1.22
			c-3.03,7.65-4.71,16.34-4.71,25.2c0,17.03,9.41,25.2,21.35,25.2c11.76,0,20.67-6.26,28.74-17.55c1.85,1.22,3.7,1.74,6.72,1.74
			c5.33,0,10.23-2.27,14.29-5.5c0,0.03,0,0.07,0,0.11c0,15.99,8.74,22.94,21.68,22.94c10.38,0,22.59-8.97,31.68-18.86
			c0.79,8.6,7.78,16.95,17.06,16.95c3.36,0,6.22-0.69,7.73-2.43c0.17-16.16,1.34-29.2,3.03-41.53c4.54-4,8.57-5.91,11.43-5.91
			c1.85,0,2.35,1.39,2.35,2.78c0,3.82-8.74,23.81-8.74,35.28c0,9.56,3.36,14.08,13.28,14.08c8.84,0,21.96-9.94,31.58-20.5
			c-0.21,1.8-0.32,3.58-0.32,5.38c0,9.56,3.36,14.08,13.28,14.08c8.63,0,20.78-9.16,29.82-19.16c2.6,11.9,10.02,18.46,22.95,18.46
			c21.85,0,49.92-27.63,49.92-40.49C809.56,417.85,807.21,415.07,803.18,414.89z M768.39,396.99c2.02,0,3.36,2.09,3.36,5.74
			c0,5.21-2.02,10.6-11.43,12.34C761.5,402.9,766.03,396.99,768.39,396.99z M452.25,440.96c-2.69,0-5.88-2.43-5.88-10.6
			c0-13.56,8.4-31.98,18.32-36.5c-2.02,3.3-2.69,6.6-2.69,9.38c0,4.17,1.68,7.47,4.03,8.34
			C463.85,426.19,458.47,440.96,452.25,440.96z M531.41,432.97c-2.35,3.82-5.71,7.13-9.75,7.13c-3.03,0-6.05-2.43-6.05-10.95
			c0-7.65,2.02-17.55,5.88-24.16c4.37-1.74,8.91-4.69,11.43-8.17c-2.35,6.08-4.2,14.77-4.2,20.16
			C528.72,422.37,529.56,428.97,531.41,432.97z"/>
		<path class="st1" d="M946.87,356.85c0-14.95-13.11-28.85-32.77-28.85c-8.4,0-16.13,3.65-22.02,13.38
			c-4.54,7.65-12.44,27.81-19.66,48.49c-5.21-1.04-11.26-4-16.14-7.82c-4.37,2.78-7.06,6.78-7.06,11.99
			c0,6.95,7.06,12.51,16.64,13.9c-2.86,7.12-6.05,13.9-9.92,21.55c-3.7-0.35-6.89-0.52-9.75-0.52c-12.61,0-17.14,3.82-17.14,11.99
			c0,9.56,7.73,23.29,16.14,23.29c5.21,0,10.25-3.65,16.3-9.56c33.28,7.82,49.25,16.86,61.51,27.81
			c6.05-1.74,11.09-8.69,11.09-17.38c0-12.16-9.58-26.24-54.62-34.06c4.87-7.3,10.76-17.73,12.77-23.81
			C929.73,395.08,946.87,374.23,946.87,356.85z M906.54,360.5c2.18-7.65,4.54-9.21,6.72-9.21c6.72,0,12.61,4.34,12.61,9.73
			c0,10.08-11.09,21.2-28.74,28.5L906.54,360.5z"/>
		<path class="st1" d="M1131.58,329.56c-14.96,0-21.68,8.34-21.68,16.51c0,2.09,0.67,4.34,2.19,5.73
			c15.8,1.04,26.39,11.3,26.39,31.46c0,28.15-10.25,55.26-17.31,55.26c-3.36,0-5.04-1.74-5.04-7.65c0-12.34,5.38-30.76,17.65-38.93
			c0.17-0.69,0.17-1.39,0.17-2.09c0-4.52-2.52-7.47-7.73-7.47c-11.65,0-28.46,18.78-32.75,40.3c-8.63,11.14-16.53,17.4-19.35,17.4
			c-1.51,0-2.35-0.69-2.35-2.61c0-4.34,5.38-16.68,8.4-24.33c3.53-8.34,4.87-14.42,4.87-19.12c0-6.78-3.87-11.99-11.6-11.99
			c-7.4,0-18.99,7.82-31.26,29.72c4.54-8.52,6.72-20.68,6.72-25.02c0-5.21-1.51-7.3-7.23-7.3c-10.42,0-25.38,18.25-25.38,28.5
			c0,3.24,0.3,6.92,1.43,10.08c-10.02,14.01-18.07,19.98-21.26,19.98c-1.34,0-2.02-0.52-2.02-4c0-4.52,2.18-15.47,8.07-37.36
			c1.34-4.87,1.85-9.21,1.85-11.47c0-6.08-6.22-14.08-17.65-14.08c-2.35,0-4.54,0.7-5.88,2.26l-0.5,10.08
			c-0.84-0.87-2.02-1.22-4.37-1.22c-16.81,0-37.65,27.28-37.65,53.35c0,15.81,7.06,23.98,16.64,23.98c5.88,0,13.61-4.34,18.99-20.16
			c-0.34,2.61-0.5,4.87-0.5,6.78c0,11.12,4.71,14.25,12.1,14.25c6.97,0,19.17-9.28,28.27-19.31c0.45,10.14,7.23,18.96,16.43,18.96
			c3.87,0,5.04-0.52,6.72-2.26c0.5-11.82,1.51-19.64,3.87-33.02c6.55-9.38,12.1-11.99,13.61-11.99c1.34,0,2.02,0.7,2.02,2.09
			c0,3.82-8.57,21.38-8.57,32.84c0,9.56,3.36,14.08,13.28,14.08c8.99,0,22.35-9.93,31.97-20.4c2.3,13.35,10.23,19.7,21.48,19.7
			c21.35,0,48.57-34.93,48.57-88.98C1163.18,345.9,1150.57,329.56,1131.58,329.56z M974.1,430.88c-2.02,2.61-4.37,4.34-6.72,4.34
			c-2.35,0-4.37-0.69-4.37-7.12c0-13.38,8.07-27.81,16.47-33.37L974.1,430.88z"/>
	</g>
</g>
<g id="Layer_1_copy">
	<g>
		<path class="st3" d="M515.13,429.86c0.17,7.92,3.1,10.23,6.03,10.23c2.48,0,4.7-1.25,6.6-3.1c-0.44-2.82-0.65-5.82-0.65-8.51
			c0-2.61,0.44-5.99,1.15-9.48c-0.03-0.69-0.04-1.36-0.04-2.02c0-1.69,0.18-3.7,0.5-5.85c-2.5,2.24-5.71,4.12-8.84,5.37
			C517.7,420.23,516.1,425.02,515.13,429.86z"/>
		<path class="st3" d="M460.39,414.75c0-2.25,0.46-4.85,1.69-7.51c-0.12-0.38-0.22-0.78-0.31-1.19
			c-7.16,4.18-13.34,15.37-15.83,26.2c0.46,6.64,3.35,8.7,5.81,8.7c4.65,0,8.82-8.25,11.55-18.51
			C461.55,421.09,460.39,418.23,460.39,414.75z"/>
		<path class="st3" d="M911.65,362.79c-2.19,0-4.54,1.56-6.72,9.21l-5.25,16.19c11.57-5.31,19.93-12.28,23.6-19.35
			C921.34,365.29,916.74,362.79,911.65,362.79z"/>
		<path class="st3" d="M972.58,441.74c-0.13,0.34-0.27,0.68-0.4,1.02c0.1-0.12,0.2-0.24,0.3-0.37L972.58,441.74z"/>
		<path class="st3" d="M464.19,393.86c-0.33,0.15-0.65,0.31-0.97,0.49c0.17,0.12,0.33,0.24,0.49,0.37
			C463.86,394.44,464.01,394.15,464.19,393.86z"/>
		<path class="st3" d="M766.77,408.5c-1.38,0-3.51,2.06-5.28,6.2c3.86-0.99,6.25-2.68,7.71-4.71
			C768.62,409.02,767.78,408.5,766.77,408.5z"/>
		<polygon class="st3" points="978.71,394.93 978.7,394.94 978.71,394.94 		"/>
		<path class="st3" d="M962.6,430.3c0.43,4.39,2.22,4.93,4.27,4.93c2.35,0,4.71-1.74,6.72-4.34l3.59-24.15
			C970.97,411.2,965.06,420.4,962.6,430.3z"/>
		<path class="st4" d="M300.49,367.8c-8.91-7.65-15.13-11.12-21.35-11.12c-3.7,0-6.72,3.3-6.72,8.34c0,1.65,0.26,3.41,0.87,5.44
			c1.22-1.45,2.9-2.27,4.74-2.27c6.22,0,12.44,3.48,21.35,11.12c3.7-1.91,7.23-7.47,7.23-14.25c0-1.37-0.13-2.74-0.38-4.09
			C304.85,364.2,302.7,366.65,300.49,367.8z"/>
		<path class="st4" d="M255.78,472.76c-24.96,0-38.03-14.71-38.94-32.9c-0.77,3.12-1.17,6.36-1.17,9.47
			c0,19.12,13.11,34.93,38.99,34.93c28.24,0,45.71-23.46,45.71-43.1c0-0.85-0.02-1.67-0.06-2.49
			C295.99,455.82,279.78,472.76,255.78,472.76z"/>
		<path class="st4" d="M258.47,404.64c-8.36-11.09-11.39-20.35-11.73-30.35c-0.75,3.15-1.15,6.36-1.15,9.53
			c0,10.77,2.86,20.51,11.76,32.32c12.07,15.83,15.42,22.24,16.32,26.97c0.91-2.16,1.43-4.71,1.43-7.54
			C275.11,429.84,274.1,425.15,258.47,404.64z"/>
		<path class="st4" d="M730.98,382.78c8.07-10.25,11.26-17.03,11.26-21.2c0-1.24-0.41-2.6-1.11-3.95c-1.78,3.64-4.7,8.14-9.03,13.65
			c-6.56,0-11.26-5.04-11.26-15.12c0-0.15,0.01-0.28,0.01-0.43c-0.74,2.92-1.12,6.82-1.12,11.93
			C719.71,377.74,724.42,382.78,730.98,382.78z"/>
		<path class="st4" d="M326.87,460.25c-9.16,0-15.91-8.72-16.42-18.79c-0.74,3.85-1.16,7.53-1.16,10.66
			c0.17,10.43,7.06,19.64,16.47,19.64c3.87,0,5.04-0.52,6.72-2.26c0.17-3.9,0.44-7.57,0.82-11.21
			C331.77,459.79,330.51,460.25,326.87,460.25z"/>
		<path class="st4" d="M461.77,406.06c-0.18-0.87-0.27-1.81-0.27-2.81c0-2.54,0.57-5.52,2.21-8.53c-0.16-0.13-0.32-0.25-0.49-0.37
			c-9.49,5.23-17.35,22.89-17.35,36c0,0.68,0.03,1.3,0.07,1.9C448.44,421.43,454.62,410.24,461.77,406.06z"/>
		<path class="st4" d="M462.08,407.25c-1.24,2.66-1.69,5.25-1.69,7.51c0,3.47,1.17,6.34,2.91,7.7c0.92-3.47,1.68-7.17,2.23-10.86
			C464,411.03,462.76,409.43,462.08,407.25z"/>
		<path class="st4" d="M527.76,436.99c1.19-1.16,2.24-2.55,3.15-4.03c-1.62-3.51-2.47-9.03-2.65-13.96
			c-0.71,3.49-1.15,6.87-1.15,9.48C527.11,431.17,527.32,434.17,527.76,436.99z"/>
		<path class="st4" d="M520.99,404.99c-3.87,6.6-5.88,16.51-5.88,24.16c0,0.25,0.01,0.48,0.02,0.72c0.97-4.84,2.57-9.63,4.75-13.37
			c3.13-1.25,6.34-3.12,8.84-5.37c0.7-4.72,2.08-10.13,3.7-14.31C529.9,400.29,525.36,403.25,520.99,404.99z"/>
		<path class="st4" d="M350.07,411.07c-1.51,0-5.55,2.61-12.1,11.99c-2.07,11.78-3.49,20.73-4.14,30.77
			c0.75-5.96,1.77-12.09,3.03-19.26c6.55-9.38,10.59-11.99,12.1-11.99c0.11,0,0.21,0.01,0.32,0.02c1.33-3.79,2.81-7.72,2.81-9.44
			C352.08,411.59,351.41,411.07,350.07,411.07z"/>
		<path class="st4" d="M313.75,411.5c-0.91,2.09-1.43,4.2-1.43,6.21c0,2.11,0.13,4.41,0.53,6.63c0.65-2.48,1.41-4.97,2.27-7.36
			C314.42,415.28,314,413.4,313.75,411.5z"/>
		<path class="st4" d="M601.09,385.92c4.19-10.75,7.69-16.77,7.69-20.87c0-1.53-0.42-2.72-1.14-3.62
			c-2.28,5.47-5.96,13.16-9.51,24.61C599.08,386.01,600.08,385.97,601.09,385.92z"/>
		<path class="st4" d="M384.69,411.76c-1.51,0-7.4,3.65-13.95,13.03c-2.14,12.15-3.72,21.3-4.37,31.73
			c0.81-6.27,1.92-12.66,3.25-20.23c6.55-9.38,12.44-13.03,13.95-13.03c0.08,0,0.14,0.01,0.21,0.01c1.64-4.51,2.92-8.06,2.92-9.43
			C386.71,412.46,386.03,411.76,384.69,411.76z"/>
		<path class="st4" d="M615.7,443.65c-9.09,9.89-21.3,18.86-31.68,18.86c-12.94,0-21.68-6.95-21.68-22.94c0-0.03,0-0.07,0-0.11
			c-4.06,3.23-8.96,5.5-14.29,5.5c-3.03,0-4.87-0.52-6.72-1.74c-8.07,11.3-16.97,17.55-28.74,17.55c-11.93,0-21.35-8.17-21.35-25.2
			c0-0.35,0.02-0.71,0.03-1.06c-0.74,4.08-1.14,8.3-1.14,12.57c0,17.03,9.41,25.2,21.35,25.2c11.76,0,20.67-6.26,28.74-17.55
			c1.85,1.22,3.7,1.74,6.72,1.74c5.33,0,10.23-2.27,14.29-5.5c0,0.03,0,0.07,0,0.11c0,15.99,8.74,22.94,21.68,22.94
			c10.38,0,22.59-8.97,31.68-18.86c0.79,8.6,7.78,16.95,17.06,16.95c3.36,0,6.22-0.69,7.73-2.43c0.04-3.75,0.13-7.32,0.28-10.76
			c-1.61,1.19-4.07,1.69-6.89,1.69C623.48,460.6,616.5,452.25,615.7,443.65z"/>
		<path class="st4" d="M654.94,410.72c-2.86,0-6.89,1.91-11.43,5.91c-0.83,6.06-1.53,12.29-2.05,18.97c0.29-2.53,0.6-5.01,0.94-7.46
			c4.54-4,8.57-5.91,11.43-5.91c0.4,0,0.72,0.07,1,0.19c1.39-4.25,2.47-7.57,2.47-8.91C657.3,412.11,656.79,410.72,654.94,410.72z"
			/>
		<path class="st4" d="M343.61,449.76c-0.75,3.58-1.21,6.93-1.21,9.66c0.17,10.43,6.55,14.42,15.97,14.42
			c3.53,0,5.04-0.87,6.72-2.61c0.17-3.92,0.47-7.6,0.87-11.27c-1.59,1.58-3.12,2.37-6.48,2.37
			C350.65,462.34,344.48,458.81,343.61,449.76z"/>
		<path class="st4" d="M759.15,461.12c-12.94,0-20.35-6.56-22.95-18.46c-9.04,10-21.19,19.16-29.82,19.16
			c-9.92,0-13.28-4.52-13.28-14.08c0-1.81,0.11-3.58,0.32-5.38c-9.62,10.56-22.74,20.5-31.58,20.5c-9.03,0-12.62-3.77-13.19-11.66
			c-0.73,3.28-1.2,6.42-1.2,9.09c0,9.56,3.36,14.08,13.28,14.08c8.84,0,21.96-9.94,31.58-20.5c-0.21,1.8-0.32,3.58-0.32,5.38
			c0,9.56,3.36,14.08,13.28,14.08c8.63,0,20.78-9.16,29.82-19.16c2.6,11.9,10.02,18.46,22.95,18.46c21.85,0,49.92-27.63,49.92-40.49
			c0-1.25-0.48-2.49-1.36-3.5C799.29,442.43,777.12,461.12,759.15,461.12z"/>
		<path class="st4" d="M376.18,405.54c0-0.23,0-0.46,0-0.69c0-0.66-0.05-1.31-0.15-1.94c-0.62,2.05-1.55,4.4-2.94,7.29
			C374.15,408.56,375.18,407.02,376.18,405.54z"/>
		<path class="st4" d="M697.78,416.55c-0.36,0.9-0.64,1.77-0.87,2.63c0.35-0.48,0.69-0.95,1.04-1.44
			C697.88,417.35,697.83,416.95,697.78,416.55z"/>
		<path class="st4" d="M672.59,437.83c0,1.3,0.4,2.03,1.12,2.37c1.87-5.67,4.49-12.42,6.17-16.93c2.52-6.6,4.03-11.99,4.03-17.38
			c0-0.83-0.07-1.63-0.2-2.39c-0.68,2.58-1.59,5.3-2.73,8.26C678.14,419.41,672.59,433.49,672.59,437.83z"/>
		<path class="st4" d="M718.47,434.7c0,1.26,0.37,1.98,1.05,2.33c1.12-3.18,2.69-7.17,4.73-12.38c3.03-7.3,5.88-14.6,5.88-19.12
			c0-1.66-0.04-3.16-0.22-4.5c-1.12,3.68-2.8,7.9-4.55,12.11C720.66,425.15,718.47,430.71,718.47,434.7z"/>
		<path class="st4" d="M758.81,427.93c0,4.99,0.62,8.56,2.78,10.5c20.07-5.71,27.37-16.53,27.37-30.27c0-0.88-0.04-1.72-0.11-2.53
			C785.82,415.85,776.86,423.7,758.81,427.93z"/>
		<path class="st4" d="M646.2,401.16c0.75-0.71,1.5-1.41,2.24-2.07l0.68-2.76c13.11-22.42,16.81-32.5,16.81-40.14
			c0-1.15-0.06-2.2-0.19-3.17c-1.99,6.96-6.56,16.51-15.51,31.81L646.2,401.16z"/>
		<path class="st4" d="M606.04,403.77c-3.87,0-7.4-0.17-12.27-1.04c-4.54,19.12-5.88,28.85-5.88,31.45c0,0.76,0.03,1.45,0.11,2.06
			c0.9-5.15,2.38-12.39,4.66-22.01c4.87,0.87,8.4,1.04,12.27,1.04c5.55,0,9.75-5.04,9.75-11.64c0-1.37-0.33-2.88-0.93-4.23
			C611.98,402.09,609.24,403.77,606.04,403.77z"/>
		<path class="st4" d="M400.66,439.22c0,1.45,0.49,2.2,1.38,2.47c2.23-6.06,5.42-13.44,7.26-18.08c3.03-7.3,4.54-13.38,4.54-17.9
			c0-0.96-0.08-1.91-0.23-2.83c-0.75,2.8-1.8,5.88-3.19,9.22C407.38,419.76,400.66,434.88,400.66,439.22z"/>
		<path class="st4" d="M483.52,411.59c-4.54,22.07-19.16,49.18-40.17,49.18c-10.23,0-18.59-6.03-20.77-18.47
			c-9.89,11.02-23.54,21.6-32.51,21.6c-8.87,0-12.49-3.63-13.15-11.24c-0.75,3.15-1.24,6.13-1.24,8.66
			c0,9.56,3.36,14.08,13.28,14.08c8.97,0,22.61-10.58,32.51-21.6c2.18,12.45,10.54,18.47,20.77,18.47
			c21.01,0,35.63-27.11,40.17-49.18c0,0,4.47-0.41,10.15-0.98c0.8-4.09,1.94-8.04,3.4-11.74
			C489.23,411.07,483.52,411.59,483.52,411.59z"/>
		<path class="st4" d="M767.89,396.99c-2.35,0-6.89,5.91-8.07,18.07c0.59-0.11,1.14-0.23,1.67-0.37c1.77-4.15,3.9-6.2,5.28-6.2
			c1.01,0,1.84,0.52,2.43,1.49c1.56-2.17,2.04-4.74,2.04-7.26C771.25,399.08,769.9,396.99,767.89,396.99z"/>
		<path class="st4" d="M343.37,403.17c0.02-0.44,0.04-0.87,0.04-1.27c0-0.95-0.08-1.79-0.24-2.53c-0.81,3.01-2.04,6.52-3.86,10.67
			C340.72,407.52,342.07,405.25,343.37,403.17z"/>
		<path class="st4" d="M566.41,401.08c-2.19,1.96-3.33,4.78-3.33,7.77c0,3.03,1.8,3.87,4.21,4.27c0.89-3.37,1.92-7.1,3.12-11.26
			C568.9,401.7,567.5,401.54,566.41,401.08z"/>
		<path class="st4" d="M550.67,428.17c1.99-7.25,3.33-14.81,3.33-20.37c0-0.25-0.01-0.48-0.02-0.72
			c-1.21,6.67-3.26,13.98-5.59,19.98C548.78,427.46,549.56,427.96,550.67,428.17z"/>
		<path class="st4" d="M849.7,398.34c-1.34,2.07-2.08,4.47-2.08,7.2c0,6.06,5.36,11.06,13.08,13.16c1.67-3.61,3.21-7.14,4.67-10.77
			C857.87,406.85,851.93,403.2,849.7,398.34z"/>
		<path class="st4" d="M912.76,351.29c-2.19,0-4.54,1.56-6.72,9.21l-9.41,29.02c1.04-0.43,2.06-0.88,3.05-1.33l5.25-16.19
			c2.18-7.65,4.54-9.21,6.72-9.21c5.09,0,9.7,2.5,11.63,6.05c1.36-2.62,2.08-5.25,2.08-7.82
			C925.36,355.63,919.48,351.29,912.76,351.29z"/>
		<path class="st4" d="M891.75,407.25c-2.02,6.08-7.9,16.51-12.77,23.81c1.84,0.32,3.6,0.65,5.32,0.99
			c2.77-4.92,5.19-9.82,6.34-13.3c37.48-12.17,54.62-33.02,54.62-50.4c0-1.02-0.07-2.04-0.19-3.05
			C940.44,380.6,923.31,397,891.75,407.25z"/>
		<path class="st4" d="M922.51,482.49c-12.27-10.95-28.24-19.98-61.51-27.81c-6.05,5.91-11.09,9.56-16.3,9.56
			c-7.08,0-13.68-9.74-15.58-18.52c-1.14,1.78-1.66,4.01-1.66,6.74c0,9.56,7.73,23.29,16.14,23.29c5.21,0,10.25-3.65,16.3-9.56
			c33.28,7.82,49.25,16.86,61.51,27.81c6.05-1.74,11.09-8.69,11.09-17.38c0-1.24-0.11-2.49-0.33-3.76
			C930.24,477.74,926.61,481.32,922.51,482.49z"/>
		<path class="st4" d="M1071.25,437.48c0,1.39,0.45,2.13,1.27,2.44c1.82-5.05,4.3-10.91,6.02-15.26c3.53-8.34,4.87-14.42,4.87-19.12
			c0-0.89-0.07-1.75-0.2-2.57c-0.78,2.98-1.93,6.33-3.56,10.18C1076.63,420.8,1071.25,433.14,1071.25,437.48z"/>
		<path class="st4" d="M1046.77,403.39c0.33-2.14,0.51-3.95,0.51-5.14c0-0.87-0.05-1.64-0.14-2.34c-1.09,5.07-2.9,11.05-5.47,15.86
			C1043.39,408.7,1045.09,405.92,1046.77,403.39z"/>
		<path class="st4" d="M978.71,394.94C978.7,394.94,978.7,394.94,978.71,394.94c-8.31,5.69-16.2,19.93-16.2,33.16
			c0,0.82,0.03,1.55,0.1,2.2c2.46-9.9,8.37-19.1,14.59-23.57l1.78-12c-0.09,0.06-0.18,0.14-0.27,0.2L978.71,394.94z"/>
		<path class="st4" d="M1013.3,441.11c-9.1,10.03-21.3,19.31-28.27,19.31c-7.39,0-12.1-3.13-12.1-14.25c0-1.91,0.17-4.17,0.5-6.78
			c-0.28,0.81-0.56,1.59-0.85,2.34l-0.1,0.65c-0.1,0.13-0.2,0.24-0.3,0.37c-5.28,13.08-12.3,16.8-17.74,16.8
			c-9.43,0-16.4-7.92-16.62-23.24c-0.73,3.56-1.13,7.17-1.13,10.77c0,15.81,7.06,23.98,16.64,23.98c5.88,0,13.61-4.34,18.99-20.16
			c-0.34,2.61-0.5,4.87-0.5,6.78c0,11.12,4.71,14.25,12.1,14.25c6.97,0,19.17-9.28,28.27-19.31c0.45,10.14,7.23,18.96,16.43,18.96
			c3.87,0,5.04-0.52,6.72-2.26c0.17-4.05,0.41-7.63,0.73-11.13c-1.5,1.43-2.77,1.88-6.34,1.88
			C1020.53,460.08,1013.75,451.26,1013.3,441.11z"/>
		<path class="st4" d="M1111.58,351.81c-0.52-0.48-0.93-1.06-1.26-1.71c-1.37,2.33-2.03,4.91-2.03,7.48c0,2.09,0.67,4.34,2.19,5.73
			c15.8,1.04,26.39,11.3,26.39,31.46c0,2.06-0.06,4.12-0.17,6.16c0.81-5.67,1.28-11.64,1.28-17.67
			C1137.97,363.1,1127.38,352.85,1111.58,351.81z"/>
		<path class="st4" d="M1016.09,413.09c-0.9,2.28-1.42,4.45-1.42,6.35c0,0.63,0.02,1.29,0.04,1.95c0.82-1.07,1.65-2.18,2.5-3.37
			C1016.66,416.47,1016.31,414.79,1016.09,413.09z"/>
		<path class="st4" d="M1114.1,461.12c-11.25,0-19.18-6.35-21.48-19.7c-9.61,10.47-22.97,20.4-31.97,20.4
			c-8.97,0-12.56-3.71-13.17-11.48c-0.73,3.14-1.22,6.2-1.22,8.91c0,9.56,3.36,14.08,13.28,14.08c8.99,0,22.35-9.93,31.97-20.4
			c2.3,13.35,10.23,19.7,21.48,19.7c20.13,0,45.49-31.09,48.3-79.97C1155.52,434.85,1132.61,461.12,1114.1,461.12z"/>
		<path class="st4" d="M1053.94,412.81c-1.51,0-7.06,2.61-13.61,11.99c-1.93,10.99-2.96,18.23-3.54,27.01
			c0.59-4.62,1.37-9.5,2.43-15.5c6.55-9.38,12.1-11.99,13.61-11.99c0.1,0,0.19,0.01,0.28,0.02c1.57-4.43,2.85-7.96,2.85-9.44
			C1055.95,413.5,1055.28,412.81,1053.94,412.81z"/>
		<path class="st4" d="M993.94,434.01c0,0.91,0.05,1.61,0.14,2.16c1.22-6.22,3.39-15.26,6.82-28.02c1.34-4.87,1.85-9.21,1.85-11.47
			c0-0.65-0.09-1.33-0.23-2.02c-0.15,0.65-0.32,1.31-0.51,1.98C996.12,418.54,993.94,429.49,993.94,434.01z"/>
		<path class="st4" d="M1115.62,430.88c0,0.31,0.01,0.6,0.02,0.89c2.15-10.64,7.45-22.28,16.52-28.32c0.17-0.69,0.17-1.39,0.17-2.09
			c0-2.8-0.97-5-2.95-6.27C1119.85,404.22,1115.62,419.94,1115.62,430.88z"/>
	</g>
	<g>
		<path class="st5" d="M282.84,332.34c-21.18,0-35.63,20.68-35.63,39.97c0,10.77,2.86,20.51,11.76,32.32
			c15.63,20.51,16.64,25.2,16.64,30.93c0,8.86-5.04,14.94-11.43,14.94c-11.26,0-21.68-10.43-21.68-34.06v-3.3
			c-1.51-1.91-4.03-2.78-6.89-2.78c-11.76,0-18.32,14.77-18.32,27.46c0,19.12,13.11,34.93,38.99,34.93
			c28.24,0,45.71-23.46,45.71-43.1c0-10.25-2.35-17.55-16.47-38.23c-9.75-14.08-12.61-20.85-12.61-26.42c0-5.04,3.03-8.34,6.72-8.34
			c6.22,0,12.44,3.48,21.35,11.12c3.7-1.91,7.23-7.47,7.23-14.25C308.22,343.12,300.99,332.34,282.84,332.34z"/>
		<path class="st5" d="M732.59,371.27c8.07-10.25,11.26-17.03,11.26-21.2c0-5.39-7.56-13.03-14.29-13.03
			c-5.38,0-8.24,5.04-8.24,19.12C721.33,366.23,726.03,371.27,732.59,371.27z"/>
		<path class="st5" d="M803.18,414.89c-9.58,15.12-24.37,25.2-35.8,25.2c-6.55,0-8.07-4.34-8.07-12.17
			c23.03-5.39,31.26-16.68,31.26-31.28c0-12.16-6.39-17.9-17.98-17.9c-14.66,0-32.85,21.65-36.36,45.09
			c-7.79,9.89-13.01,13.47-14.9,13.47c-1.51,0-2.35-0.69-2.35-2.61c0-4,2.19-9.56,6.89-21.55c3.03-7.3,5.88-14.6,5.88-19.12
			c0-6.78-0.67-11.12-8.4-11.12c-10.42,0-25.38,18.25-25.38,28.5c0,2.01,0.12,4.2,0.48,6.32c-10.41,14.87-20.1,22.7-23,22.7
			c-1.51,0-2.35-0.7-2.35-2.61c0-4.34,5.55-18.42,8.4-26.07c2.52-6.6,4.03-11.99,4.03-17.38c0-6.08-3.36-10.25-9.75-10.25
			c-6.55,0-16.98,5.56-29.08,17.03l4.03-16.34c13.11-22.42,16.81-32.5,16.81-40.14c0-8.86-3.7-12.34-10.92-12.34
			c-20.65,0-27.83,25.32-34.17,83.44c-11.3,16.31-22.72,24.48-29.53,24.48c-3.53,0-4.54-1.91-4.54-6.08
			c0-2.61,1.34-12.34,5.88-31.45c4.87,0.87,8.4,1.04,12.27,1.04c5.55,0,9.75-5.04,9.75-11.64c0-2.61-1.18-5.74-3.19-7.3
			c-2.18,0.52-9.24,1.04-14.45,1.22c5.71-18.42,11.76-27.11,11.76-32.5c0-4-2.86-5.74-6.55-5.74c-11.26,0-20.17,16.34-28.57,39.1
			c-6.89,0.17-10.59,5.04-10.59,10.43c0,3.82,2.86,4.17,6.22,4.52c-1.53,5.28-2.78,9.89-3.81,13.93
			c-5.36,8.68-10.1,12.48-14.84,12.48c-1.68,0-2.86-0.7-3.36-1.22c3.7-9.56,6.72-22.42,6.72-30.76c0-6.78-3.36-11.64-10.25-11.64
			c-3.19,0-5.88,1.04-8.24,4c-0.17-3.3-2.52-7.3-7.9-7.3c-5.71,0-13.28,4.17-22.86,11.99c-5.21,0.87-13.78,2.09-20,2.95
			c0-9.38-3.19-13.38-8.91-13.38c-3.53,0-6.89,1.74-9.58,5.74c-0.17-5.56-5.21-7.65-9.41-7.65c-15.17,0-30.57,18.64-34.82,41.99
			c-9.47,12.33-17.58,18.84-20.14,18.84c-1.51,0-2.35-0.69-2.35-2.61c0-4.34,6.72-19.46,9.75-27.11c3.03-7.3,4.54-13.38,4.54-17.9
			c0-6.78-3.7-12.86-11.43-12.86c-7.4,0-16.64,7.47-30.42,28.85c4.03-8.34,4.2-12.34,4.2-16.86c0-5.74-3.53-10.25-9.92-10.25
			c-7.4,0-15.8,5.04-28.07,26.94c4.03-9.21,5.21-15.29,5.21-19.64c0-5.21-2.35-7.3-7.23-7.3c-10.42,0-23.87,12.86-23.87,23.11
			c0,3.48,0.34,7.47,1.68,10.77c-2.86,7.99-4.71,17.03-4.71,23.64c0.17,10.43,7.06,19.64,16.47,19.64c3.87,0,5.04-0.52,6.72-2.26
			c0.5-11.82,2.02-21.55,4.37-34.93c6.55-9.38,10.59-11.99,12.1-11.99c1.34,0,2.02,0.52,2.02,2.09c0,1.74-1.51,5.74-2.86,9.56
			c-3.02,8.34-5.71,18.59-5.71,25.2c0.17,10.43,6.55,14.42,15.97,14.42c3.53,0,5.04-0.87,6.72-2.61c0.5-11.82,2.18-21.55,4.54-34.93
			c6.55-9.38,12.44-13.03,13.95-13.03c1.34,0,2.02,0.7,2.02,2.09c0,3.82-9.92,24.5-9.92,35.97c0,9.56,3.36,14.08,13.28,14.08
			c8.97,0,22.61-10.58,32.51-21.6c2.18,12.45,10.54,18.47,20.77,18.47c21.01,0,35.63-27.11,40.17-49.18c0,0,5.71-0.52,12.44-1.22
			c-3.03,7.65-4.71,16.34-4.71,25.2c0,17.03,9.41,25.2,21.35,25.2c11.76,0,20.67-6.26,28.74-17.55c1.85,1.22,3.7,1.74,6.72,1.74
			c5.33,0,10.23-2.27,14.29-5.5c0,0.03,0,0.07,0,0.11c0,15.99,8.74,22.94,21.68,22.94c10.38,0,22.59-8.97,31.68-18.86
			c0.79,8.6,7.78,16.95,17.06,16.95c3.36,0,6.22-0.69,7.73-2.43c0.17-16.16,1.34-29.2,3.03-41.53c4.54-4,8.57-5.91,11.43-5.91
			c1.85,0,2.35,1.39,2.35,2.78c0,3.82-8.74,23.81-8.74,35.28c0,9.56,3.36,14.08,13.28,14.08c8.84,0,21.96-9.94,31.58-20.5
			c-0.21,1.8-0.32,3.58-0.32,5.38c0,9.56,3.36,14.08,13.28,14.08c8.63,0,20.78-9.16,29.82-19.16c2.6,11.9,10.02,18.46,22.95,18.46
			c21.85,0,49.92-27.63,49.92-40.49C809.56,417.85,807.21,415.07,803.18,414.89z M768.39,396.99c2.02,0,3.36,2.09,3.36,5.74
			c0,5.21-2.02,10.6-11.43,12.34C761.5,402.9,766.03,396.99,768.39,396.99z M452.25,440.96c-2.69,0-5.88-2.43-5.88-10.6
			c0-13.56,8.4-31.98,18.32-36.5c-2.02,3.3-2.69,6.6-2.69,9.38c0,4.17,1.68,7.47,4.03,8.34
			C463.85,426.19,458.47,440.96,452.25,440.96z M531.41,432.97c-2.35,3.82-5.71,7.13-9.75,7.13c-3.03,0-6.05-2.43-6.05-10.95
			c0-7.65,2.02-17.55,5.88-24.16c4.37-1.74,8.91-4.69,11.43-8.17c-2.35,6.08-4.2,14.77-4.2,20.16
			C528.72,422.37,529.56,428.97,531.41,432.97z"/>
		<path class="st5" d="M946.87,356.85c0-14.95-13.11-28.85-32.77-28.85c-8.4,0-16.13,3.65-22.02,13.38
			c-4.54,7.65-12.44,27.81-19.66,48.49c-5.21-1.04-11.26-4-16.14-7.82c-4.37,2.78-7.06,6.78-7.06,11.99
			c0,6.95,7.06,12.51,16.64,13.9c-2.86,7.12-6.05,13.9-9.92,21.55c-3.7-0.35-6.89-0.52-9.75-0.52c-12.61,0-17.14,3.82-17.14,11.99
			c0,9.56,7.73,23.29,16.14,23.29c5.21,0,10.25-3.65,16.3-9.56c33.28,7.82,49.25,16.86,61.51,27.81
			c6.05-1.74,11.09-8.69,11.09-17.38c0-12.16-9.58-26.24-54.62-34.06c4.87-7.3,10.76-17.73,12.77-23.81
			C929.73,395.08,946.87,374.23,946.87,356.85z M906.54,360.5c2.18-7.65,4.54-9.21,6.72-9.21c6.72,0,12.61,4.34,12.61,9.73
			c0,10.08-11.09,21.2-28.74,28.5L906.54,360.5z"/>
		<path class="st5" d="M1131.58,329.56c-14.96,0-21.68,8.34-21.68,16.51c0,2.09,0.67,4.34,2.19,5.73
			c15.8,1.04,26.39,11.3,26.39,31.46c0,28.15-10.25,55.26-17.31,55.26c-3.36,0-5.04-1.74-5.04-7.65c0-12.34,5.38-30.76,17.65-38.93
			c0.17-0.69,0.17-1.39,0.17-2.09c0-4.52-2.52-7.47-7.73-7.47c-11.65,0-28.46,18.78-32.75,40.3c-8.63,11.14-16.53,17.4-19.35,17.4
			c-1.51,0-2.35-0.69-2.35-2.61c0-4.34,5.38-16.68,8.4-24.33c3.53-8.34,4.87-14.42,4.87-19.12c0-6.78-3.87-11.99-11.6-11.99
			c-7.4,0-18.99,7.82-31.26,29.72c4.54-8.52,6.72-20.68,6.72-25.02c0-5.21-1.51-7.3-7.23-7.3c-10.42,0-25.38,18.25-25.38,28.5
			c0,3.24,0.3,6.92,1.43,10.08c-10.02,14.01-18.07,19.98-21.26,19.98c-1.34,0-2.02-0.52-2.02-4c0-4.52,2.18-15.47,8.07-37.36
			c1.34-4.87,1.85-9.21,1.85-11.47c0-6.08-6.22-14.08-17.65-14.08c-2.35,0-4.54,0.7-5.88,2.26l-0.5,10.08
			c-0.84-0.87-2.02-1.22-4.37-1.22c-16.81,0-37.65,27.28-37.65,53.35c0,15.81,7.06,23.98,16.64,23.98c5.88,0,13.61-4.34,18.99-20.16
			c-0.34,2.61-0.5,4.87-0.5,6.78c0,11.12,4.71,14.25,12.1,14.25c6.97,0,19.17-9.28,28.27-19.31c0.45,10.14,7.23,18.96,16.43,18.96
			c3.87,0,5.04-0.52,6.72-2.26c0.5-11.82,1.51-19.64,3.87-33.02c6.55-9.38,12.1-11.99,13.61-11.99c1.34,0,2.02,0.7,2.02,2.09
			c0,3.82-8.57,21.38-8.57,32.84c0,9.56,3.36,14.08,13.28,14.08c8.99,0,22.35-9.93,31.97-20.4c2.3,13.35,10.23,19.7,21.48,19.7
			c21.35,0,48.57-34.93,48.57-88.98C1163.18,345.9,1150.57,329.56,1131.58,329.56z M974.1,430.88c-2.02,2.61-4.37,4.34-6.72,4.34
			c-2.35,0-4.37-0.69-4.37-7.12c0-13.38,8.07-27.81,16.47-33.37L974.1,430.88z"/>
	</g>
</g>
<g id="Layer_4">
	<ellipse transform="matrix(0.5 -0.866 0.866 0.5 -152.7788 427.7813)" class="st6" cx="294.08" cy="346.2" rx="4.5" ry="10.1"/>
	<ellipse transform="matrix(0.7071 -0.7071 0.7071 0.7071 -55.2784 560.5463)" class="st6" cx="649" cy="347" rx="12.5" ry="4.5"/>
	<ellipse transform="matrix(0.5 -0.866 0.866 0.5 271.0872 1157.5369)" class="st6" cx="1138" cy="344" rx="4.5" ry="12.5"/>
	<ellipse transform="matrix(0.7931 -0.6091 0.6091 0.7931 -87.7911 655.5714)" class="st6" cx="921" cy="457" rx="4.5" ry="12.5"/>
	
		<ellipse transform="matrix(0.7071 -0.7071 0.7071 0.7071 -173.4346 370.5982)" class="st6" cx="360.63" cy="394.65" rx="8.02" ry="4.5"/>
	
		<ellipse transform="matrix(0.7071 -0.7071 0.7071 0.7071 -161.5963 397.1757)" class="st6" cx="398.64" cy="393.65" rx="8.02" ry="4.5"/>
	
		<ellipse transform="matrix(0.9891 -0.1473 0.1473 0.9891 -52.9236 74.828)" class="st6" cx="478.63" cy="394.65" rx="4.5" ry="8.02"/>
	
		<ellipse transform="matrix(0.9891 -0.1473 0.1473 0.9891 -52.1596 85.1416)" class="st6" cx="548.63" cy="394.65" rx="4.5" ry="8.02"/>
	
		<ellipse transform="matrix(0.7071 -0.7071 0.7071 0.7071 -78.2517 528.385)" class="st6" cx="598.69" cy="358.65" rx="8.02" ry="4.5"/>
	
		<ellipse transform="matrix(0.7931 -0.6091 0.6091 0.7931 -59.9427 518.8492)" class="st6" cx="733.69" cy="347.65" rx="4.5" ry="8.02"/>
	
		<ellipse transform="matrix(0.9977 -0.0685 0.0685 0.9977 -22.0941 64.9986)" class="st6" cx="936.69" cy="354.65" rx="4.5" ry="8.02"/>
	
		<ellipse transform="matrix(0.7931 -0.6091 0.6091 0.7931 -27.4611 684.4646)" class="st6" cx="993.69" cy="382.65" rx="4.5" ry="8.02"/>
	
		<ellipse transform="matrix(0.8864 -0.4629 0.4629 0.8864 -60.1395 542.2488)" class="st6" cx="1074.69" cy="393.65" rx="4.5" ry="8.02"/>
	
		<ellipse transform="matrix(0.7931 -0.6091 0.6091 0.7931 -76.4096 556.376)" class="st6" cx="780.69" cy="390.65" rx="4.5" ry="8.02"/>
</g>
</svg>
