<?xml version="1.0" encoding="utf-8"?>
<!-- Generator: Adobe Illustrator 23.0.1, SVG Export Plug-In . SVG Version: 6.00 Build 0)  -->
<svg version="1.1" id="Layer_1" xmlns="http://www.w3.org/2000/svg" xmlns:xlink="http://www.w3.org/1999/xlink" x="0px" y="0px"
	 viewBox="0 0 150 80" style="enable-background:new 0 0 150 80;" xml:space="preserve">
<style type="text/css">
	.st0{fill:#FFF0ED;stroke:#42210B;stroke-width:0.1;stroke-miterlimit:10;}
	.st1{fill:#FFFFFF;}
	.st2{fill:#FF93A9;}
</style>
<g>
	<path class="st0" d="M13.79,29.65c-3.19,0-5.37,3.11-5.37,6.02c0,1.62,0.43,3.09,1.77,4.87c2.35,3.09,2.51,3.79,2.51,4.66
		c0,1.33-0.76,2.25-1.72,2.25c-1.7,0-3.27-1.57-3.27-5.13v-0.5c-0.23-0.29-0.61-0.42-1.04-0.42c-1.77,0-2.76,2.22-2.76,4.14
		c0,2.88,1.97,5.26,5.87,5.26c4.25,0,6.88-3.53,6.88-6.49c0-1.54-0.35-2.64-2.48-5.76c-1.47-2.12-1.9-3.14-1.9-3.98
		c0-0.76,0.46-1.26,1.01-1.26c0.94,0,1.87,0.52,3.21,1.68c0.56-0.29,1.09-1.13,1.09-2.15C17.61,31.28,16.52,29.65,13.79,29.65z"/>
	<path class="st0" d="M81.52,35.52c1.21-1.54,1.7-2.56,1.7-3.19c0-0.81-1.14-1.96-2.15-1.96c-0.81,0-1.24,0.76-1.24,2.88
		C79.83,34.76,80.54,35.52,81.52,35.52z"/>
	<path class="st0" d="M92.16,42.09c-1.44,2.28-3.67,3.8-5.39,3.8c-0.99,0-1.21-0.65-1.21-1.83c3.47-0.81,4.71-2.51,4.71-4.71
		c0-1.83-0.96-2.7-2.71-2.7c-2.21,0-4.95,3.26-5.48,6.79c-1.17,1.49-1.96,2.03-2.24,2.03c-0.23,0-0.35-0.1-0.35-0.39
		c0-0.6,0.33-1.44,1.04-3.25c0.46-1.1,0.89-2.2,0.89-2.88c0-1.02-0.1-1.68-1.27-1.68c-1.57,0-3.82,2.75-3.82,4.29
		c0,0.3,0.02,0.63,0.07,0.95c-1.57,2.24-3.03,3.42-3.46,3.42c-0.23,0-0.35-0.1-0.35-0.39c0-0.65,0.84-2.77,1.27-3.93
		c0.38-0.99,0.61-1.81,0.61-2.62c0-0.92-0.51-1.54-1.47-1.54c-0.99,0-2.56,0.84-4.38,2.56l0.61-2.46c1.97-3.38,2.53-4.89,2.53-6.05
		c0-1.33-0.56-1.86-1.65-1.86c-3.11,0-4.19,3.81-5.15,12.57c-1.7,2.46-3.42,3.69-4.45,3.69c-0.53,0-0.68-0.29-0.68-0.92
		c0-0.39,0.2-1.86,0.89-4.74c0.73,0.13,1.27,0.16,1.85,0.16c0.84,0,1.47-0.76,1.47-1.75c0-0.39-0.18-0.86-0.48-1.1
		c-0.33,0.08-1.39,0.16-2.18,0.18c0.86-2.77,1.77-4.08,1.77-4.89c0-0.6-0.43-0.86-0.99-0.86c-1.7,0-3.04,2.46-4.3,5.89
		c-1.04,0.03-1.59,0.76-1.59,1.57c0,0.58,0.43,0.63,0.94,0.68c-0.23,0.8-0.42,1.49-0.57,2.1c-0.81,1.31-1.52,1.88-2.24,1.88
		c-0.25,0-0.43-0.1-0.51-0.18c0.56-1.44,1.01-3.38,1.01-4.63c0-1.02-0.51-1.75-1.54-1.75c-0.48,0-0.89,0.16-1.24,0.6
		c-0.03-0.5-0.38-1.1-1.19-1.1c-0.86,0-2,0.63-3.44,1.81c-0.78,0.13-2.08,0.31-3.01,0.44c0-1.41-0.48-2.02-1.34-2.02
		c-0.53,0-1.04,0.26-1.44,0.86c-0.03-0.84-0.78-1.15-1.42-1.15c-2.28,0-4.6,2.81-5.24,6.32c-1.43,1.86-2.65,2.84-3.03,2.84
		c-0.23,0-0.35-0.1-0.35-0.39c0-0.65,1.01-2.93,1.47-4.08c0.46-1.1,0.68-2.02,0.68-2.7c0-1.02-0.56-1.94-1.72-1.94
		c-1.11,0-2.51,1.13-4.58,4.34c0.61-1.26,0.63-1.86,0.63-2.54c0-0.86-0.53-1.54-1.49-1.54c-1.11,0-2.38,0.76-4.23,4.06
		c0.61-1.39,0.78-2.3,0.78-2.96c0-0.79-0.35-1.1-1.09-1.1c-1.57,0-3.59,1.94-3.59,3.48c0,0.52,0.05,1.13,0.25,1.62
		c-0.43,1.2-0.71,2.56-0.71,3.56c0.03,1.57,1.06,2.96,2.48,2.96c0.58,0,0.76-0.08,1.01-0.34c0.08-1.78,0.3-3.25,0.66-5.26
		c0.99-1.41,1.59-1.81,1.82-1.81c0.2,0,0.3,0.08,0.3,0.31c0,0.26-0.23,0.86-0.43,1.44c-0.46,1.26-0.86,2.8-0.86,3.79
		c0.03,1.57,0.99,2.17,2.4,2.17c0.53,0,0.76-0.13,1.01-0.39c0.08-1.78,0.33-3.25,0.68-5.26c0.99-1.41,1.87-1.96,2.1-1.96
		c0.2,0,0.3,0.1,0.3,0.31c0,0.58-1.49,3.69-1.49,5.42c0,1.44,0.51,2.12,2,2.12c1.35,0,3.41-1.59,4.9-3.25
		C35.24,48.09,36.5,49,38.04,49c3.16,0,5.37-4.08,6.05-7.41c0,0,0.86-0.08,1.87-0.18c-0.46,1.15-0.71,2.46-0.71,3.8
		c0,2.56,1.42,3.79,3.21,3.79c1.77,0,3.11-0.94,4.33-2.64c0.28,0.18,0.56,0.26,1.01,0.26c0.8,0,1.54-0.34,2.15-0.83
		c0,0.01,0,0.01,0,0.02c0,2.41,1.32,3.45,3.27,3.45c1.56,0,3.4-1.35,4.77-2.84c0.12,1.3,1.17,2.55,2.57,2.55
		c0.51,0,0.94-0.1,1.16-0.37c0.03-2.43,0.2-4.4,0.46-6.26c0.68-0.6,1.29-0.89,1.72-0.89c0.28,0,0.35,0.21,0.35,0.42
		c0,0.58-1.32,3.59-1.32,5.31c0,1.44,0.51,2.12,2,2.12c1.33,0,3.31-1.5,4.76-3.09c-0.03,0.27-0.05,0.54-0.05,0.81
		c0,1.44,0.51,2.12,2,2.12c1.3,0,3.13-1.38,4.49-2.88c0.39,1.79,1.51,2.78,3.46,2.78c3.29,0,7.52-4.16,7.52-6.1
		C93.12,42.53,92.76,42.11,92.16,42.09z M86.92,39.39c0.3,0,0.51,0.31,0.51,0.86c0,0.79-0.3,1.6-1.72,1.86
		C85.88,40.28,86.56,39.39,86.92,39.39z M39.31,46.01c-0.4,0-0.89-0.37-0.89-1.6c0-2.04,1.27-4.82,2.76-5.5
		c-0.3,0.5-0.41,0.99-0.41,1.41c0,0.63,0.25,1.13,0.61,1.26C41.05,43.79,40.24,46.01,39.31,46.01z M51.23,44.81
		c-0.35,0.58-0.86,1.07-1.47,1.07c-0.46,0-0.91-0.37-0.91-1.65c0-1.15,0.3-2.64,0.89-3.64c0.66-0.26,1.34-0.71,1.72-1.23
		c-0.35,0.92-0.63,2.22-0.63,3.04C50.82,43.21,50.95,44.21,51.23,44.81z"/>
	<path class="st0" d="M113.8,33.34c0-2.25-1.97-4.34-4.94-4.34c-1.27,0-2.43,0.55-3.32,2.02c-0.68,1.15-1.87,4.19-2.96,7.3
		c-0.78-0.16-1.7-0.6-2.43-1.18c-0.66,0.42-1.06,1.02-1.06,1.81c0,1.05,1.06,1.88,2.51,2.09c-0.43,1.07-0.91,2.09-1.49,3.25
		c-0.56-0.05-1.04-0.08-1.47-0.08c-1.9,0-2.58,0.58-2.58,1.81c0,1.44,1.16,3.51,2.43,3.51c0.78,0,1.54-0.55,2.46-1.44
		c5.01,1.18,7.42,2.54,9.26,4.19c0.91-0.26,1.67-1.31,1.67-2.62c0-1.83-1.44-3.95-8.23-5.13c0.73-1.1,1.62-2.67,1.92-3.59
		C111.21,39.1,113.8,35.96,113.8,33.34z M107.72,33.89c0.33-1.15,0.68-1.39,1.01-1.39c1.01,0,1.9,0.65,1.9,1.47
		c0,1.52-1.67,3.19-4.33,4.29L107.72,33.89z"/>
	<path class="st0" d="M141.61,29.24c-2.25,0-3.27,1.26-3.27,2.49c0,0.31,0.1,0.65,0.33,0.86c2.38,0.16,3.97,1.7,3.97,4.74
		c0,4.24-1.54,8.32-2.61,8.32c-0.51,0-0.76-0.26-0.76-1.15c0-1.86,0.81-4.63,2.66-5.86c0.03-0.1,0.03-0.21,0.03-0.31
		c0-0.68-0.38-1.13-1.16-1.13c-1.75,0-4.29,2.83-4.93,6.07c-1.3,1.68-2.49,2.62-2.91,2.62c-0.23,0-0.35-0.1-0.35-0.39
		c0-0.65,0.81-2.51,1.27-3.66c0.53-1.26,0.73-2.17,0.73-2.88c0-1.02-0.58-1.81-1.75-1.81c-1.11,0-2.86,1.18-4.71,4.48
		c0.68-1.28,1.01-3.11,1.01-3.77c0-0.79-0.23-1.1-1.09-1.1c-1.57,0-3.82,2.75-3.82,4.29c0,0.49,0.05,1.04,0.22,1.52
		c-1.51,2.11-2.72,3.01-3.2,3.01c-0.2,0-0.3-0.08-0.3-0.6c0-0.68,0.33-2.33,1.21-5.63c0.2-0.73,0.28-1.39,0.28-1.73
		c0-0.92-0.94-2.12-2.66-2.12c-0.35,0-0.68,0.1-0.89,0.34l-0.08,1.52c-0.13-0.13-0.3-0.18-0.66-0.18c-2.53,0-5.67,4.11-5.67,8.04
		c0,2.38,1.06,3.61,2.51,3.61c0.89,0,2.05-0.65,2.86-3.04c-0.05,0.39-0.08,0.73-0.08,1.02c0,1.68,0.71,2.15,1.82,2.15
		c1.05,0,2.89-1.4,4.26-2.91c0.07,1.53,1.09,2.86,2.47,2.86c0.58,0,0.76-0.08,1.01-0.34c0.08-1.78,0.23-2.96,0.58-4.97
		c0.99-1.41,1.82-1.81,2.05-1.81c0.2,0,0.3,0.1,0.3,0.31c0,0.58-1.29,3.22-1.29,4.95c0,1.44,0.51,2.12,2,2.12
		c1.35,0,3.37-1.5,4.81-3.07c0.35,2.01,1.54,2.97,3.23,2.97c3.21,0,7.32-5.26,7.32-13.4C146.37,31.7,144.47,29.24,141.61,29.24z
		 M117.9,44.49c-0.3,0.39-0.66,0.65-1.01,0.65c-0.35,0-0.66-0.1-0.66-1.07c0-2.02,1.22-4.19,2.48-5.03L117.9,44.49z"/>
</g>
<ellipse transform="matrix(0.7071 -0.7071 0.7071 0.7071 -20.1331 29.4707)" class="st1" cx="25.51" cy="39.04" rx="1.21" ry="0.68"/>
<g>
	<ellipse transform="matrix(0.5 -0.866 0.866 0.5 -19.7463 29.2806)" class="st2" cx="15.48" cy="31.74" rx="0.68" ry="1.52"/>
	
		<ellipse transform="matrix(0.7071 -0.7071 0.7071 0.7071 -2.3385 58.0774)" class="st2" cx="68.94" cy="31.86" rx="1.88" ry="0.68"/>
	<ellipse transform="matrix(0.5 -0.866 0.866 0.5 44.0889 139.1835)" class="st2" cx="142.58" cy="31.41" rx="0.68" ry="1.88"/>
	
		<ellipse transform="matrix(0.7931 -0.6091 0.6091 0.7931 -6.7573 76.9641)" class="st2" cx="109.9" cy="48.43" rx="0.68" ry="1.88"/>
	
		<ellipse transform="matrix(0.7071 -0.7071 0.7071 0.7071 -18.3502 33.4734)" class="st2" cx="31.23" cy="38.89" rx="1.21" ry="0.68"/>
	
		<ellipse transform="matrix(0.9891 -0.1473 0.1473 0.9891 -5.2795 6.8027)" class="st2" cx="43.28" cy="39.04" rx="0.68" ry="1.21"/>
	
		<ellipse transform="matrix(0.9891 -0.1473 0.1473 0.9891 -5.1644 8.3559)" class="st2" cx="53.82" cy="39.04" rx="0.68" ry="1.21"/>
	
		<ellipse transform="matrix(0.7071 -0.7071 0.7071 0.7071 -5.7983 53.2338)" class="st2" cx="61.36" cy="33.62" rx="1.21" ry="0.68"/>
	
		<ellipse transform="matrix(0.7931 -0.6091 0.6091 0.7931 -2.5633 56.3735)" class="st2" cx="81.69" cy="31.96" rx="0.68" ry="1.21"/>
	
		<ellipse transform="matrix(0.9977 -0.0685 0.0685 0.9977 -1.9978 7.7678)" class="st2" cx="112.26" cy="33.01" rx="0.68" ry="1.21"/>
	
		<ellipse transform="matrix(0.7931 -0.6091 0.6091 0.7931 2.3285 81.3155)" class="st2" cx="120.85" cy="37.23" rx="0.68" ry="1.21"/>
	
		<ellipse transform="matrix(0.8864 -0.4629 0.4629 0.8864 -2.8868 66.0115)" class="st2" cx="133.05" cy="38.89" rx="0.68" ry="1.21"/>
	
		<ellipse transform="matrix(0.7931 -0.6091 0.6091 0.7931 -5.0432 62.0251)" class="st2" cx="88.77" cy="38.44" rx="0.68" ry="1.21"/>
</g>
</svg>
